<svg width="272" height="91" viewBox="0 0 272 91" fill="none" xmlns="http://www.w3.org/2000/svg">
<g clip-path="url(#clip0_4_1737)">
<path d="M116.883 11.7554C117.299 11.7554 117.631 11.7554 117.714 11.8443C117.797 11.9332 117.797 12.0221 117.797 12.3776C117.797 12.5554 117.881 12.8221 117.964 12.8221C118.047 12.8221 118.296 12.7332 118.712 12.3776C119.044 12.1998 119.293 11.9332 119.792 11.8443C120.208 11.7554 120.623 11.6665 121.039 11.6665C121.87 11.6665 122.618 12.0221 123.283 12.6443C123.782 13.0887 124.197 13.7109 124.53 14.5109C124.862 15.3109 124.945 16.0221 124.945 16.9109C124.945 18.7776 124.364 20.1109 123.2 21.3554C122.286 22.2443 121.371 22.7776 120.291 22.7776C119.709 22.7776 119.21 22.6887 118.545 22.3332C118.462 22.2443 118.379 22.2443 118.213 22.2443C118.047 22.2443 117.881 22.4221 117.881 22.8665C117.881 23.3998 118.047 23.8443 118.379 24.0221C118.712 24.1998 118.878 24.4665 118.961 24.4665C119.044 24.5554 119.044 24.6443 119.044 24.9109C119.044 25.3554 118.878 25.7109 118.296 25.8887C117.881 26.0665 117.216 26.2443 116.384 26.2443C114.971 26.2443 113.642 25.8887 112.561 25.2665C112.062 24.9109 111.73 24.6443 111.73 24.1109C111.73 23.9332 111.73 23.7554 111.813 23.6665C111.896 23.5776 111.979 23.4887 112.312 23.3109C112.644 23.1332 112.893 22.8665 112.893 22.3332C112.977 21.8887 112.977 20.6443 113.06 18.4221C113.06 16.7332 112.977 15.7554 112.893 15.4887C112.893 15.3998 112.81 15.3998 112.81 15.3998C112.81 15.3998 112.727 15.2221 112.395 15.2221C112.229 15.2221 111.979 15.1332 111.896 14.8665C111.813 14.6887 111.73 14.5109 111.73 14.2443C111.73 13.9776 111.813 13.7109 112.062 13.4443C112.229 13.2665 112.561 12.9998 112.977 12.8221C114.639 12.1998 115.969 11.7554 116.883 11.7554ZM117.881 15.7554L117.797 18.6887C117.797 18.7776 117.797 18.8665 117.797 19.0443C117.797 19.2221 117.881 19.4887 118.13 19.5776C118.296 19.6665 118.545 19.7554 118.878 19.7554C119.792 19.7554 120.291 18.9554 120.291 17.3554C120.291 16.2887 120.125 15.6665 119.709 15.2221C119.543 15.0443 119.21 14.7776 118.878 14.7776C118.213 14.7776 117.881 15.1332 117.881 15.7554Z" fill="#3F3B3D"/>
<path d="M134.836 17.5331H130.182C130.016 17.5331 129.849 17.622 129.849 17.8886C129.849 18.3331 130.016 18.7775 130.597 19.222C131.179 19.6664 131.595 19.8442 132.093 19.8442C132.426 19.8442 132.842 19.7553 133.174 19.6664C133.59 19.5775 133.922 19.3108 134.171 19.222C134.338 19.0442 134.587 19.0442 134.67 19.0442C134.836 19.0442 135.003 19.1331 135.169 19.3997C135.335 19.5775 135.335 19.8442 135.335 20.1997C135.335 20.7331 135.003 21.1775 134.421 21.7108C133.423 22.5997 132.093 23.0442 130.764 23.0442C129.351 23.0442 128.27 22.5997 127.19 21.7108C126.691 21.2664 126.358 20.7331 126.109 20.1997C125.693 19.3997 125.527 18.5997 125.527 17.622C125.527 16.4664 125.86 15.3108 126.525 14.422C127.106 13.5331 127.854 12.9997 128.769 12.5553C129.517 12.1997 130.182 12.1108 131.013 12.1108C132.343 12.1108 133.34 12.5553 134.254 13.2664C134.67 13.7108 135.086 14.1553 135.335 14.6886C135.667 15.3108 135.834 15.8442 135.834 16.3775C135.834 16.822 135.751 17.2664 135.501 17.5331C135.335 17.3553 135.169 17.5331 134.836 17.5331ZM130.431 15.5775H131.429C131.844 15.5775 132.01 15.3997 132.01 14.9553C132.01 14.5108 131.927 14.3331 131.678 13.9775C131.512 13.7997 131.179 13.622 130.847 13.622C130.431 13.622 130.099 13.7108 129.932 14.0664C129.766 14.422 129.6 14.5997 129.6 14.9553C129.6 15.1331 129.6 15.3108 129.683 15.3997C130.016 15.5775 130.182 15.5775 130.431 15.5775Z" fill="#3F3B3D"/>
<path d="M142.234 14.5111V18.0666C142.234 18.5111 142.317 18.8666 142.566 19.1333C142.732 19.4888 142.982 19.5777 143.314 19.5777C143.647 19.5777 143.896 19.4888 144.312 19.1333C144.478 19.1333 144.644 19.1333 144.727 19.1333C144.893 19.1333 145.06 19.2222 145.143 19.4888C145.226 19.6666 145.309 19.9333 145.309 20.1111C145.309 20.5555 145.143 21 144.561 21.4444C143.647 22.3333 142.4 22.7777 141.153 22.7777C140.073 22.7777 139.242 22.4222 138.66 21.8C138.078 21.1777 137.662 20.2888 137.662 19.2222V14.2444C137.662 14.0666 137.662 14.0666 137.579 13.8888C137.579 13.8888 137.496 13.8 137.247 13.8H136.249C136.083 13.8 135.917 13.8 135.834 13.7111C135.751 13.6222 135.751 13.5333 135.751 13.2666V12.8222C135.751 12.6444 135.834 12.4666 135.917 12.3777L140.655 9.26662C140.738 9.17773 140.987 9.17773 141.07 9.17773H141.901C142.067 9.17773 142.234 9.17773 142.234 9.26662C142.317 9.35551 142.317 9.4444 142.317 9.71107V11.1333C142.317 11.3111 142.317 11.4888 142.4 11.5777C142.483 11.6666 142.566 11.6666 142.816 11.6666H144.644C144.81 11.6666 145.06 11.6666 145.143 11.7555C145.226 11.8444 145.226 12.1111 145.226 12.3777V13C145.226 13.3555 145.226 13.5333 145.143 13.8C145.06 13.8888 144.81 13.9777 144.644 13.9777H142.816C142.649 13.9777 142.483 13.9777 142.4 14.0666C142.234 14.1555 142.234 14.2444 142.234 14.5111Z" fill="#3F3B3D"/>
<path d="M149.797 11.6665C150.13 11.6665 150.712 11.7554 151.377 11.8443C151.543 11.8443 151.709 11.8443 151.792 11.8443C151.875 11.8443 152.125 11.7554 152.54 11.6665C152.706 11.5776 152.873 11.5776 152.956 11.5776C153.288 11.5776 153.538 11.7554 153.87 12.1999C154.203 12.5554 154.369 12.8221 154.452 13.2665C154.618 13.711 154.618 14.0665 154.618 14.3332C154.618 14.6887 154.535 14.8665 154.286 15.1332C154.119 15.311 153.87 15.4887 153.538 15.4887C153.371 15.4887 153.122 15.3999 152.956 15.311C152.79 15.2221 152.457 14.8665 152.042 14.511C151.626 14.0665 151.21 13.8887 151.044 13.8887C150.878 13.8887 150.712 13.9776 150.545 14.0665C150.462 14.1554 150.379 14.4221 150.379 14.5999C150.379 14.9554 150.712 15.2221 151.293 15.5776C152.374 16.111 153.288 16.6443 153.953 17.2665C154.452 17.7999 154.784 18.4221 154.784 19.2221C154.784 20.1999 154.369 21.0887 153.538 21.711C152.79 22.2443 152.042 22.5999 151.044 22.5999C150.712 22.5999 150.296 22.5999 149.631 22.511C148.966 22.3332 148.551 22.3332 148.467 22.3332C148.384 22.3332 148.301 22.3332 148.135 22.3332C147.969 22.3332 147.803 22.3332 147.719 22.3332C147.387 22.3332 147.138 22.2443 146.971 22.1554C146.639 21.9776 146.473 21.5332 146.14 20.8221C145.974 20.2887 145.808 19.7554 145.808 19.3999C145.808 18.7776 145.974 18.4221 146.556 18.4221C146.722 18.4221 146.971 18.511 147.054 18.5999C147.221 18.6887 147.553 19.0443 148.052 19.6665C148.384 20.0221 148.551 20.1999 148.8 20.2887C148.966 20.3776 149.216 20.4665 149.382 20.4665C149.548 20.4665 149.797 20.3776 149.88 20.2887C149.964 20.1999 150.047 19.9332 150.047 19.7554C150.047 19.3999 149.714 19.1332 149.216 18.8665C148.135 18.3332 147.387 17.711 146.888 17.1776C146.39 16.5554 146.14 15.8443 146.14 15.1332C146.14 14.2443 146.306 13.5332 146.888 12.9999C147.553 12.111 148.551 11.6665 149.797 11.6665Z" fill="#3F3B3D"/>
<path d="M160.353 11.7554C160.769 11.7554 161.101 11.7554 161.184 11.8443C161.267 11.9332 161.267 12.0221 161.267 12.3776C161.267 12.5554 161.351 12.8221 161.434 12.8221C161.517 12.8221 161.766 12.7332 162.182 12.3776C162.514 12.1998 162.764 11.9332 163.262 11.8443C163.678 11.7554 164.093 11.6665 164.509 11.6665C165.34 11.6665 166.088 12.0221 166.753 12.6443C167.252 13.0887 167.667 13.7109 168 14.5109C168.332 15.3109 168.416 16.0221 168.416 16.9109C168.416 18.7776 167.834 20.1109 166.67 21.3554C165.756 22.2443 164.842 22.7776 163.761 22.7776C163.179 22.7776 162.68 22.6887 162.016 22.3332C161.932 22.2443 161.849 22.2443 161.683 22.2443C161.517 22.2443 161.351 22.4221 161.351 22.8665C161.351 23.3998 161.517 23.8443 161.849 24.0221C162.182 24.1998 162.348 24.4665 162.431 24.4665C162.514 24.5554 162.514 24.6443 162.514 24.9109C162.514 25.3554 162.348 25.7109 161.766 25.8887C161.351 26.0665 160.686 26.2443 159.854 26.2443C158.442 26.2443 157.112 25.8887 156.031 25.2665C155.532 24.9109 155.2 24.6443 155.2 24.1109C155.2 23.9332 155.2 23.7554 155.283 23.6665C155.366 23.5776 155.449 23.4887 155.782 23.3109C156.114 23.1332 156.364 22.8665 156.364 22.3332C156.447 21.8887 156.447 20.6443 156.53 18.4221C156.53 16.7332 156.447 15.7554 156.364 15.4887C156.364 15.3998 156.28 15.3998 156.28 15.3998C156.28 15.3998 156.197 15.2221 155.948 15.2221C155.782 15.2221 155.532 15.1332 155.449 14.8665C155.366 14.6887 155.283 14.5109 155.283 14.2443C155.283 13.9776 155.366 13.7109 155.616 13.4443C155.782 13.2665 156.114 12.9998 156.53 12.8221C158.192 12.1998 159.356 11.7554 160.353 11.7554ZM161.351 15.7554L161.267 18.6887C161.267 18.7776 161.267 18.8665 161.267 19.0443C161.267 19.2221 161.351 19.4887 161.6 19.5776C161.766 19.6665 162.016 19.7554 162.348 19.7554C163.262 19.7554 163.761 18.9554 163.761 17.3554C163.761 16.2887 163.595 15.6665 163.179 15.2221C163.013 15.0443 162.68 14.7776 162.348 14.7776C161.683 14.7776 161.351 15.1332 161.351 15.7554Z" fill="#3F3B3D"/>
<path d="M174.732 13.7999V17.2665C174.732 18.7776 174.732 19.6665 174.816 19.8443C174.816 20.0221 174.982 20.2887 175.314 20.3776C175.481 20.4665 175.73 20.5554 175.813 20.7332C175.896 20.8221 175.896 20.911 175.896 21.1776C175.896 21.3554 175.813 21.6221 175.73 21.7999C175.564 21.9776 175.314 22.1554 175.148 22.2443C174.649 22.3332 173.818 22.4221 172.738 22.4221C171.408 22.4221 170.494 22.3332 169.995 22.0665C169.829 21.9776 169.579 21.8887 169.413 21.6221C169.247 21.4443 169.247 21.1776 169.247 20.9999C169.247 20.8221 169.247 20.6443 169.33 20.5554C169.413 20.4665 169.662 20.3776 169.829 20.1999C170.161 20.111 170.244 19.7554 170.327 19.2221C170.41 18.2443 170.494 16.911 170.494 15.2221C170.494 13.5332 170.494 12.3776 170.41 11.8443C170.327 11.311 170.078 10.9554 169.662 10.7776C169.33 10.5999 169.164 10.4221 169.081 10.3332C168.997 10.2443 168.914 10.1554 168.914 9.88875C168.914 9.53319 169.081 9.26653 169.413 8.99986C169.745 8.82208 170.244 8.46653 170.909 8.19986C171.408 8.11097 171.907 7.8443 172.738 7.75541C173.486 7.66653 174.068 7.57764 174.317 7.57764C174.816 7.57764 175.148 7.93319 175.148 8.6443C175.148 8.82208 175.148 9.4443 175.065 10.2443C174.816 11.6665 174.816 12.8221 174.732 13.7999Z" fill="#3F3B3D"/>
<path d="M182.213 11.6665C183.293 11.6665 184.374 12.0221 185.122 12.6443C185.538 12.9998 185.87 13.4443 186.036 13.7998C186.203 14.2443 186.369 14.7776 186.369 15.4887V17.0887C186.369 18.1554 186.452 18.9554 186.535 19.2221C186.618 19.3109 186.618 19.3998 186.701 19.5776C186.784 19.5776 186.868 19.6665 187.117 19.6665C187.366 19.6665 187.449 19.8443 187.449 20.1109C187.449 20.4665 187.366 20.7332 187.034 21.1776C186.701 21.5332 186.452 21.7998 186.036 22.1554C185.538 22.5109 185.039 22.5998 184.457 22.5998C183.709 22.5998 183.21 22.4221 182.878 21.7998C182.795 21.6221 182.545 21.4443 182.462 21.4443C182.379 21.4443 182.13 21.5332 181.964 21.6221C181.216 22.1554 180.551 22.4221 179.719 22.4221C178.805 22.4221 178.14 22.2443 177.558 21.7998C177.226 21.6221 176.977 21.1776 176.727 20.7332C176.561 20.2887 176.395 19.8443 176.395 19.3998C176.395 18.5998 176.727 17.9776 177.226 17.4443C178.14 16.5554 179.47 16.1109 181.132 16.0221C181.548 16.0221 181.714 16.0221 181.88 15.9332C181.964 15.8443 181.964 15.5776 181.964 15.3998C181.964 14.5998 181.88 14.0665 181.797 13.7998C181.714 13.5332 181.382 13.2665 181.049 13.2665C180.883 13.2665 180.634 13.3554 180.551 13.4443C180.384 13.5332 180.218 13.7998 179.969 14.2443C179.387 15.1332 178.722 15.6665 178.14 15.6665C177.808 15.6665 177.558 15.5776 177.309 15.3109C177.06 15.0443 176.977 14.8665 176.977 14.4221C176.977 14.0665 177.06 13.7998 177.392 13.4443C177.725 13.0887 177.974 12.8221 178.39 12.5554C179.636 12.0221 180.883 11.6665 182.213 11.6665ZM181.548 17.7998C181.216 17.7998 181.049 17.8887 180.717 18.2443C180.551 18.4221 180.384 18.7776 180.384 19.1332C180.384 19.4887 180.468 19.7554 180.551 20.0221C180.717 20.1998 180.966 20.3776 181.132 20.3776C181.631 20.3776 181.964 19.9332 181.964 18.9554C181.964 18.5109 181.964 18.3332 181.88 18.1554C181.88 17.8887 181.797 17.7998 181.548 17.7998Z" fill="#3F3B3D"/>
<path d="M197.008 16.9999L195.678 20.911C195.345 21.8887 195.096 22.5999 194.68 23.311C194.348 23.9332 193.932 24.3776 193.6 24.8221C192.686 25.711 191.688 26.1554 190.442 26.1554C189.444 26.1554 188.613 25.7999 188.031 25.2665C187.532 24.8221 187.283 24.2887 187.283 23.6665C187.283 23.1332 187.449 22.6887 187.782 22.2443C188.114 21.8887 188.53 21.711 189.029 21.711C189.527 21.711 189.943 21.8887 190.109 22.2443C190.192 22.3332 190.275 22.5999 190.442 22.6887C190.442 22.7776 190.525 23.1332 190.608 23.4887C190.691 23.8443 190.774 23.9332 191.106 23.9332C191.273 23.9332 191.522 23.8443 191.605 23.5776C191.688 23.3999 191.771 23.1332 191.771 22.7776C191.771 22.4221 191.605 21.8887 191.273 21.0887L188.862 15.5776C188.53 15.0443 188.447 14.5999 188.28 14.511C188.197 14.4221 187.865 14.1554 187.449 13.9776C187.366 13.8887 187.283 13.7999 187.117 13.6221C186.951 13.4443 187.034 13.2665 187.034 13.1776C187.034 12.5554 187.616 12.111 188.779 11.8443C189.61 11.7554 190.525 11.6665 191.522 11.6665C192.27 11.6665 192.769 11.7554 193.101 11.8443C193.6 12.0221 193.932 12.3776 193.932 12.911C193.932 13.0887 193.849 13.3554 193.766 13.5332C193.683 13.711 193.6 13.9776 193.6 14.1554C193.6 14.3332 193.6 14.511 193.683 14.6887C193.766 14.8665 193.849 15.2221 194.099 15.6665C194.431 16.1999 194.597 16.4665 194.847 16.4665C195.013 16.4665 195.262 16.2887 195.429 15.8443C195.595 15.3999 195.761 14.9554 195.761 14.511C195.761 14.1554 195.678 13.9776 195.595 13.711C195.262 13.3554 195.179 13.1776 195.179 12.8221C195.179 12.4665 195.345 12.1999 195.927 11.9332C196.343 11.7554 196.925 11.5776 197.756 11.5776C199.169 11.5776 199.917 11.9332 199.917 12.6443C199.917 12.8221 199.834 13.0887 199.751 13.2665C199.667 13.3554 199.335 13.6221 198.919 13.711C198.587 13.7999 198.338 14.0665 198.088 14.3332C197.756 15.0443 197.423 15.8443 197.008 16.9999Z" fill="#3F3B3D"/>
<path d="M77.5688 28.7335C76.7377 28.9113 76.4883 29.1779 75.9896 29.6224C75.9896 30.4224 76.0727 31.0446 76.0727 31.9335C76.0727 32.3779 76.4883 33.089 77.4857 32.4668C78.1507 31.9335 77.8182 29.4446 78.7325 28.3779C78.3169 28.3779 77.9844 28.6446 77.5688 28.7335Z" fill="#3F3B3D"/>
<path d="M105.247 18.3333C104.166 18.4222 100.592 18.5111 98.5143 17C98.5143 17.0889 98.5974 17.1778 98.6805 17.3556C99.9273 19.2222 101.673 20.2 103.252 20.5556C104 20.4667 104.582 20.3778 105.247 20.0222C106.493 19.6667 105.995 18.2444 105.247 18.3333Z" fill="#3F3B3D"/>
<path d="M86.6286 4.20015C88.2078 3.40015 90.3688 4.82238 92.2805 7.40015C92.613 7.31126 92.8624 7.0446 93.1948 6.95571C91.1169 4.20015 88.7065 2.77793 86.9611 3.57793C86.213 3.93349 85.7143 4.46682 85.3818 5.26682C85.7974 4.73349 86.213 4.46682 86.6286 4.20015Z" fill="#3F3B3D"/>
<path d="M96.5195 23.0444C96.187 24.4667 95.5221 25.5333 94.6078 25.9778C94.1091 26.1555 93.6104 26.1555 93.1117 26.0667C93.9429 26.4222 94.6078 26.4222 95.3559 26.0667C96.2701 25.6222 96.9351 24.6444 97.3507 23.4C97.0182 23.2222 96.6857 23.1333 96.5195 23.0444Z" fill="#3F3B3D"/>
<path d="M93.1948 5.53339C90.9507 2.95562 88.4572 1.62228 86.2961 2.51117C82.9715 3.93339 82.2234 10.689 84.7169 17.5334C87.2104 24.3778 91.9481 28.7334 95.3559 27.4001C96.6857 26.8667 97.6 25.5334 98.0156 23.7556C98.1818 23.1334 98.5143 27.6667 95.0234 29.089C91.4494 30.6001 86.3792 25.7112 83.5533 18.1556C80.7273 10.5112 81.5585 3.04451 85.1325 1.44451C87.3766 0.200061 90.5351 2.06673 93.1948 5.53339Z" fill="#3F3B3D"/>
<path d="M82.1403 17.8888C80.3948 12.9999 80.2286 8.11105 81.5585 5.2666C79.9793 6.24438 78.7325 10.2444 79.9793 15.6666C78.0676 16.8222 77.1533 17.1777 75.1585 16.6444C73.5793 16.1999 72.9974 14.511 72.9143 14.6888C71.5013 17.6222 74.6598 19.8444 76.4884 19.7555C76.3221 22.8666 74.4935 24.5555 73.6624 25.711C72.665 27.311 72.4156 29.3555 72.2494 32.111C72.2494 32.5555 72.5819 33.4444 73.5793 32.911C74.1611 32.5555 74.1611 30.0666 75.3247 29.0888C76.3221 28.1999 76.7377 28.2888 78.6494 27.5777C80.8104 26.6888 82.7221 25.2666 82.8884 23.3999C82.9715 23.5777 83.2208 23.9333 83.3871 24.1999C86.0468 28.2888 88.2078 27.5777 88.2078 27.5777C85.5481 25.4444 83.5533 21.711 82.1403 17.8888Z" fill="#3F3B3D"/>
<path d="M104.249 5.44427C104.416 4.82205 104.748 3.31094 104.083 2.77761C103.751 2.59983 103.335 3.57761 102.338 4.19983C102.836 4.28872 103.751 4.73316 104.249 5.44427Z" fill="#3F3B3D"/>
<path d="M105.662 21.8002C104.166 21.8002 100.177 21.0002 98.0987 17.8002C96.1039 14.6002 98.265 11.1335 101.922 12.2002C107.657 13.8891 107.907 10.6891 107.74 9.62241C106.078 9.00018 104.831 8.82241 104.665 7.66685C104.166 5.17796 101.922 5.00018 101.34 4.64463C101.257 4.20018 100.758 2.24463 99.7611 2.24463C99.2624 2.24463 99.6779 4.28907 98.1818 5.7113C93.4442 7.66685 88.7065 10.1557 84.6338 12.7335C84.8 14.1557 85.2156 15.6669 85.8805 17.178C86.3792 18.6891 87.1273 20.1113 87.7922 21.2668C88.7896 21.2668 90.0364 21.2668 91.6156 21.3557C96.9351 21.5335 100.842 24.5557 105.579 23.7557C106.66 23.3113 106.41 21.8891 105.662 21.8002ZM102.504 7.22241C102.836 7.22241 102.92 7.40018 102.92 7.75574C102.92 8.1113 102.753 8.20018 102.421 8.20018C102.088 8.20018 102.005 8.02241 102.005 7.66685C102.171 7.48907 102.338 7.22241 102.504 7.22241Z" fill="#3F3B3D"/>
</g>
<path d="M9.73438 56.6172V55.6719C9.73438 55.3542 9.78646 55.0234 9.89062 54.6797C10 54.3307 10.1562 53.9974 10.3594 53.6797C10.5625 53.3568 10.8073 53.0781 11.0938 52.8438L11.9141 53.4141C11.6745 53.7578 11.4896 54.112 11.3594 54.4766C11.2292 54.8359 11.1641 55.2266 11.1641 55.6484V56.6172H9.73438ZM12.1953 56.6172V55.6719C12.1953 55.3542 12.2474 55.0234 12.3516 54.6797C12.4609 54.3307 12.6172 53.9974 12.8203 53.6797C13.0234 53.3568 13.2682 53.0781 13.5547 52.8438L14.375 53.4141C14.1354 53.7578 13.9505 54.112 13.8203 54.4766C13.6901 54.8359 13.625 55.2266 13.625 55.6484V56.6172H12.1953ZM24.2969 59.3359V63.5C24.1562 63.7083 23.9323 63.9427 23.625 64.2031C23.3177 64.4583 22.8932 64.6823 22.3516 64.875C21.8151 65.0625 21.1224 65.1562 20.2734 65.1562C19.5807 65.1562 18.9427 65.0365 18.3594 64.7969C17.7812 64.5521 17.2786 64.1979 16.8516 63.7344C16.4297 63.2656 16.1016 62.6979 15.8672 62.0312C15.638 61.3594 15.5234 60.599 15.5234 59.75V58.8672C15.5234 58.0182 15.6224 57.2604 15.8203 56.5938C16.0234 55.9271 16.3203 55.362 16.7109 54.8984C17.1016 54.4297 17.5807 54.0755 18.1484 53.8359C18.7161 53.5911 19.3672 53.4688 20.1016 53.4688C20.9714 53.4688 21.6979 53.6198 22.2812 53.9219C22.8698 54.2188 23.3281 54.6302 23.6562 55.1562C23.9896 55.6823 24.2031 56.2812 24.2969 56.9531H22.7891C22.7214 56.5417 22.5859 56.1667 22.3828 55.8281C22.1849 55.4896 21.901 55.2188 21.5312 55.0156C21.1615 54.8073 20.6849 54.7031 20.1016 54.7031C19.5755 54.7031 19.1198 54.7995 18.7344 54.9922C18.349 55.1849 18.0312 55.4609 17.7812 55.8203C17.5312 56.1797 17.3438 56.6146 17.2188 57.125C17.099 57.6354 17.0391 58.2109 17.0391 58.8516V59.75C17.0391 60.4062 17.1146 60.9922 17.2656 61.5078C17.4219 62.0234 17.6432 62.4635 17.9297 62.8281C18.2161 63.1875 18.5573 63.4609 18.9531 63.6484C19.3542 63.8359 19.7969 63.9297 20.2812 63.9297C20.8177 63.9297 21.2526 63.8854 21.5859 63.7969C21.9193 63.7031 22.1797 63.5938 22.3672 63.4688C22.5547 63.3385 22.6979 63.2161 22.7969 63.1016V60.5547H20.1641V59.3359H24.2969ZM28.0234 57.875V65H26.5781V56.5469H27.9844L28.0234 57.875ZM30.6641 56.5L30.6562 57.8438C30.5365 57.8177 30.4219 57.8021 30.3125 57.7969C30.2083 57.7865 30.0885 57.7812 29.9531 57.7812C29.6198 57.7812 29.3255 57.8333 29.0703 57.9375C28.8151 58.0417 28.599 58.1875 28.4219 58.375C28.2448 58.5625 28.1042 58.7865 28 59.0469C27.901 59.3021 27.8359 59.5833 27.8047 59.8906L27.3984 60.125C27.3984 59.6146 27.4479 59.1354 27.5469 58.6875C27.651 58.2396 27.8099 57.8438 28.0234 57.5C28.237 57.151 28.5078 56.8802 28.8359 56.6875C29.1693 56.4896 29.5651 56.3906 30.0234 56.3906C30.1276 56.3906 30.2474 56.4036 30.3828 56.4297C30.5182 56.4505 30.612 56.474 30.6641 56.5ZM35.3516 65.1562C34.763 65.1562 34.2292 65.0573 33.75 64.8594C33.276 64.6562 32.8672 64.3724 32.5234 64.0078C32.1849 63.6432 31.9245 63.2109 31.7422 62.7109C31.5599 62.2109 31.4688 61.6641 31.4688 61.0703V60.7422C31.4688 60.0547 31.5703 59.4427 31.7734 58.9062C31.9766 58.3646 32.2526 57.9062 32.6016 57.5312C32.9505 57.1562 33.3464 56.8724 33.7891 56.6797C34.2318 56.487 34.6901 56.3906 35.1641 56.3906C35.7682 56.3906 36.2891 56.4948 36.7266 56.7031C37.1693 56.9115 37.5312 57.2031 37.8125 57.5781C38.0938 57.9479 38.3021 58.3854 38.4375 58.8906C38.5729 59.3906 38.6406 59.9375 38.6406 60.5312V61.1797H32.3281V60H37.1953V59.8906C37.1745 59.5156 37.0964 59.151 36.9609 58.7969C36.8307 58.4427 36.6224 58.151 36.3359 57.9219C36.0495 57.6927 35.6589 57.5781 35.1641 57.5781C34.8359 57.5781 34.5339 57.6484 34.2578 57.7891C33.9818 57.9245 33.7448 58.1276 33.5469 58.3984C33.349 58.6693 33.1953 59 33.0859 59.3906C32.9766 59.7812 32.9219 60.2318 32.9219 60.7422V61.0703C32.9219 61.4714 32.9766 61.849 33.0859 62.2031C33.2005 62.5521 33.3646 62.8594 33.5781 63.125C33.7969 63.3906 34.0599 63.599 34.3672 63.75C34.6797 63.901 35.0339 63.9766 35.4297 63.9766C35.9401 63.9766 36.3724 63.8724 36.7266 63.6641C37.0807 63.4557 37.3906 63.1771 37.6562 62.8281L38.5312 63.5234C38.349 63.7995 38.1172 64.0625 37.8359 64.3125C37.5547 64.5625 37.2083 64.7656 36.7969 64.9219C36.3906 65.0781 35.9089 65.1562 35.3516 65.1562ZM45.3125 63.5547V59.2031C45.3125 58.8698 45.2448 58.5807 45.1094 58.3359C44.9792 58.0859 44.7812 57.8932 44.5156 57.7578C44.25 57.6224 43.9219 57.5547 43.5312 57.5547C43.1667 57.5547 42.8464 57.6172 42.5703 57.7422C42.2995 57.8672 42.0859 58.0312 41.9297 58.2344C41.7786 58.4375 41.7031 58.6562 41.7031 58.8906H40.2578C40.2578 58.5885 40.3359 58.2891 40.4922 57.9922C40.6484 57.6953 40.8724 57.4271 41.1641 57.1875C41.4609 56.9427 41.8151 56.75 42.2266 56.6094C42.6432 56.4635 43.1068 56.3906 43.6172 56.3906C44.2318 56.3906 44.7734 56.4948 45.2422 56.7031C45.7161 56.9115 46.0859 57.2266 46.3516 57.6484C46.6224 58.0651 46.7578 58.5885 46.7578 59.2188V63.1562C46.7578 63.4375 46.7812 63.737 46.8281 64.0547C46.8802 64.3724 46.9557 64.6458 47.0547 64.875V65H45.5469C45.474 64.8333 45.4167 64.612 45.375 64.3359C45.3333 64.0547 45.3125 63.7943 45.3125 63.5547ZM45.5625 59.875L45.5781 60.8906H44.1172C43.7057 60.8906 43.3385 60.9245 43.0156 60.9922C42.6927 61.0547 42.4219 61.151 42.2031 61.2812C41.9844 61.4115 41.8177 61.5755 41.7031 61.7734C41.5885 61.9661 41.5312 62.1927 41.5312 62.4531C41.5312 62.7188 41.5911 62.9609 41.7109 63.1797C41.8307 63.3984 42.0104 63.5729 42.25 63.7031C42.4948 63.8281 42.7943 63.8906 43.1484 63.8906C43.5911 63.8906 43.9818 63.7969 44.3203 63.6094C44.6589 63.4219 44.9271 63.1927 45.125 62.9219C45.3281 62.651 45.4375 62.388 45.4531 62.1328L46.0703 62.8281C46.0339 63.0469 45.9349 63.2891 45.7734 63.5547C45.612 63.8203 45.3958 64.0755 45.125 64.3203C44.8594 64.5599 44.5417 64.7604 44.1719 64.9219C43.8073 65.0781 43.3958 65.1562 42.9375 65.1562C42.3646 65.1562 41.862 65.0443 41.4297 64.8203C41.0026 64.5964 40.6693 64.2969 40.4297 63.9219C40.1953 63.5417 40.0781 63.1172 40.0781 62.6484C40.0781 62.1953 40.1667 61.7969 40.3438 61.4531C40.5208 61.1042 40.776 60.8151 41.1094 60.5859C41.4427 60.3516 41.8438 60.1745 42.3125 60.0547C42.7812 59.9349 43.3047 59.875 43.8828 59.875H45.5625ZM52.5703 56.5469V57.6562H48V56.5469H52.5703ZM49.5469 54.4922H50.9922V62.9062C50.9922 63.1927 51.0365 63.4089 51.125 63.5547C51.2135 63.7005 51.3281 63.7969 51.4688 63.8438C51.6094 63.8906 51.7604 63.9141 51.9219 63.9141C52.0417 63.9141 52.1667 63.9036 52.2969 63.8828C52.4323 63.8568 52.5339 63.8359 52.6016 63.8203L52.6094 65C52.4948 65.0365 52.3438 65.0703 52.1562 65.1016C51.974 65.138 51.7526 65.1562 51.4922 65.1562C51.138 65.1562 50.8125 65.0859 50.5156 64.9453C50.2188 64.8047 49.9818 64.5703 49.8047 64.2422C49.6328 63.9089 49.5469 63.4609 49.5469 62.8984V54.4922ZM61.6172 63.9688C61.9609 63.9688 62.2786 63.8984 62.5703 63.7578C62.862 63.6172 63.1016 63.4245 63.2891 63.1797C63.4766 62.9297 63.5833 62.6458 63.6094 62.3281H64.9844C64.9583 62.8281 64.7891 63.2943 64.4766 63.7266C64.1693 64.1536 63.7656 64.5 63.2656 64.7656C62.7656 65.026 62.2161 65.1562 61.6172 65.1562C60.9818 65.1562 60.4271 65.0443 59.9531 64.8203C59.4844 64.5964 59.0938 64.2891 58.7812 63.8984C58.474 63.5078 58.2422 63.0599 58.0859 62.5547C57.9349 62.0443 57.8594 61.5052 57.8594 60.9375V60.6094C57.8594 60.0417 57.9349 59.5052 58.0859 59C58.2422 58.4896 58.474 58.0391 58.7812 57.6484C59.0938 57.2578 59.4844 56.9505 59.9531 56.7266C60.4271 56.5026 60.9818 56.3906 61.6172 56.3906C62.2786 56.3906 62.8568 56.526 63.3516 56.7969C63.8464 57.0625 64.2344 57.4271 64.5156 57.8906C64.8021 58.349 64.9583 58.8698 64.9844 59.4531H63.6094C63.5833 59.1042 63.4844 58.7891 63.3125 58.5078C63.1458 58.2266 62.9167 58.0026 62.625 57.8359C62.3385 57.6641 62.0026 57.5781 61.6172 57.5781C61.1745 57.5781 60.8021 57.6667 60.5 57.8438C60.2031 58.0156 59.9661 58.25 59.7891 58.5469C59.6172 58.8385 59.4922 59.1641 59.4141 59.5234C59.3411 59.8776 59.3047 60.2396 59.3047 60.6094V60.9375C59.3047 61.3073 59.3411 61.6719 59.4141 62.0312C59.487 62.3906 59.6094 62.7161 59.7812 63.0078C59.9583 63.2995 60.1953 63.5339 60.4922 63.7109C60.7943 63.8828 61.1693 63.9688 61.6172 63.9688ZM66.2266 60.8672V60.6875C66.2266 60.0781 66.3151 59.513 66.4922 58.9922C66.6693 58.4661 66.9245 58.0104 67.2578 57.625C67.5911 57.2344 67.9948 56.9323 68.4688 56.7188C68.9427 56.5 69.474 56.3906 70.0625 56.3906C70.6562 56.3906 71.1901 56.5 71.6641 56.7188C72.1432 56.9323 72.5495 57.2344 72.8828 57.625C73.2214 58.0104 73.4792 58.4661 73.6562 58.9922C73.8333 59.513 73.9219 60.0781 73.9219 60.6875V60.8672C73.9219 61.4766 73.8333 62.0417 73.6562 62.5625C73.4792 63.0833 73.2214 63.5391 72.8828 63.9297C72.5495 64.3151 72.1458 64.6172 71.6719 64.8359C71.2031 65.0495 70.6719 65.1562 70.0781 65.1562C69.4844 65.1562 68.9505 65.0495 68.4766 64.8359C68.0026 64.6172 67.5964 64.3151 67.2578 63.9297C66.9245 63.5391 66.6693 63.0833 66.4922 62.5625C66.3151 62.0417 66.2266 61.4766 66.2266 60.8672ZM67.6719 60.6875V60.8672C67.6719 61.2891 67.7214 61.6875 67.8203 62.0625C67.9193 62.4323 68.0677 62.7604 68.2656 63.0469C68.4688 63.3333 68.7214 63.5599 69.0234 63.7266C69.3255 63.888 69.6771 63.9688 70.0781 63.9688C70.474 63.9688 70.8203 63.888 71.1172 63.7266C71.4193 63.5599 71.6693 63.3333 71.8672 63.0469C72.0651 62.7604 72.2135 62.4323 72.3125 62.0625C72.4167 61.6875 72.4688 61.2891 72.4688 60.8672V60.6875C72.4688 60.2708 72.4167 59.8776 72.3125 59.5078C72.2135 59.1328 72.0625 58.8021 71.8594 58.5156C71.6615 58.224 71.4115 57.9948 71.1094 57.8281C70.8125 57.6615 70.4635 57.5781 70.0625 57.5781C69.6667 57.5781 69.3177 57.6615 69.0156 57.8281C68.7188 57.9948 68.4688 58.224 68.2656 58.5156C68.0677 58.8021 67.9193 59.1328 67.8203 59.5078C67.7214 59.8776 67.6719 60.2708 67.6719 60.6875ZM77.1719 58.2266V65H75.7188V56.5469H77.0938L77.1719 58.2266ZM76.875 60.4531L76.2031 60.4297C76.2083 59.8516 76.2839 59.3177 76.4297 58.8281C76.5755 58.3333 76.7917 57.9036 77.0781 57.5391C77.3646 57.1745 77.7214 56.8932 78.1484 56.6953C78.5755 56.4922 79.0703 56.3906 79.6328 56.3906C80.0286 56.3906 80.3932 56.4479 80.7266 56.5625C81.0599 56.6719 81.349 56.8464 81.5938 57.0859C81.8385 57.3255 82.0286 57.6328 82.1641 58.0078C82.2995 58.3828 82.3672 58.8359 82.3672 59.3672V65H80.9219V59.4375C80.9219 58.9948 80.8464 58.6406 80.6953 58.375C80.5495 58.1094 80.3411 57.9167 80.0703 57.7969C79.7995 57.6719 79.4818 57.6094 79.1172 57.6094C78.6901 57.6094 78.3333 57.6849 78.0469 57.8359C77.7604 57.987 77.5312 58.1953 77.3594 58.4609C77.1875 58.7266 77.0625 59.0312 76.9844 59.375C76.9115 59.7135 76.875 60.0729 76.875 60.4531ZM82.3516 59.6562L81.3828 59.9531C81.388 59.4896 81.4635 59.0443 81.6094 58.6172C81.7604 58.1901 81.9766 57.8099 82.2578 57.4766C82.5443 57.1432 82.8958 56.8802 83.3125 56.6875C83.7292 56.4896 84.2057 56.3906 84.7422 56.3906C85.1953 56.3906 85.5964 56.4505 85.9453 56.5703C86.2995 56.6901 86.5964 56.875 86.8359 57.125C87.0807 57.3698 87.2656 57.6849 87.3906 58.0703C87.5156 58.4557 87.5781 58.9141 87.5781 59.4453V65H86.125V59.4297C86.125 58.9557 86.0495 58.5885 85.8984 58.3281C85.7526 58.0625 85.5443 57.8776 85.2734 57.7734C85.0078 57.6641 84.6901 57.6094 84.3203 57.6094C84.0026 57.6094 83.7214 57.6641 83.4766 57.7734C83.2318 57.8828 83.026 58.0339 82.8594 58.2266C82.6927 58.4141 82.5651 58.6302 82.4766 58.875C82.3932 59.1198 82.3516 59.3802 82.3516 59.6562ZM91.2031 58.2266V65H89.75V56.5469H91.125L91.2031 58.2266ZM90.9062 60.4531L90.2344 60.4297C90.2396 59.8516 90.3151 59.3177 90.4609 58.8281C90.6068 58.3333 90.8229 57.9036 91.1094 57.5391C91.3958 57.1745 91.7526 56.8932 92.1797 56.6953C92.6068 56.4922 93.1016 56.3906 93.6641 56.3906C94.0599 56.3906 94.4245 56.4479 94.7578 56.5625C95.0911 56.6719 95.3802 56.8464 95.625 57.0859C95.8698 57.3255 96.0599 57.6328 96.1953 58.0078C96.3307 58.3828 96.3984 58.8359 96.3984 59.3672V65H94.9531V59.4375C94.9531 58.9948 94.8776 58.6406 94.7266 58.375C94.5807 58.1094 94.3724 57.9167 94.1016 57.7969C93.8307 57.6719 93.513 57.6094 93.1484 57.6094C92.7214 57.6094 92.3646 57.6849 92.0781 57.8359C91.7917 57.987 91.5625 58.1953 91.3906 58.4609C91.2188 58.7266 91.0938 59.0312 91.0156 59.375C90.9427 59.7135 90.9062 60.0729 90.9062 60.4531ZM96.3828 59.6562L95.4141 59.9531C95.4193 59.4896 95.4948 59.0443 95.6406 58.6172C95.7917 58.1901 96.0078 57.8099 96.2891 57.4766C96.5755 57.1432 96.9271 56.8802 97.3438 56.6875C97.7604 56.4896 98.237 56.3906 98.7734 56.3906C99.2266 56.3906 99.6276 56.4505 99.9766 56.5703C100.331 56.6901 100.628 56.875 100.867 57.125C101.112 57.3698 101.297 57.6849 101.422 58.0703C101.547 58.4557 101.609 58.9141 101.609 59.4453V65H100.156V59.4297C100.156 58.9557 100.081 58.5885 99.9297 58.3281C99.7839 58.0625 99.5755 57.8776 99.3047 57.7734C99.0391 57.6641 98.7214 57.6094 98.3516 57.6094C98.0339 57.6094 97.7526 57.6641 97.5078 57.7734C97.263 57.8828 97.0573 58.0339 96.8906 58.2266C96.724 58.4141 96.5964 58.6302 96.5078 58.875C96.4245 59.1198 96.3828 59.3802 96.3828 59.6562ZM108.969 63.0469V56.5469H110.422V65H109.039L108.969 63.0469ZM109.242 61.2656L109.844 61.25C109.844 61.8125 109.784 62.3333 109.664 62.8125C109.549 63.2865 109.362 63.6979 109.102 64.0469C108.841 64.3958 108.5 64.6693 108.078 64.8672C107.656 65.0599 107.143 65.1562 106.539 65.1562C106.128 65.1562 105.75 65.0964 105.406 64.9766C105.068 64.8568 104.776 64.6719 104.531 64.4219C104.286 64.1719 104.096 63.8464 103.961 63.4453C103.831 63.0443 103.766 62.5625 103.766 62V56.5469H105.211V62.0156C105.211 62.3958 105.253 62.7109 105.336 62.9609C105.424 63.2057 105.542 63.401 105.688 63.5469C105.839 63.6875 106.005 63.7865 106.188 63.8438C106.375 63.901 106.568 63.9297 106.766 63.9297C107.38 63.9297 107.867 63.8125 108.227 63.5781C108.586 63.3385 108.844 63.0182 109 62.6172C109.161 62.2109 109.242 61.7604 109.242 61.2656ZM114.07 58.3516V65H112.625V56.5469H113.992L114.07 58.3516ZM113.727 60.4531L113.125 60.4297C113.13 59.8516 113.216 59.3177 113.383 58.8281C113.549 58.3333 113.784 57.9036 114.086 57.5391C114.388 57.1745 114.747 56.8932 115.164 56.6953C115.586 56.4922 116.052 56.3906 116.562 56.3906C116.979 56.3906 117.354 56.4479 117.688 56.5625C118.021 56.6719 118.305 56.849 118.539 57.0938C118.779 57.3385 118.961 57.6562 119.086 58.0469C119.211 58.4323 119.273 58.9036 119.273 59.4609V65H117.82V59.4453C117.82 59.0026 117.755 58.6484 117.625 58.3828C117.495 58.112 117.305 57.9167 117.055 57.7969C116.805 57.6719 116.497 57.6094 116.133 57.6094C115.773 57.6094 115.445 57.6849 115.148 57.8359C114.857 57.987 114.604 58.1953 114.391 58.4609C114.182 58.7266 114.018 59.0312 113.898 59.375C113.784 59.7135 113.727 60.0729 113.727 60.4531ZM123.039 56.5469V65H121.586V56.5469H123.039ZM121.477 54.3047C121.477 54.0703 121.547 53.8724 121.688 53.7109C121.833 53.5495 122.047 53.4688 122.328 53.4688C122.604 53.4688 122.815 53.5495 122.961 53.7109C123.112 53.8724 123.188 54.0703 123.188 54.3047C123.188 54.5286 123.112 54.7214 122.961 54.8828C122.815 55.0391 122.604 55.1172 122.328 55.1172C122.047 55.1172 121.833 55.0391 121.688 54.8828C121.547 54.7214 121.477 54.5286 121.477 54.3047ZM128.742 63.9688C129.086 63.9688 129.404 63.8984 129.695 63.7578C129.987 63.6172 130.227 63.4245 130.414 63.1797C130.602 62.9297 130.708 62.6458 130.734 62.3281H132.109C132.083 62.8281 131.914 63.2943 131.602 63.7266C131.294 64.1536 130.891 64.5 130.391 64.7656C129.891 65.026 129.341 65.1562 128.742 65.1562C128.107 65.1562 127.552 65.0443 127.078 64.8203C126.609 64.5964 126.219 64.2891 125.906 63.8984C125.599 63.5078 125.367 63.0599 125.211 62.5547C125.06 62.0443 124.984 61.5052 124.984 60.9375V60.6094C124.984 60.0417 125.06 59.5052 125.211 59C125.367 58.4896 125.599 58.0391 125.906 57.6484C126.219 57.2578 126.609 56.9505 127.078 56.7266C127.552 56.5026 128.107 56.3906 128.742 56.3906C129.404 56.3906 129.982 56.526 130.477 56.7969C130.971 57.0625 131.359 57.4271 131.641 57.8906C131.927 58.349 132.083 58.8698 132.109 59.4531H130.734C130.708 59.1042 130.609 58.7891 130.438 58.5078C130.271 58.2266 130.042 58.0026 129.75 57.8359C129.464 57.6641 129.128 57.5781 128.742 57.5781C128.299 57.5781 127.927 57.6667 127.625 57.8438C127.328 58.0156 127.091 58.25 126.914 58.5469C126.742 58.8385 126.617 59.1641 126.539 59.5234C126.466 59.8776 126.43 60.2396 126.43 60.6094V60.9375C126.43 61.3073 126.466 61.6719 126.539 62.0312C126.612 62.3906 126.734 62.7161 126.906 63.0078C127.083 63.2995 127.32 63.5339 127.617 63.7109C127.919 63.8828 128.294 63.9688 128.742 63.9688ZM138.719 63.5547V59.2031C138.719 58.8698 138.651 58.5807 138.516 58.3359C138.385 58.0859 138.188 57.8932 137.922 57.7578C137.656 57.6224 137.328 57.5547 136.938 57.5547C136.573 57.5547 136.253 57.6172 135.977 57.7422C135.706 57.8672 135.492 58.0312 135.336 58.2344C135.185 58.4375 135.109 58.6562 135.109 58.8906H133.664C133.664 58.5885 133.742 58.2891 133.898 57.9922C134.055 57.6953 134.279 57.4271 134.57 57.1875C134.867 56.9427 135.221 56.75 135.633 56.6094C136.049 56.4635 136.513 56.3906 137.023 56.3906C137.638 56.3906 138.18 56.4948 138.648 56.7031C139.122 56.9115 139.492 57.2266 139.758 57.6484C140.029 58.0651 140.164 58.5885 140.164 59.2188V63.1562C140.164 63.4375 140.188 63.737 140.234 64.0547C140.286 64.3724 140.362 64.6458 140.461 64.875V65H138.953C138.88 64.8333 138.823 64.612 138.781 64.3359C138.74 64.0547 138.719 63.7943 138.719 63.5547ZM138.969 59.875L138.984 60.8906H137.523C137.112 60.8906 136.745 60.9245 136.422 60.9922C136.099 61.0547 135.828 61.151 135.609 61.2812C135.391 61.4115 135.224 61.5755 135.109 61.7734C134.995 61.9661 134.938 62.1927 134.938 62.4531C134.938 62.7188 134.997 62.9609 135.117 63.1797C135.237 63.3984 135.417 63.5729 135.656 63.7031C135.901 63.8281 136.201 63.8906 136.555 63.8906C136.997 63.8906 137.388 63.7969 137.727 63.6094C138.065 63.4219 138.333 63.1927 138.531 62.9219C138.734 62.651 138.844 62.388 138.859 62.1328L139.477 62.8281C139.44 63.0469 139.341 63.2891 139.18 63.5547C139.018 63.8203 138.802 64.0755 138.531 64.3203C138.266 64.5599 137.948 64.7604 137.578 64.9219C137.214 65.0781 136.802 65.1562 136.344 65.1562C135.771 65.1562 135.268 65.0443 134.836 64.8203C134.409 64.5964 134.076 64.2969 133.836 63.9219C133.602 63.5417 133.484 63.1172 133.484 62.6484C133.484 62.1953 133.573 61.7969 133.75 61.4531C133.927 61.1042 134.182 60.8151 134.516 60.5859C134.849 60.3516 135.25 60.1745 135.719 60.0547C136.188 59.9349 136.711 59.875 137.289 59.875H138.969ZM145.977 56.5469V57.6562H141.406V56.5469H145.977ZM142.953 54.4922H144.398V62.9062C144.398 63.1927 144.443 63.4089 144.531 63.5547C144.62 63.7005 144.734 63.7969 144.875 63.8438C145.016 63.8906 145.167 63.9141 145.328 63.9141C145.448 63.9141 145.573 63.9036 145.703 63.8828C145.839 63.8568 145.94 63.8359 146.008 63.8203L146.016 65C145.901 65.0365 145.75 65.0703 145.562 65.1016C145.38 65.138 145.159 65.1562 144.898 65.1562C144.544 65.1562 144.219 65.0859 143.922 64.9453C143.625 64.8047 143.388 64.5703 143.211 64.2422C143.039 63.9089 142.953 63.4609 142.953 62.8984V54.4922ZM149.242 56.5469V65H147.789V56.5469H149.242ZM147.68 54.3047C147.68 54.0703 147.75 53.8724 147.891 53.7109C148.036 53.5495 148.25 53.4688 148.531 53.4688C148.807 53.4688 149.018 53.5495 149.164 53.7109C149.315 53.8724 149.391 54.0703 149.391 54.3047C149.391 54.5286 149.315 54.7214 149.164 54.8828C149.018 55.0391 148.807 55.1172 148.531 55.1172C148.25 55.1172 148.036 55.0391 147.891 54.8828C147.75 54.7214 147.68 54.5286 147.68 54.3047ZM151.18 60.8672V60.6875C151.18 60.0781 151.268 59.513 151.445 58.9922C151.622 58.4661 151.878 58.0104 152.211 57.625C152.544 57.2344 152.948 56.9323 153.422 56.7188C153.896 56.5 154.427 56.3906 155.016 56.3906C155.609 56.3906 156.143 56.5 156.617 56.7188C157.096 56.9323 157.503 57.2344 157.836 57.625C158.174 58.0104 158.432 58.4661 158.609 58.9922C158.786 59.513 158.875 60.0781 158.875 60.6875V60.8672C158.875 61.4766 158.786 62.0417 158.609 62.5625C158.432 63.0833 158.174 63.5391 157.836 63.9297C157.503 64.3151 157.099 64.6172 156.625 64.8359C156.156 65.0495 155.625 65.1562 155.031 65.1562C154.438 65.1562 153.904 65.0495 153.43 64.8359C152.956 64.6172 152.549 64.3151 152.211 63.9297C151.878 63.5391 151.622 63.0833 151.445 62.5625C151.268 62.0417 151.18 61.4766 151.18 60.8672ZM152.625 60.6875V60.8672C152.625 61.2891 152.674 61.6875 152.773 62.0625C152.872 62.4323 153.021 62.7604 153.219 63.0469C153.422 63.3333 153.674 63.5599 153.977 63.7266C154.279 63.888 154.63 63.9688 155.031 63.9688C155.427 63.9688 155.773 63.888 156.07 63.7266C156.372 63.5599 156.622 63.3333 156.82 63.0469C157.018 62.7604 157.167 62.4323 157.266 62.0625C157.37 61.6875 157.422 61.2891 157.422 60.8672V60.6875C157.422 60.2708 157.37 59.8776 157.266 59.5078C157.167 59.1328 157.016 58.8021 156.812 58.5156C156.615 58.224 156.365 57.9948 156.062 57.8281C155.766 57.6615 155.417 57.5781 155.016 57.5781C154.62 57.5781 154.271 57.6615 153.969 57.8281C153.672 57.9948 153.422 58.224 153.219 58.5156C153.021 58.8021 152.872 59.1328 152.773 59.5078C152.674 59.8776 152.625 60.2708 152.625 60.6875ZM162.133 58.3516V65H160.688V56.5469H162.055L162.133 58.3516ZM161.789 60.4531L161.188 60.4297C161.193 59.8516 161.279 59.3177 161.445 58.8281C161.612 58.3333 161.846 57.9036 162.148 57.5391C162.451 57.1745 162.81 56.8932 163.227 56.6953C163.648 56.4922 164.115 56.3906 164.625 56.3906C165.042 56.3906 165.417 56.4479 165.75 56.5625C166.083 56.6719 166.367 56.849 166.602 57.0938C166.841 57.3385 167.023 57.6562 167.148 58.0469C167.273 58.4323 167.336 58.9036 167.336 59.4609V65H165.883V59.4453C165.883 59.0026 165.818 58.6484 165.688 58.3828C165.557 58.112 165.367 57.9167 165.117 57.7969C164.867 57.6719 164.56 57.6094 164.195 57.6094C163.836 57.6094 163.508 57.6849 163.211 57.8359C162.919 57.987 162.667 58.1953 162.453 58.4609C162.245 58.7266 162.081 59.0312 161.961 59.375C161.846 59.7135 161.789 60.0729 161.789 60.4531ZM175.641 63.5L177.812 56.5469H178.766L178.578 57.9297L176.367 65H175.438L175.641 63.5ZM174.18 56.5469L176.031 63.5781L176.164 65H175.188L172.734 56.5469H174.18ZM180.844 63.5234L182.609 56.5469H184.047L181.594 65H180.625L180.844 63.5234ZM178.977 56.5469L181.102 63.3828L181.344 65H180.422L178.148 57.9141L177.961 56.5469H178.977ZM187.102 56.5469V65H185.648V56.5469H187.102ZM185.539 54.3047C185.539 54.0703 185.609 53.8724 185.75 53.7109C185.896 53.5495 186.109 53.4688 186.391 53.4688C186.667 53.4688 186.878 53.5495 187.023 53.7109C187.174 53.8724 187.25 54.0703 187.25 54.3047C187.25 54.5286 187.174 54.7214 187.023 54.8828C186.878 55.0391 186.667 55.1172 186.391 55.1172C186.109 55.1172 185.896 55.0391 185.75 54.8828C185.609 54.7214 185.539 54.5286 185.539 54.3047ZM192.961 56.5469V57.6562H188.391V56.5469H192.961ZM189.938 54.4922H191.383V62.9062C191.383 63.1927 191.427 63.4089 191.516 63.5547C191.604 63.7005 191.719 63.7969 191.859 63.8438C192 63.8906 192.151 63.9141 192.312 63.9141C192.432 63.9141 192.557 63.9036 192.688 63.8828C192.823 63.8568 192.924 63.8359 192.992 63.8203L193 65C192.885 65.0365 192.734 65.0703 192.547 65.1016C192.365 65.138 192.143 65.1562 191.883 65.1562C191.529 65.1562 191.203 65.0859 190.906 64.9453C190.609 64.8047 190.372 64.5703 190.195 64.2422C190.023 63.9089 189.938 63.4609 189.938 62.8984V54.4922ZM196.102 53V65H194.656V53H196.102ZM195.758 60.4531L195.156 60.4297C195.161 59.8516 195.247 59.3177 195.414 58.8281C195.581 58.3333 195.815 57.9036 196.117 57.5391C196.419 57.1745 196.779 56.8932 197.195 56.6953C197.617 56.4922 198.083 56.3906 198.594 56.3906C199.01 56.3906 199.385 56.4479 199.719 56.5625C200.052 56.6719 200.336 56.849 200.57 57.0938C200.81 57.3385 200.992 57.6562 201.117 58.0469C201.242 58.4323 201.305 58.9036 201.305 59.4609V65H199.852V59.4453C199.852 59.0026 199.786 58.6484 199.656 58.3828C199.526 58.112 199.336 57.9167 199.086 57.7969C198.836 57.6719 198.529 57.6094 198.164 57.6094C197.805 57.6094 197.477 57.6849 197.18 57.8359C196.888 57.987 196.635 58.1953 196.422 58.4609C196.214 58.7266 196.049 59.0312 195.93 59.375C195.815 59.7135 195.758 60.0729 195.758 60.4531ZM212.766 63.3594V53H214.219V65H212.891L212.766 63.3594ZM207.078 60.8672V60.7031C207.078 60.0573 207.156 59.4714 207.312 58.9453C207.474 58.4141 207.701 57.9583 207.992 57.5781C208.289 57.1979 208.641 56.9062 209.047 56.7031C209.458 56.4948 209.917 56.3906 210.422 56.3906C210.953 56.3906 211.417 56.4844 211.812 56.6719C212.214 56.8542 212.552 57.1224 212.828 57.4766C213.109 57.8255 213.331 58.2474 213.492 58.7422C213.654 59.237 213.766 59.7969 213.828 60.4219V61.1406C213.771 61.7604 213.659 62.3177 213.492 62.8125C213.331 63.3073 213.109 63.7292 212.828 64.0781C212.552 64.4271 212.214 64.6953 211.812 64.8828C211.411 65.0651 210.943 65.1562 210.406 65.1562C209.911 65.1562 209.458 65.0495 209.047 64.8359C208.641 64.6224 208.289 64.3229 207.992 63.9375C207.701 63.5521 207.474 63.099 207.312 62.5781C207.156 62.0521 207.078 61.4818 207.078 60.8672ZM208.531 60.7031V60.8672C208.531 61.2891 208.573 61.6849 208.656 62.0547C208.745 62.4245 208.88 62.75 209.062 63.0312C209.245 63.3125 209.477 63.5339 209.758 63.6953C210.039 63.8516 210.375 63.9297 210.766 63.9297C211.245 63.9297 211.638 63.8281 211.945 63.625C212.258 63.4219 212.508 63.1536 212.695 62.8203C212.883 62.487 213.029 62.125 213.133 61.7344V59.8516C213.07 59.5651 212.979 59.2891 212.859 59.0234C212.745 58.7526 212.594 58.513 212.406 58.3047C212.224 58.0911 211.997 57.9219 211.727 57.7969C211.461 57.6719 211.146 57.6094 210.781 57.6094C210.385 57.6094 210.044 57.6927 209.758 57.8594C209.477 58.0208 209.245 58.2448 209.062 58.5312C208.88 58.8125 208.745 59.1406 208.656 59.5156C208.573 59.8854 208.531 60.2812 208.531 60.7031ZM219.977 65.1562C219.388 65.1562 218.854 65.0573 218.375 64.8594C217.901 64.6562 217.492 64.3724 217.148 64.0078C216.81 63.6432 216.549 63.2109 216.367 62.7109C216.185 62.2109 216.094 61.6641 216.094 61.0703V60.7422C216.094 60.0547 216.195 59.4427 216.398 58.9062C216.602 58.3646 216.878 57.9062 217.227 57.5312C217.576 57.1562 217.971 56.8724 218.414 56.6797C218.857 56.487 219.315 56.3906 219.789 56.3906C220.393 56.3906 220.914 56.4948 221.352 56.7031C221.794 56.9115 222.156 57.2031 222.438 57.5781C222.719 57.9479 222.927 58.3854 223.062 58.8906C223.198 59.3906 223.266 59.9375 223.266 60.5312V61.1797H216.953V60H221.82V59.8906C221.799 59.5156 221.721 59.151 221.586 58.7969C221.456 58.4427 221.247 58.151 220.961 57.9219C220.674 57.6927 220.284 57.5781 219.789 57.5781C219.461 57.5781 219.159 57.6484 218.883 57.7891C218.607 57.9245 218.37 58.1276 218.172 58.3984C217.974 58.6693 217.82 59 217.711 59.3906C217.602 59.7812 217.547 60.2318 217.547 60.7422V61.0703C217.547 61.4714 217.602 61.849 217.711 62.2031C217.826 62.5521 217.99 62.8594 218.203 63.125C218.422 63.3906 218.685 63.599 218.992 63.75C219.305 63.901 219.659 63.9766 220.055 63.9766C220.565 63.9766 220.997 63.8724 221.352 63.6641C221.706 63.4557 222.016 63.1771 222.281 62.8281L223.156 63.5234C222.974 63.7995 222.742 64.0625 222.461 64.3125C222.18 64.5625 221.833 64.7656 221.422 64.9219C221.016 65.0781 220.534 65.1562 219.977 65.1562ZM228.492 56.5469V57.6562H223.922V56.5469H228.492ZM225.469 54.4922H226.914V62.9062C226.914 63.1927 226.958 63.4089 227.047 63.5547C227.135 63.7005 227.25 63.7969 227.391 63.8438C227.531 63.8906 227.682 63.9141 227.844 63.9141C227.964 63.9141 228.089 63.9036 228.219 63.8828C228.354 63.8568 228.456 63.8359 228.523 63.8203L228.531 65C228.417 65.0365 228.266 65.0703 228.078 65.1016C227.896 65.138 227.674 65.1562 227.414 65.1562C227.06 65.1562 226.734 65.0859 226.438 64.9453C226.141 64.8047 225.904 64.5703 225.727 64.2422C225.555 63.9089 225.469 63.4609 225.469 62.8984V54.4922ZM235.172 63.5547V59.2031C235.172 58.8698 235.104 58.5807 234.969 58.3359C234.839 58.0859 234.641 57.8932 234.375 57.7578C234.109 57.6224 233.781 57.5547 233.391 57.5547C233.026 57.5547 232.706 57.6172 232.43 57.7422C232.159 57.8672 231.945 58.0312 231.789 58.2344C231.638 58.4375 231.562 58.6562 231.562 58.8906H230.117C230.117 58.5885 230.195 58.2891 230.352 57.9922C230.508 57.6953 230.732 57.4271 231.023 57.1875C231.32 56.9427 231.674 56.75 232.086 56.6094C232.503 56.4635 232.966 56.3906 233.477 56.3906C234.091 56.3906 234.633 56.4948 235.102 56.7031C235.576 56.9115 235.945 57.2266 236.211 57.6484C236.482 58.0651 236.617 58.5885 236.617 59.2188V63.1562C236.617 63.4375 236.641 63.737 236.688 64.0547C236.74 64.3724 236.815 64.6458 236.914 64.875V65H235.406C235.333 64.8333 235.276 64.612 235.234 64.3359C235.193 64.0547 235.172 63.7943 235.172 63.5547ZM235.422 59.875L235.438 60.8906H233.977C233.565 60.8906 233.198 60.9245 232.875 60.9922C232.552 61.0547 232.281 61.151 232.062 61.2812C231.844 61.4115 231.677 61.5755 231.562 61.7734C231.448 61.9661 231.391 62.1927 231.391 62.4531C231.391 62.7188 231.451 62.9609 231.57 63.1797C231.69 63.3984 231.87 63.5729 232.109 63.7031C232.354 63.8281 232.654 63.8906 233.008 63.8906C233.451 63.8906 233.841 63.7969 234.18 63.6094C234.518 63.4219 234.786 63.1927 234.984 62.9219C235.188 62.651 235.297 62.388 235.312 62.1328L235.93 62.8281C235.893 63.0469 235.794 63.2891 235.633 63.5547C235.471 63.8203 235.255 64.0755 234.984 64.3203C234.719 64.5599 234.401 64.7604 234.031 64.9219C233.667 65.0781 233.255 65.1562 232.797 65.1562C232.224 65.1562 231.721 65.0443 231.289 64.8203C230.862 64.5964 230.529 64.2969 230.289 63.9219C230.055 63.5417 229.938 63.1172 229.938 62.6484C229.938 62.1953 230.026 61.7969 230.203 61.4531C230.38 61.1042 230.635 60.8151 230.969 60.5859C231.302 60.3516 231.703 60.1745 232.172 60.0547C232.641 59.9349 233.164 59.875 233.742 59.875H235.422ZM240.461 56.5469V65H239.008V56.5469H240.461ZM238.898 54.3047C238.898 54.0703 238.969 53.8724 239.109 53.7109C239.255 53.5495 239.469 53.4688 239.75 53.4688C240.026 53.4688 240.237 53.5495 240.383 53.7109C240.534 53.8724 240.609 54.0703 240.609 54.3047C240.609 54.5286 240.534 54.7214 240.383 54.8828C240.237 55.0391 240.026 55.1172 239.75 55.1172C239.469 55.1172 239.255 55.0391 239.109 54.8828C238.969 54.7214 238.898 54.5286 238.898 54.3047ZM244.352 53V65H242.898V53H244.352ZM250.18 65.1562C249.591 65.1562 249.057 65.0573 248.578 64.8594C248.104 64.6562 247.695 64.3724 247.352 64.0078C247.013 63.6432 246.753 63.2109 246.57 62.7109C246.388 62.2109 246.297 61.6641 246.297 61.0703V60.7422C246.297 60.0547 246.398 59.4427 246.602 58.9062C246.805 58.3646 247.081 57.9062 247.43 57.5312C247.779 57.1562 248.174 56.8724 248.617 56.6797C249.06 56.487 249.518 56.3906 249.992 56.3906C250.596 56.3906 251.117 56.4948 251.555 56.7031C251.997 56.9115 252.359 57.2031 252.641 57.5781C252.922 57.9479 253.13 58.3854 253.266 58.8906C253.401 59.3906 253.469 59.9375 253.469 60.5312V61.1797H247.156V60H252.023V59.8906C252.003 59.5156 251.924 59.151 251.789 58.7969C251.659 58.4427 251.451 58.151 251.164 57.9219C250.878 57.6927 250.487 57.5781 249.992 57.5781C249.664 57.5781 249.362 57.6484 249.086 57.7891C248.81 57.9245 248.573 58.1276 248.375 58.3984C248.177 58.6693 248.023 59 247.914 59.3906C247.805 59.7812 247.75 60.2318 247.75 60.7422V61.0703C247.75 61.4714 247.805 61.849 247.914 62.2031C248.029 62.5521 248.193 62.8594 248.406 63.125C248.625 63.3906 248.888 63.599 249.195 63.75C249.508 63.901 249.862 63.9766 250.258 63.9766C250.768 63.9766 251.201 63.8724 251.555 63.6641C251.909 63.4557 252.219 63.1771 252.484 62.8281L253.359 63.5234C253.177 63.7995 252.945 64.0625 252.664 64.3125C252.383 64.5625 252.036 64.7656 251.625 64.9219C251.219 65.0781 250.737 65.1562 250.18 65.1562ZM260.484 63.3594V53H261.938V65H260.609L260.484 63.3594ZM254.797 60.8672V60.7031C254.797 60.0573 254.875 59.4714 255.031 58.9453C255.193 58.4141 255.419 57.9583 255.711 57.5781C256.008 57.1979 256.359 56.9062 256.766 56.7031C257.177 56.4948 257.635 56.3906 258.141 56.3906C258.672 56.3906 259.135 56.4844 259.531 56.6719C259.932 56.8542 260.271 57.1224 260.547 57.4766C260.828 57.8255 261.049 58.2474 261.211 58.7422C261.372 59.237 261.484 59.7969 261.547 60.4219V61.1406C261.49 61.7604 261.378 62.3177 261.211 62.8125C261.049 63.3073 260.828 63.7292 260.547 64.0781C260.271 64.4271 259.932 64.6953 259.531 64.8828C259.13 65.0651 258.661 65.1562 258.125 65.1562C257.63 65.1562 257.177 65.0495 256.766 64.8359C256.359 64.6224 256.008 64.3229 255.711 63.9375C255.419 63.5521 255.193 63.099 255.031 62.5781C254.875 62.0521 254.797 61.4818 254.797 60.8672ZM256.25 60.7031V60.8672C256.25 61.2891 256.292 61.6849 256.375 62.0547C256.464 62.4245 256.599 62.75 256.781 63.0312C256.964 63.3125 257.195 63.5339 257.477 63.6953C257.758 63.8516 258.094 63.9297 258.484 63.9297C258.964 63.9297 259.357 63.8281 259.664 63.625C259.977 63.4219 260.227 63.1536 260.414 62.8203C260.602 62.487 260.747 62.125 260.852 61.7344V59.8516C260.789 59.5651 260.698 59.2891 260.578 59.0234C260.464 58.7526 260.312 58.513 260.125 58.3047C259.943 58.0911 259.716 57.9219 259.445 57.7969C259.18 57.6719 258.865 57.6094 258.5 57.6094C258.104 57.6094 257.763 57.6927 257.477 57.8594C257.195 58.0208 256.964 58.2448 256.781 58.5312C256.599 58.8125 256.464 59.1406 256.375 59.5156C256.292 59.8854 256.25 60.2812 256.25 60.7031ZM92.0234 83.7578C92.0234 83.5495 91.9766 83.3568 91.8828 83.1797C91.7943 82.9974 91.6094 82.8333 91.3281 82.6875C91.0521 82.5365 90.6354 82.4062 90.0781 82.2969C89.6094 82.1979 89.1849 82.0807 88.8047 81.9453C88.4297 81.8099 88.1094 81.6458 87.8438 81.4531C87.5833 81.2604 87.3828 81.0339 87.2422 80.7734C87.1016 80.513 87.0312 80.2083 87.0312 79.8594C87.0312 79.526 87.1042 79.2109 87.25 78.9141C87.401 78.6172 87.612 78.3542 87.8828 78.125C88.1589 77.8958 88.4896 77.7161 88.875 77.5859C89.2604 77.4557 89.6901 77.3906 90.1641 77.3906C90.8411 77.3906 91.4193 77.5104 91.8984 77.75C92.3776 77.9896 92.7448 78.3099 93 78.7109C93.2552 79.1068 93.3828 79.5469 93.3828 80.0312H91.9375C91.9375 79.7969 91.8672 79.5703 91.7266 79.3516C91.5911 79.1276 91.3906 78.9427 91.125 78.7969C90.8646 78.651 90.5443 78.5781 90.1641 78.5781C89.763 78.5781 89.4375 78.6406 89.1875 78.7656C88.9427 78.8854 88.763 79.0391 88.6484 79.2266C88.5391 79.4141 88.4844 79.612 88.4844 79.8203C88.4844 79.9766 88.5104 80.1172 88.5625 80.2422C88.6198 80.362 88.7188 80.474 88.8594 80.5781C89 80.6771 89.1979 80.7708 89.4531 80.8594C89.7083 80.9479 90.0339 81.0365 90.4297 81.125C91.1224 81.2812 91.6927 81.4688 92.1406 81.6875C92.5885 81.9062 92.9219 82.1745 93.1406 82.4922C93.3594 82.8099 93.4688 83.1953 93.4688 83.6484C93.4688 84.0182 93.3906 84.3568 93.2344 84.6641C93.0833 84.9714 92.862 85.237 92.5703 85.4609C92.2839 85.6797 91.9401 85.8516 91.5391 85.9766C91.1432 86.0964 90.6979 86.1562 90.2031 86.1562C89.4583 86.1562 88.8281 86.0234 88.3125 85.7578C87.7969 85.4922 87.4062 85.1484 87.1406 84.7266C86.875 84.3047 86.7422 83.8594 86.7422 83.3906H88.1953C88.2161 83.7865 88.3307 84.1016 88.5391 84.3359C88.7474 84.5651 89.0026 84.7292 89.3047 84.8281C89.6068 84.9219 89.9062 84.9688 90.2031 84.9688C90.599 84.9688 90.9297 84.9167 91.1953 84.8125C91.4661 84.7083 91.6719 84.5651 91.8125 84.3828C91.9531 84.2005 92.0234 83.9922 92.0234 83.7578ZM98.75 84.9688C99.0938 84.9688 99.4115 84.8984 99.7031 84.7578C99.9948 84.6172 100.234 84.4245 100.422 84.1797C100.609 83.9297 100.716 83.6458 100.742 83.3281H102.117C102.091 83.8281 101.922 84.2943 101.609 84.7266C101.302 85.1536 100.898 85.5 100.398 85.7656C99.8984 86.026 99.349 86.1562 98.75 86.1562C98.1146 86.1562 97.5599 86.0443 97.0859 85.8203C96.6172 85.5964 96.2266 85.2891 95.9141 84.8984C95.6068 84.5078 95.375 84.0599 95.2188 83.5547C95.0677 83.0443 94.9922 82.5052 94.9922 81.9375V81.6094C94.9922 81.0417 95.0677 80.5052 95.2188 80C95.375 79.4896 95.6068 79.0391 95.9141 78.6484C96.2266 78.2578 96.6172 77.9505 97.0859 77.7266C97.5599 77.5026 98.1146 77.3906 98.75 77.3906C99.4115 77.3906 99.9896 77.526 100.484 77.7969C100.979 78.0625 101.367 78.4271 101.648 78.8906C101.935 79.349 102.091 79.8698 102.117 80.4531H100.742C100.716 80.1042 100.617 79.7891 100.445 79.5078C100.279 79.2266 100.049 79.0026 99.7578 78.8359C99.4714 78.6641 99.1354 78.5781 98.75 78.5781C98.3073 78.5781 97.9349 78.6667 97.6328 78.8438C97.3359 79.0156 97.099 79.25 96.9219 79.5469C96.75 79.8385 96.625 80.1641 96.5469 80.5234C96.474 80.8776 96.4375 81.2396 96.4375 81.6094V81.9375C96.4375 82.3073 96.474 82.6719 96.5469 83.0312C96.6198 83.3906 96.7422 83.7161 96.9141 84.0078C97.0911 84.2995 97.3281 84.5339 97.625 84.7109C97.9271 84.8828 98.3021 84.9688 98.75 84.9688ZM105.188 78.875V86H103.742V77.5469H105.148L105.188 78.875ZM107.828 77.5L107.82 78.8438C107.701 78.8177 107.586 78.8021 107.477 78.7969C107.372 78.7865 107.253 78.7812 107.117 78.7812C106.784 78.7812 106.49 78.8333 106.234 78.9375C105.979 79.0417 105.763 79.1875 105.586 79.375C105.409 79.5625 105.268 79.7865 105.164 80.0469C105.065 80.3021 105 80.5833 104.969 80.8906L104.562 81.125C104.562 80.6146 104.612 80.1354 104.711 79.6875C104.815 79.2396 104.974 78.8438 105.188 78.5C105.401 78.151 105.672 77.8802 106 77.6875C106.333 77.4896 106.729 77.3906 107.188 77.3906C107.292 77.3906 107.411 77.4036 107.547 77.4297C107.682 77.4505 107.776 77.474 107.828 77.5ZM112.516 86.1562C111.927 86.1562 111.393 86.0573 110.914 85.8594C110.44 85.6562 110.031 85.3724 109.688 85.0078C109.349 84.6432 109.089 84.2109 108.906 83.7109C108.724 83.2109 108.633 82.6641 108.633 82.0703V81.7422C108.633 81.0547 108.734 80.4427 108.938 79.9062C109.141 79.3646 109.417 78.9062 109.766 78.5312C110.115 78.1562 110.51 77.8724 110.953 77.6797C111.396 77.487 111.854 77.3906 112.328 77.3906C112.932 77.3906 113.453 77.4948 113.891 77.7031C114.333 77.9115 114.695 78.2031 114.977 78.5781C115.258 78.9479 115.466 79.3854 115.602 79.8906C115.737 80.3906 115.805 80.9375 115.805 81.5312V82.1797H109.492V81H114.359V80.8906C114.339 80.5156 114.26 80.151 114.125 79.7969C113.995 79.4427 113.786 79.151 113.5 78.9219C113.214 78.6927 112.823 78.5781 112.328 78.5781C112 78.5781 111.698 78.6484 111.422 78.7891C111.146 78.9245 110.909 79.1276 110.711 79.3984C110.513 79.6693 110.359 80 110.25 80.3906C110.141 80.7812 110.086 81.2318 110.086 81.7422V82.0703C110.086 82.4714 110.141 82.849 110.25 83.2031C110.365 83.5521 110.529 83.8594 110.742 84.125C110.961 84.3906 111.224 84.599 111.531 84.75C111.844 84.901 112.198 84.9766 112.594 84.9766C113.104 84.9766 113.536 84.8724 113.891 84.6641C114.245 84.4557 114.555 84.1771 114.82 83.8281L115.695 84.5234C115.513 84.7995 115.281 85.0625 115 85.3125C114.719 85.5625 114.372 85.7656 113.961 85.9219C113.555 86.0781 113.073 86.1562 112.516 86.1562ZM121 86.1562C120.411 86.1562 119.878 86.0573 119.398 85.8594C118.924 85.6562 118.516 85.3724 118.172 85.0078C117.833 84.6432 117.573 84.2109 117.391 83.7109C117.208 83.2109 117.117 82.6641 117.117 82.0703V81.7422C117.117 81.0547 117.219 80.4427 117.422 79.9062C117.625 79.3646 117.901 78.9062 118.25 78.5312C118.599 78.1562 118.995 77.8724 119.438 77.6797C119.88 77.487 120.339 77.3906 120.812 77.3906C121.417 77.3906 121.938 77.4948 122.375 77.7031C122.818 77.9115 123.18 78.2031 123.461 78.5781C123.742 78.9479 123.951 79.3854 124.086 79.8906C124.221 80.3906 124.289 80.9375 124.289 81.5312V82.1797H117.977V81H122.844V80.8906C122.823 80.5156 122.745 80.151 122.609 79.7969C122.479 79.4427 122.271 79.151 121.984 78.9219C121.698 78.6927 121.307 78.5781 120.812 78.5781C120.484 78.5781 120.182 78.6484 119.906 78.7891C119.63 78.9245 119.393 79.1276 119.195 79.3984C118.997 79.6693 118.844 80 118.734 80.3906C118.625 80.7812 118.57 81.2318 118.57 81.7422V82.0703C118.57 82.4714 118.625 82.849 118.734 83.2031C118.849 83.5521 119.013 83.8594 119.227 84.125C119.445 84.3906 119.708 84.599 120.016 84.75C120.328 84.901 120.682 84.9766 121.078 84.9766C121.589 84.9766 122.021 84.8724 122.375 84.6641C122.729 84.4557 123.039 84.1771 123.305 83.8281L124.18 84.5234C123.997 84.7995 123.766 85.0625 123.484 85.3125C123.203 85.5625 122.857 85.7656 122.445 85.9219C122.039 86.0781 121.557 86.1562 121 86.1562ZM127.422 79.3516V86H125.977V77.5469H127.344L127.422 79.3516ZM127.078 81.4531L126.477 81.4297C126.482 80.8516 126.568 80.3177 126.734 79.8281C126.901 79.3333 127.135 78.9036 127.438 78.5391C127.74 78.1745 128.099 77.8932 128.516 77.6953C128.938 77.4922 129.404 77.3906 129.914 77.3906C130.331 77.3906 130.706 77.4479 131.039 77.5625C131.372 77.6719 131.656 77.849 131.891 78.0938C132.13 78.3385 132.312 78.6562 132.438 79.0469C132.562 79.4323 132.625 79.9036 132.625 80.4609V86H131.172V80.4453C131.172 80.0026 131.107 79.6484 130.977 79.3828C130.846 79.112 130.656 78.9167 130.406 78.7969C130.156 78.6719 129.849 78.6094 129.484 78.6094C129.125 78.6094 128.797 78.6849 128.5 78.8359C128.208 78.987 127.956 79.1953 127.742 79.4609C127.534 79.7266 127.37 80.0312 127.25 80.375C127.135 80.7135 127.078 81.0729 127.078 81.4531ZM143.711 83.7578C143.711 83.5495 143.664 83.3568 143.57 83.1797C143.482 82.9974 143.297 82.8333 143.016 82.6875C142.74 82.5365 142.323 82.4062 141.766 82.2969C141.297 82.1979 140.872 82.0807 140.492 81.9453C140.117 81.8099 139.797 81.6458 139.531 81.4531C139.271 81.2604 139.07 81.0339 138.93 80.7734C138.789 80.513 138.719 80.2083 138.719 79.8594C138.719 79.526 138.792 79.2109 138.938 78.9141C139.089 78.6172 139.299 78.3542 139.57 78.125C139.846 77.8958 140.177 77.7161 140.562 77.5859C140.948 77.4557 141.378 77.3906 141.852 77.3906C142.529 77.3906 143.107 77.5104 143.586 77.75C144.065 77.9896 144.432 78.3099 144.688 78.7109C144.943 79.1068 145.07 79.5469 145.07 80.0312H143.625C143.625 79.7969 143.555 79.5703 143.414 79.3516C143.279 79.1276 143.078 78.9427 142.812 78.7969C142.552 78.651 142.232 78.5781 141.852 78.5781C141.451 78.5781 141.125 78.6406 140.875 78.7656C140.63 78.8854 140.451 79.0391 140.336 79.2266C140.227 79.4141 140.172 79.612 140.172 79.8203C140.172 79.9766 140.198 80.1172 140.25 80.2422C140.307 80.362 140.406 80.474 140.547 80.5781C140.688 80.6771 140.885 80.7708 141.141 80.8594C141.396 80.9479 141.721 81.0365 142.117 81.125C142.81 81.2812 143.38 81.4688 143.828 81.6875C144.276 81.9062 144.609 82.1745 144.828 82.4922C145.047 82.8099 145.156 83.1953 145.156 83.6484C145.156 84.0182 145.078 84.3568 144.922 84.6641C144.771 84.9714 144.549 85.237 144.258 85.4609C143.971 85.6797 143.628 85.8516 143.227 85.9766C142.831 86.0964 142.385 86.1562 141.891 86.1562C141.146 86.1562 140.516 86.0234 140 85.7578C139.484 85.4922 139.094 85.1484 138.828 84.7266C138.562 84.3047 138.43 83.8594 138.43 83.3906H139.883C139.904 83.7865 140.018 84.1016 140.227 84.3359C140.435 84.5651 140.69 84.7292 140.992 84.8281C141.294 84.9219 141.594 84.9688 141.891 84.9688C142.286 84.9688 142.617 84.9167 142.883 84.8125C143.154 84.7083 143.359 84.5651 143.5 84.3828C143.641 84.2005 143.711 83.9922 143.711 83.7578ZM148.5 74V86H147.055V74H148.5ZM148.156 81.4531L147.555 81.4297C147.56 80.8516 147.646 80.3177 147.812 79.8281C147.979 79.3333 148.214 78.9036 148.516 78.5391C148.818 78.1745 149.177 77.8932 149.594 77.6953C150.016 77.4922 150.482 77.3906 150.992 77.3906C151.409 77.3906 151.784 77.4479 152.117 77.5625C152.451 77.6719 152.734 77.849 152.969 78.0938C153.208 78.3385 153.391 78.6562 153.516 79.0469C153.641 79.4323 153.703 79.9036 153.703 80.4609V86H152.25V80.4453C152.25 80.0026 152.185 79.6484 152.055 79.3828C151.924 79.112 151.734 78.9167 151.484 78.7969C151.234 78.6719 150.927 78.6094 150.562 78.6094C150.203 78.6094 149.875 78.6849 149.578 78.8359C149.286 78.987 149.034 79.1953 148.82 79.4609C148.612 79.7266 148.448 80.0312 148.328 80.375C148.214 80.7135 148.156 81.0729 148.156 81.4531ZM155.484 81.8672V81.6875C155.484 81.0781 155.573 80.513 155.75 79.9922C155.927 79.4661 156.182 79.0104 156.516 78.625C156.849 78.2344 157.253 77.9323 157.727 77.7188C158.201 77.5 158.732 77.3906 159.32 77.3906C159.914 77.3906 160.448 77.5 160.922 77.7188C161.401 77.9323 161.807 78.2344 162.141 78.625C162.479 79.0104 162.737 79.4661 162.914 79.9922C163.091 80.513 163.18 81.0781 163.18 81.6875V81.8672C163.18 82.4766 163.091 83.0417 162.914 83.5625C162.737 84.0833 162.479 84.5391 162.141 84.9297C161.807 85.3151 161.404 85.6172 160.93 85.8359C160.461 86.0495 159.93 86.1562 159.336 86.1562C158.742 86.1562 158.208 86.0495 157.734 85.8359C157.26 85.6172 156.854 85.3151 156.516 84.9297C156.182 84.5391 155.927 84.0833 155.75 83.5625C155.573 83.0417 155.484 82.4766 155.484 81.8672ZM156.93 81.6875V81.8672C156.93 82.2891 156.979 82.6875 157.078 83.0625C157.177 83.4323 157.326 83.7604 157.523 84.0469C157.727 84.3333 157.979 84.5599 158.281 84.7266C158.583 84.888 158.935 84.9688 159.336 84.9688C159.732 84.9688 160.078 84.888 160.375 84.7266C160.677 84.5599 160.927 84.3333 161.125 84.0469C161.323 83.7604 161.471 83.4323 161.57 83.0625C161.674 82.6875 161.727 82.2891 161.727 81.8672V81.6875C161.727 81.2708 161.674 80.8776 161.57 80.5078C161.471 80.1328 161.32 79.8021 161.117 79.5156C160.919 79.224 160.669 78.9948 160.367 78.8281C160.07 78.6615 159.721 78.5781 159.32 78.5781C158.924 78.5781 158.576 78.6615 158.273 78.8281C157.977 78.9948 157.727 79.224 157.523 79.5156C157.326 79.8021 157.177 80.1328 157.078 80.5078C156.979 80.8776 156.93 81.2708 156.93 81.6875ZM168.531 77.5469V78.6562H163.961V77.5469H168.531ZM165.508 75.4922H166.953V83.9062C166.953 84.1927 166.997 84.4089 167.086 84.5547C167.174 84.7005 167.289 84.7969 167.43 84.8438C167.57 84.8906 167.721 84.9141 167.883 84.9141C168.003 84.9141 168.128 84.9036 168.258 84.8828C168.393 84.8568 168.495 84.8359 168.562 84.8203L168.57 86C168.456 86.0365 168.305 86.0703 168.117 86.1016C167.935 86.138 167.714 86.1562 167.453 86.1562C167.099 86.1562 166.773 86.0859 166.477 85.9453C166.18 85.8047 165.943 85.5703 165.766 85.2422C165.594 84.9089 165.508 84.4609 165.508 83.8984V75.4922ZM175.148 83.7578C175.148 83.5495 175.102 83.3568 175.008 83.1797C174.919 82.9974 174.734 82.8333 174.453 82.6875C174.177 82.5365 173.76 82.4062 173.203 82.2969C172.734 82.1979 172.31 82.0807 171.93 81.9453C171.555 81.8099 171.234 81.6458 170.969 81.4531C170.708 81.2604 170.508 81.0339 170.367 80.7734C170.227 80.513 170.156 80.2083 170.156 79.8594C170.156 79.526 170.229 79.2109 170.375 78.9141C170.526 78.6172 170.737 78.3542 171.008 78.125C171.284 77.8958 171.615 77.7161 172 77.5859C172.385 77.4557 172.815 77.3906 173.289 77.3906C173.966 77.3906 174.544 77.5104 175.023 77.75C175.503 77.9896 175.87 78.3099 176.125 78.7109C176.38 79.1068 176.508 79.5469 176.508 80.0312H175.062C175.062 79.7969 174.992 79.5703 174.852 79.3516C174.716 79.1276 174.516 78.9427 174.25 78.7969C173.99 78.651 173.669 78.5781 173.289 78.5781C172.888 78.5781 172.562 78.6406 172.312 78.7656C172.068 78.8854 171.888 79.0391 171.773 79.2266C171.664 79.4141 171.609 79.612 171.609 79.8203C171.609 79.9766 171.635 80.1172 171.688 80.2422C171.745 80.362 171.844 80.474 171.984 80.5781C172.125 80.6771 172.323 80.7708 172.578 80.8594C172.833 80.9479 173.159 81.0365 173.555 81.125C174.247 81.2812 174.818 81.4688 175.266 81.6875C175.714 81.9062 176.047 82.1745 176.266 82.4922C176.484 82.8099 176.594 83.1953 176.594 83.6484C176.594 84.0182 176.516 84.3568 176.359 84.6641C176.208 84.9714 175.987 85.237 175.695 85.4609C175.409 85.6797 175.065 85.8516 174.664 85.9766C174.268 86.0964 173.823 86.1562 173.328 86.1562C172.583 86.1562 171.953 86.0234 171.438 85.7578C170.922 85.4922 170.531 85.1484 170.266 84.7266C170 84.3047 169.867 83.8594 169.867 83.3906H171.32C171.341 83.7865 171.456 84.1016 171.664 84.3359C171.872 84.5651 172.128 84.7292 172.43 84.8281C172.732 84.9219 173.031 84.9688 173.328 84.9688C173.724 84.9688 174.055 84.9167 174.32 84.8125C174.591 84.7083 174.797 84.5651 174.938 84.3828C175.078 84.2005 175.148 83.9922 175.148 83.7578ZM178.516 85.2344C178.516 84.9896 178.591 84.7839 178.742 84.6172C178.898 84.4453 179.122 84.3594 179.414 84.3594C179.706 84.3594 179.927 84.4453 180.078 84.6172C180.234 84.7839 180.312 84.9896 180.312 85.2344C180.312 85.474 180.234 85.6771 180.078 85.8438C179.927 86.0104 179.706 86.0938 179.414 86.0938C179.122 86.0938 178.898 86.0104 178.742 85.8438C178.591 85.6771 178.516 85.474 178.516 85.2344ZM182.938 74V75C182.938 75.3125 182.883 75.6432 182.773 75.9922C182.669 76.3359 182.516 76.6693 182.312 76.9922C182.109 77.3099 181.865 77.5885 181.578 77.8281L180.75 77.2578C180.995 76.9141 181.18 76.5625 181.305 76.2031C181.435 75.8385 181.5 75.4453 181.5 75.0234V74H182.938ZM185.336 74V75C185.336 75.3125 185.281 75.6432 185.172 75.9922C185.068 76.3359 184.914 76.6693 184.711 76.9922C184.508 77.3099 184.263 77.5885 183.977 77.8281L183.148 77.2578C183.393 76.9141 183.578 76.5625 183.703 76.2031C183.833 75.8385 183.898 75.4453 183.898 75.0234V74H185.336Z" fill="#1F1E1E"/>
<defs>
<clipPath id="clip0_4_1737">
<rect width="128" height="32" fill="white" transform="translate(72 1)"/>
</clipPath>
</defs>
</svg>
