<svg width="272" height="91" viewBox="0 0 272 91" fill="none" xmlns="http://www.w3.org/2000/svg">
<g clip-path="url(#clip0_4_1727)">
<path d="M75.8728 1.71094L82.6339 24.9998L88.6072 4.02205L94.7118 25.0887L101.276 1.71094H103.114L94.3836 32.6443H93.2677L87.6882 13.4443L82.3056 32.5554H80.9928L72.1313 1.71094H75.8728Z" fill="#3F3B3D"/>
<path d="M110.925 1L121.559 32.2889H117.686L114.207 22.0667H104.558L101.013 32.2889H99.1097L110.006 1H110.925ZM105.214 20.1111H113.551L109.415 8.11111L105.214 20.1111Z" fill="#3F3B3D"/>
<path d="M125.038 1.71094H128.779V30.3332H140.135V32.2887H124.972V1.71094H125.038Z" fill="#3F3B3D"/>
<path d="M177.223 1.71094V3.66649H165.342V14.6887H173.284V16.6443H165.342V30.3332H177.223V32.2887H161.469V1.71094H177.223Z" fill="#3F3B3D"/>
<path d="M181.227 1.71094H183.327L198.096 24.1109H198.228V1.71094H199.869V32.9998H199.081L183.065 8.19983H182.933V32.3776H181.161L181.227 1.71094Z" fill="#3F3B3D"/>
<path d="M156.939 10.4221C156.283 8.5554 155.364 6.77763 154.051 5.3554C152.935 4.11096 151.491 3.13318 149.85 2.51096C148.209 1.88874 146.174 1.62207 143.811 1.62207H136.263V25.7998H140.135V3.93318H144.205C145.584 3.93318 146.831 4.19985 147.881 4.91096C149.063 5.53318 149.982 6.42207 150.769 7.57763C151.557 8.73318 152.213 10.1554 152.673 11.6665C153.132 13.2665 153.329 15.0443 153.329 16.911C153.329 19.0443 153.132 20.911 152.607 22.5998C152.082 24.2887 151.426 25.6221 150.638 26.6887C149.785 27.7554 148.8 28.6443 147.684 29.2665C146.503 29.8887 145.387 30.1554 144.074 30.1554H143.417V32.3776H144.665C146.765 32.3776 148.669 32.0221 150.244 31.1332C151.819 30.3332 153.198 29.1776 154.379 27.7554C155.495 26.4221 156.349 24.7332 156.939 22.7776C157.53 20.911 157.793 18.8665 157.793 16.7332C157.858 14.4221 157.596 12.3776 156.939 10.4221Z" fill="#3F3B3D"/>
</g>
<path d="M15.9219 56.6172V55.6719C15.9219 55.3542 15.974 55.0234 16.0781 54.6797C16.1875 54.3307 16.3438 53.9974 16.5469 53.6797C16.75 53.3568 16.9948 53.0781 17.2812 52.8438L18.1016 53.4141C17.862 53.7578 17.6771 54.112 17.5469 54.4766C17.4167 54.8359 17.3516 55.2266 17.3516 55.6484V56.6172H15.9219ZM18.3828 56.6172V55.6719C18.3828 55.3542 18.4349 55.0234 18.5391 54.6797C18.6484 54.3307 18.8047 53.9974 19.0078 53.6797C19.2109 53.3568 19.4557 53.0781 19.7422 52.8438L20.5625 53.4141C20.3229 53.7578 20.138 54.112 20.0078 54.4766C19.8776 54.8359 19.8125 55.2266 19.8125 55.6484V56.6172H18.3828ZM23.5859 53.625V65H22.0781V53.625H23.5859ZM28.3516 58.7422V59.9766H23.2578V58.7422H28.3516ZM29.125 53.625V54.8594H23.2578V53.625H29.125ZM35.4219 63.5547V59.2031C35.4219 58.8698 35.3542 58.5807 35.2188 58.3359C35.0885 58.0859 34.8906 57.8932 34.625 57.7578C34.3594 57.6224 34.0312 57.5547 33.6406 57.5547C33.276 57.5547 32.9557 57.6172 32.6797 57.7422C32.4089 57.8672 32.1953 58.0312 32.0391 58.2344C31.888 58.4375 31.8125 58.6562 31.8125 58.8906H30.3672C30.3672 58.5885 30.4453 58.2891 30.6016 57.9922C30.7578 57.6953 30.9818 57.4271 31.2734 57.1875C31.5703 56.9427 31.9245 56.75 32.3359 56.6094C32.7526 56.4635 33.2161 56.3906 33.7266 56.3906C34.3411 56.3906 34.8828 56.4948 35.3516 56.7031C35.8255 56.9115 36.1953 57.2266 36.4609 57.6484C36.7318 58.0651 36.8672 58.5885 36.8672 59.2188V63.1562C36.8672 63.4375 36.8906 63.737 36.9375 64.0547C36.9896 64.3724 37.0651 64.6458 37.1641 64.875V65H35.6562C35.5833 64.8333 35.526 64.612 35.4844 64.3359C35.4427 64.0547 35.4219 63.7943 35.4219 63.5547ZM35.6719 59.875L35.6875 60.8906H34.2266C33.8151 60.8906 33.4479 60.9245 33.125 60.9922C32.8021 61.0547 32.5312 61.151 32.3125 61.2812C32.0938 61.4115 31.9271 61.5755 31.8125 61.7734C31.6979 61.9661 31.6406 62.1927 31.6406 62.4531C31.6406 62.7188 31.7005 62.9609 31.8203 63.1797C31.9401 63.3984 32.1198 63.5729 32.3594 63.7031C32.6042 63.8281 32.9036 63.8906 33.2578 63.8906C33.7005 63.8906 34.0911 63.7969 34.4297 63.6094C34.7682 63.4219 35.0365 63.1927 35.2344 62.9219C35.4375 62.651 35.5469 62.388 35.5625 62.1328L36.1797 62.8281C36.1432 63.0469 36.0443 63.2891 35.8828 63.5547C35.7214 63.8203 35.5052 64.0755 35.2344 64.3203C34.9688 64.5599 34.651 64.7604 34.2812 64.9219C33.9167 65.0781 33.5052 65.1562 33.0469 65.1562C32.474 65.1562 31.9714 65.0443 31.5391 64.8203C31.112 64.5964 30.7786 64.2969 30.5391 63.9219C30.3047 63.5417 30.1875 63.1172 30.1875 62.6484C30.1875 62.1953 30.276 61.7969 30.4531 61.4531C30.6302 61.1042 30.8854 60.8151 31.2188 60.5859C31.5521 60.3516 31.9531 60.1745 32.4219 60.0547C32.8906 59.9349 33.4141 59.875 33.9922 59.875H35.6719ZM40.5859 58.3516V65H39.1406V56.5469H40.5078L40.5859 58.3516ZM40.2422 60.4531L39.6406 60.4297C39.6458 59.8516 39.7318 59.3177 39.8984 58.8281C40.0651 58.3333 40.2995 57.9036 40.6016 57.5391C40.9036 57.1745 41.263 56.8932 41.6797 56.6953C42.1016 56.4922 42.5677 56.3906 43.0781 56.3906C43.4948 56.3906 43.8698 56.4479 44.2031 56.5625C44.5365 56.6719 44.8203 56.849 45.0547 57.0938C45.2943 57.3385 45.4766 57.6562 45.6016 58.0469C45.7266 58.4323 45.7891 58.9036 45.7891 59.4609V65H44.3359V59.4453C44.3359 59.0026 44.2708 58.6484 44.1406 58.3828C44.0104 58.112 43.8203 57.9167 43.5703 57.7969C43.3203 57.6719 43.013 57.6094 42.6484 57.6094C42.2891 57.6094 41.9609 57.6849 41.6641 57.8359C41.3724 57.987 41.1198 58.1953 40.9062 58.4609C40.6979 58.7266 40.5339 59.0312 40.4141 59.375C40.2995 59.7135 40.2422 60.0729 40.2422 60.4531ZM51.5234 56.5469V57.6562H46.9531V56.5469H51.5234ZM48.5 54.4922H49.9453V62.9062C49.9453 63.1927 49.9896 63.4089 50.0781 63.5547C50.1667 63.7005 50.2812 63.7969 50.4219 63.8438C50.5625 63.8906 50.7135 63.9141 50.875 63.9141C50.9948 63.9141 51.1198 63.9036 51.25 63.8828C51.3854 63.8568 51.487 63.8359 51.5547 63.8203L51.5625 65C51.4479 65.0365 51.2969 65.0703 51.1094 65.1016C50.9271 65.138 50.7057 65.1562 50.4453 65.1562C50.0911 65.1562 49.7656 65.0859 49.4688 64.9453C49.1719 64.8047 48.9349 64.5703 48.7578 64.2422C48.5859 63.9089 48.5 63.4609 48.5 62.8984V54.4922ZM58.2031 63.5547V59.2031C58.2031 58.8698 58.1354 58.5807 58 58.3359C57.8698 58.0859 57.6719 57.8932 57.4062 57.7578C57.1406 57.6224 56.8125 57.5547 56.4219 57.5547C56.0573 57.5547 55.737 57.6172 55.4609 57.7422C55.1901 57.8672 54.9766 58.0312 54.8203 58.2344C54.6693 58.4375 54.5938 58.6562 54.5938 58.8906H53.1484C53.1484 58.5885 53.2266 58.2891 53.3828 57.9922C53.5391 57.6953 53.763 57.4271 54.0547 57.1875C54.3516 56.9427 54.7057 56.75 55.1172 56.6094C55.5339 56.4635 55.9974 56.3906 56.5078 56.3906C57.1224 56.3906 57.6641 56.4948 58.1328 56.7031C58.6068 56.9115 58.9766 57.2266 59.2422 57.6484C59.513 58.0651 59.6484 58.5885 59.6484 59.2188V63.1562C59.6484 63.4375 59.6719 63.737 59.7188 64.0547C59.7708 64.3724 59.8464 64.6458 59.9453 64.875V65H58.4375C58.3646 64.8333 58.3073 64.612 58.2656 64.3359C58.224 64.0547 58.2031 63.7943 58.2031 63.5547ZM58.4531 59.875L58.4688 60.8906H57.0078C56.5964 60.8906 56.2292 60.9245 55.9062 60.9922C55.5833 61.0547 55.3125 61.151 55.0938 61.2812C54.875 61.4115 54.7083 61.5755 54.5938 61.7734C54.4792 61.9661 54.4219 62.1927 54.4219 62.4531C54.4219 62.7188 54.4818 62.9609 54.6016 63.1797C54.7214 63.3984 54.901 63.5729 55.1406 63.7031C55.3854 63.8281 55.6849 63.8906 56.0391 63.8906C56.4818 63.8906 56.8724 63.7969 57.2109 63.6094C57.5495 63.4219 57.8177 63.1927 58.0156 62.9219C58.2188 62.651 58.3281 62.388 58.3438 62.1328L58.9609 62.8281C58.9245 63.0469 58.8255 63.2891 58.6641 63.5547C58.5026 63.8203 58.2865 64.0755 58.0156 64.3203C57.75 64.5599 57.4323 64.7604 57.0625 64.9219C56.6979 65.0781 56.2865 65.1562 55.8281 65.1562C55.2552 65.1562 54.7526 65.0443 54.3203 64.8203C53.8932 64.5964 53.5599 64.2969 53.3203 63.9219C53.0859 63.5417 52.9688 63.1172 52.9688 62.6484C52.9688 62.1953 53.0573 61.7969 53.2344 61.4531C53.4115 61.1042 53.6667 60.8151 54 60.5859C54.3333 60.3516 54.7344 60.1745 55.2031 60.0547C55.6719 59.9349 56.1953 59.875 56.7734 59.875H58.4531ZM66.8438 62.7578C66.8438 62.5495 66.7969 62.3568 66.7031 62.1797C66.6146 61.9974 66.4297 61.8333 66.1484 61.6875C65.8724 61.5365 65.4557 61.4062 64.8984 61.2969C64.4297 61.1979 64.0052 61.0807 63.625 60.9453C63.25 60.8099 62.9297 60.6458 62.6641 60.4531C62.4036 60.2604 62.2031 60.0339 62.0625 59.7734C61.9219 59.513 61.8516 59.2083 61.8516 58.8594C61.8516 58.526 61.9245 58.2109 62.0703 57.9141C62.2214 57.6172 62.4323 57.3542 62.7031 57.125C62.9792 56.8958 63.3099 56.7161 63.6953 56.5859C64.0807 56.4557 64.5104 56.3906 64.9844 56.3906C65.6615 56.3906 66.2396 56.5104 66.7188 56.75C67.1979 56.9896 67.5651 57.3099 67.8203 57.7109C68.0755 58.1068 68.2031 58.5469 68.2031 59.0312H66.7578C66.7578 58.7969 66.6875 58.5703 66.5469 58.3516C66.4115 58.1276 66.2109 57.9427 65.9453 57.7969C65.6849 57.651 65.3646 57.5781 64.9844 57.5781C64.5833 57.5781 64.2578 57.6406 64.0078 57.7656C63.763 57.8854 63.5833 58.0391 63.4688 58.2266C63.3594 58.4141 63.3047 58.612 63.3047 58.8203C63.3047 58.9766 63.3307 59.1172 63.3828 59.2422C63.4401 59.362 63.5391 59.474 63.6797 59.5781C63.8203 59.6771 64.0182 59.7708 64.2734 59.8594C64.5286 59.9479 64.8542 60.0365 65.25 60.125C65.9427 60.2812 66.513 60.4688 66.9609 60.6875C67.4089 60.9062 67.7422 61.1745 67.9609 61.4922C68.1797 61.8099 68.2891 62.1953 68.2891 62.6484C68.2891 63.0182 68.2109 63.3568 68.0547 63.6641C67.9036 63.9714 67.6823 64.237 67.3906 64.4609C67.1042 64.6797 66.7604 64.8516 66.3594 64.9766C65.9635 65.0964 65.5182 65.1562 65.0234 65.1562C64.2786 65.1562 63.6484 65.0234 63.1328 64.7578C62.6172 64.4922 62.2266 64.1484 61.9609 63.7266C61.6953 63.3047 61.5625 62.8594 61.5625 62.3906H63.0156C63.0365 62.7865 63.151 63.1016 63.3594 63.3359C63.5677 63.5651 63.8229 63.7292 64.125 63.8281C64.4271 63.9219 64.7266 63.9688 65.0234 63.9688C65.4193 63.9688 65.75 63.9167 66.0156 63.8125C66.2865 63.7083 66.4922 63.5651 66.6328 63.3828C66.7734 63.2005 66.8438 62.9922 66.8438 62.7578ZM73.7266 56.5469V57.6562H69.1562V56.5469H73.7266ZM70.7031 54.4922H72.1484V62.9062C72.1484 63.1927 72.1927 63.4089 72.2812 63.5547C72.3698 63.7005 72.4844 63.7969 72.625 63.8438C72.7656 63.8906 72.9167 63.9141 73.0781 63.9141C73.1979 63.9141 73.3229 63.9036 73.4531 63.8828C73.5885 63.8568 73.6901 63.8359 73.7578 63.8203L73.7656 65C73.651 65.0365 73.5 65.0703 73.3125 65.1016C73.1302 65.138 72.9089 65.1562 72.6484 65.1562C72.2943 65.1562 71.9688 65.0859 71.6719 64.9453C71.375 64.8047 71.138 64.5703 70.9609 64.2422C70.7891 63.9089 70.7031 63.4609 70.7031 62.8984V54.4922ZM76.9922 56.5469V65H75.5391V56.5469H76.9922ZM75.4297 54.3047C75.4297 54.0703 75.5 53.8724 75.6406 53.7109C75.7865 53.5495 76 53.4688 76.2812 53.4688C76.5573 53.4688 76.7682 53.5495 76.9141 53.7109C77.0651 53.8724 77.1406 54.0703 77.1406 54.3047C77.1406 54.5286 77.0651 54.7214 76.9141 54.8828C76.7682 55.0391 76.5573 55.1172 76.2812 55.1172C76 55.1172 75.7865 55.0391 75.6406 54.8828C75.5 54.7214 75.4297 54.5286 75.4297 54.3047ZM82.6953 63.9688C83.0391 63.9688 83.3568 63.8984 83.6484 63.7578C83.9401 63.6172 84.1797 63.4245 84.3672 63.1797C84.5547 62.9297 84.6615 62.6458 84.6875 62.3281H86.0625C86.0365 62.8281 85.8672 63.2943 85.5547 63.7266C85.2474 64.1536 84.8438 64.5 84.3438 64.7656C83.8438 65.026 83.2943 65.1562 82.6953 65.1562C82.0599 65.1562 81.5052 65.0443 81.0312 64.8203C80.5625 64.5964 80.1719 64.2891 79.8594 63.8984C79.5521 63.5078 79.3203 63.0599 79.1641 62.5547C79.013 62.0443 78.9375 61.5052 78.9375 60.9375V60.6094C78.9375 60.0417 79.013 59.5052 79.1641 59C79.3203 58.4896 79.5521 58.0391 79.8594 57.6484C80.1719 57.2578 80.5625 56.9505 81.0312 56.7266C81.5052 56.5026 82.0599 56.3906 82.6953 56.3906C83.3568 56.3906 83.9349 56.526 84.4297 56.7969C84.9245 57.0625 85.3125 57.4271 85.5938 57.8906C85.8802 58.349 86.0365 58.8698 86.0625 59.4531H84.6875C84.6615 59.1042 84.5625 58.7891 84.3906 58.5078C84.224 58.2266 83.9948 58.0026 83.7031 57.8359C83.4167 57.6641 83.0807 57.5781 82.6953 57.5781C82.2526 57.5781 81.8802 57.6667 81.5781 57.8438C81.2812 58.0156 81.0443 58.25 80.8672 58.5469C80.6953 58.8385 80.5703 59.1641 80.4922 59.5234C80.4193 59.8776 80.3828 60.2396 80.3828 60.6094V60.9375C80.3828 61.3073 80.4193 61.6719 80.4922 62.0312C80.5651 62.3906 80.6875 62.7161 80.8594 63.0078C81.0365 63.2995 81.2734 63.5339 81.5703 63.7109C81.8724 63.8828 82.2474 63.9688 82.6953 63.9688ZM96.9844 63.3594V53H98.4375V65H97.1094L96.9844 63.3594ZM91.2969 60.8672V60.7031C91.2969 60.0573 91.375 59.4714 91.5312 58.9453C91.6927 58.4141 91.9193 57.9583 92.2109 57.5781C92.5078 57.1979 92.8594 56.9062 93.2656 56.7031C93.6771 56.4948 94.1354 56.3906 94.6406 56.3906C95.1719 56.3906 95.6354 56.4844 96.0312 56.6719C96.4323 56.8542 96.7708 57.1224 97.0469 57.4766C97.3281 57.8255 97.5495 58.2474 97.7109 58.7422C97.8724 59.237 97.9844 59.7969 98.0469 60.4219V61.1406C97.9896 61.7604 97.8776 62.3177 97.7109 62.8125C97.5495 63.3073 97.3281 63.7292 97.0469 64.0781C96.7708 64.4271 96.4323 64.6953 96.0312 64.8828C95.6302 65.0651 95.1615 65.1562 94.625 65.1562C94.1302 65.1562 93.6771 65.0495 93.2656 64.8359C92.8594 64.6224 92.5078 64.3229 92.2109 63.9375C91.9193 63.5521 91.6927 63.099 91.5312 62.5781C91.375 62.0521 91.2969 61.4818 91.2969 60.8672ZM92.75 60.7031V60.8672C92.75 61.2891 92.7917 61.6849 92.875 62.0547C92.9635 62.4245 93.099 62.75 93.2812 63.0312C93.4635 63.3125 93.6953 63.5339 93.9766 63.6953C94.2578 63.8516 94.5938 63.9297 94.9844 63.9297C95.4635 63.9297 95.8568 63.8281 96.1641 63.625C96.4766 63.4219 96.7266 63.1536 96.9141 62.8203C97.1016 62.487 97.2474 62.125 97.3516 61.7344V59.8516C97.2891 59.5651 97.1979 59.2891 97.0781 59.0234C96.9635 58.7526 96.8125 58.513 96.625 58.3047C96.4427 58.0911 96.2161 57.9219 95.9453 57.7969C95.6797 57.6719 95.3646 57.6094 95 57.6094C94.6042 57.6094 94.263 57.6927 93.9766 57.8594C93.6953 58.0208 93.4635 58.2448 93.2812 58.5312C93.099 58.8125 92.9635 59.1406 92.875 59.5156C92.7917 59.8854 92.75 60.2812 92.75 60.7031ZM104.195 65.1562C103.607 65.1562 103.073 65.0573 102.594 64.8594C102.12 64.6562 101.711 64.3724 101.367 64.0078C101.029 63.6432 100.768 63.2109 100.586 62.7109C100.404 62.2109 100.312 61.6641 100.312 61.0703V60.7422C100.312 60.0547 100.414 59.4427 100.617 58.9062C100.82 58.3646 101.096 57.9062 101.445 57.5312C101.794 57.1562 102.19 56.8724 102.633 56.6797C103.076 56.487 103.534 56.3906 104.008 56.3906C104.612 56.3906 105.133 56.4948 105.57 56.7031C106.013 56.9115 106.375 57.2031 106.656 57.5781C106.938 57.9479 107.146 58.3854 107.281 58.8906C107.417 59.3906 107.484 59.9375 107.484 60.5312V61.1797H101.172V60H106.039V59.8906C106.018 59.5156 105.94 59.151 105.805 58.7969C105.674 58.4427 105.466 58.151 105.18 57.9219C104.893 57.6927 104.503 57.5781 104.008 57.5781C103.68 57.5781 103.378 57.6484 103.102 57.7891C102.826 57.9245 102.589 58.1276 102.391 58.3984C102.193 58.6693 102.039 59 101.93 59.3906C101.82 59.7812 101.766 60.2318 101.766 60.7422V61.0703C101.766 61.4714 101.82 61.849 101.93 62.2031C102.044 62.5521 102.208 62.8594 102.422 63.125C102.641 63.3906 102.904 63.599 103.211 63.75C103.523 63.901 103.878 63.9766 104.273 63.9766C104.784 63.9766 105.216 63.8724 105.57 63.6641C105.924 63.4557 106.234 63.1771 106.5 62.8281L107.375 63.5234C107.193 63.7995 106.961 64.0625 106.68 64.3125C106.398 64.5625 106.052 64.7656 105.641 64.9219C105.234 65.0781 104.753 65.1562 104.195 65.1562ZM114.094 62.7578C114.094 62.5495 114.047 62.3568 113.953 62.1797C113.865 61.9974 113.68 61.8333 113.398 61.6875C113.122 61.5365 112.706 61.4062 112.148 61.2969C111.68 61.1979 111.255 61.0807 110.875 60.9453C110.5 60.8099 110.18 60.6458 109.914 60.4531C109.654 60.2604 109.453 60.0339 109.312 59.7734C109.172 59.513 109.102 59.2083 109.102 58.8594C109.102 58.526 109.174 58.2109 109.32 57.9141C109.471 57.6172 109.682 57.3542 109.953 57.125C110.229 56.8958 110.56 56.7161 110.945 56.5859C111.331 56.4557 111.76 56.3906 112.234 56.3906C112.911 56.3906 113.49 56.5104 113.969 56.75C114.448 56.9896 114.815 57.3099 115.07 57.7109C115.326 58.1068 115.453 58.5469 115.453 59.0312H114.008C114.008 58.7969 113.938 58.5703 113.797 58.3516C113.661 58.1276 113.461 57.9427 113.195 57.7969C112.935 57.651 112.615 57.5781 112.234 57.5781C111.833 57.5781 111.508 57.6406 111.258 57.7656C111.013 57.8854 110.833 58.0391 110.719 58.2266C110.609 58.4141 110.555 58.612 110.555 58.8203C110.555 58.9766 110.581 59.1172 110.633 59.2422C110.69 59.362 110.789 59.474 110.93 59.5781C111.07 59.6771 111.268 59.7708 111.523 59.8594C111.779 59.9479 112.104 60.0365 112.5 60.125C113.193 60.2812 113.763 60.4688 114.211 60.6875C114.659 60.9062 114.992 61.1745 115.211 61.4922C115.43 61.8099 115.539 62.1953 115.539 62.6484C115.539 63.0182 115.461 63.3568 115.305 63.6641C115.154 63.9714 114.932 64.237 114.641 64.4609C114.354 64.6797 114.01 64.8516 113.609 64.9766C113.214 65.0964 112.768 65.1562 112.273 65.1562C111.529 65.1562 110.898 65.0234 110.383 64.7578C109.867 64.4922 109.477 64.1484 109.211 63.7266C108.945 63.3047 108.812 62.8594 108.812 62.3906H110.266C110.286 62.7865 110.401 63.1016 110.609 63.3359C110.818 63.5651 111.073 63.7292 111.375 63.8281C111.677 63.9219 111.977 63.9688 112.273 63.9688C112.669 63.9688 113 63.9167 113.266 63.8125C113.536 63.7083 113.742 63.5651 113.883 63.3828C114.023 63.2005 114.094 62.9922 114.094 62.7578ZM119.008 56.5469V65H117.555V56.5469H119.008ZM117.445 54.3047C117.445 54.0703 117.516 53.8724 117.656 53.7109C117.802 53.5495 118.016 53.4688 118.297 53.4688C118.573 53.4688 118.784 53.5495 118.93 53.7109C119.081 53.8724 119.156 54.0703 119.156 54.3047C119.156 54.5286 119.081 54.7214 118.93 54.8828C118.784 55.0391 118.573 55.1172 118.297 55.1172C118.016 55.1172 117.802 55.0391 117.656 54.8828C117.516 54.7214 117.445 54.5286 117.445 54.3047ZM126.805 56.5469H128.117V64.8203C128.117 65.5651 127.966 66.2005 127.664 66.7266C127.362 67.2526 126.94 67.651 126.398 67.9219C125.862 68.1979 125.242 68.3359 124.539 68.3359C124.247 68.3359 123.904 68.2891 123.508 68.1953C123.117 68.1068 122.732 67.9531 122.352 67.7344C121.977 67.5208 121.661 67.2318 121.406 66.8672L122.164 66.0078C122.518 66.4349 122.888 66.7318 123.273 66.8984C123.664 67.0651 124.049 67.1484 124.43 67.1484C124.888 67.1484 125.284 67.0625 125.617 66.8906C125.951 66.7188 126.208 66.4635 126.391 66.125C126.578 65.7917 126.672 65.3802 126.672 64.8906V58.4062L126.805 56.5469ZM120.984 60.8672V60.7031C120.984 60.0573 121.06 59.4714 121.211 58.9453C121.367 58.4141 121.589 57.9583 121.875 57.5781C122.167 57.1979 122.518 56.9062 122.93 56.7031C123.341 56.4948 123.805 56.3906 124.32 56.3906C124.852 56.3906 125.315 56.4844 125.711 56.6719C126.112 56.8542 126.451 57.1224 126.727 57.4766C127.008 57.8255 127.229 58.2474 127.391 58.7422C127.552 59.237 127.664 59.7969 127.727 60.4219V61.1406C127.669 61.7604 127.557 62.3177 127.391 62.8125C127.229 63.3073 127.008 63.7292 126.727 64.0781C126.451 64.4271 126.112 64.6953 125.711 64.8828C125.31 65.0651 124.841 65.1562 124.305 65.1562C123.799 65.1562 123.341 65.0495 122.93 64.8359C122.523 64.6224 122.174 64.3229 121.883 63.9375C121.591 63.5521 121.367 63.099 121.211 62.5781C121.06 62.0521 120.984 61.4818 120.984 60.8672ZM122.43 60.7031V60.8672C122.43 61.2891 122.471 61.6849 122.555 62.0547C122.643 62.4245 122.776 62.75 122.953 63.0312C123.135 63.3125 123.367 63.5339 123.648 63.6953C123.93 63.8516 124.266 63.9297 124.656 63.9297C125.135 63.9297 125.531 63.8281 125.844 63.625C126.156 63.4219 126.404 63.1536 126.586 62.8203C126.773 62.487 126.919 62.125 127.023 61.7344V59.8516C126.966 59.5651 126.878 59.2891 126.758 59.0234C126.643 58.7526 126.492 58.513 126.305 58.3047C126.122 58.0911 125.896 57.9219 125.625 57.7969C125.354 57.6719 125.036 57.6094 124.672 57.6094C124.276 57.6094 123.935 57.6927 123.648 57.8594C123.367 58.0208 123.135 58.2448 122.953 58.5312C122.776 58.8125 122.643 59.1406 122.555 59.5156C122.471 59.8854 122.43 60.2812 122.43 60.7031ZM131.758 58.3516V65H130.312V56.5469H131.68L131.758 58.3516ZM131.414 60.4531L130.812 60.4297C130.818 59.8516 130.904 59.3177 131.07 58.8281C131.237 58.3333 131.471 57.9036 131.773 57.5391C132.076 57.1745 132.435 56.8932 132.852 56.6953C133.273 56.4922 133.74 56.3906 134.25 56.3906C134.667 56.3906 135.042 56.4479 135.375 56.5625C135.708 56.6719 135.992 56.849 136.227 57.0938C136.466 57.3385 136.648 57.6562 136.773 58.0469C136.898 58.4323 136.961 58.9036 136.961 59.4609V65H135.508V59.4453C135.508 59.0026 135.443 58.6484 135.312 58.3828C135.182 58.112 134.992 57.9167 134.742 57.7969C134.492 57.6719 134.185 57.6094 133.82 57.6094C133.461 57.6094 133.133 57.6849 132.836 57.8359C132.544 57.987 132.292 58.1953 132.078 58.4609C131.87 58.7266 131.706 59.0312 131.586 59.375C131.471 59.7135 131.414 60.0729 131.414 60.4531ZM142.664 65.1562C142.076 65.1562 141.542 65.0573 141.062 64.8594C140.589 64.6562 140.18 64.3724 139.836 64.0078C139.497 63.6432 139.237 63.2109 139.055 62.7109C138.872 62.2109 138.781 61.6641 138.781 61.0703V60.7422C138.781 60.0547 138.883 59.4427 139.086 58.9062C139.289 58.3646 139.565 57.9062 139.914 57.5312C140.263 57.1562 140.659 56.8724 141.102 56.6797C141.544 56.487 142.003 56.3906 142.477 56.3906C143.081 56.3906 143.602 56.4948 144.039 56.7031C144.482 56.9115 144.844 57.2031 145.125 57.5781C145.406 57.9479 145.615 58.3854 145.75 58.8906C145.885 59.3906 145.953 59.9375 145.953 60.5312V61.1797H139.641V60H144.508V59.8906C144.487 59.5156 144.409 59.151 144.273 58.7969C144.143 58.4427 143.935 58.151 143.648 57.9219C143.362 57.6927 142.971 57.5781 142.477 57.5781C142.148 57.5781 141.846 57.6484 141.57 57.7891C141.294 57.9245 141.057 58.1276 140.859 58.3984C140.661 58.6693 140.508 59 140.398 59.3906C140.289 59.7812 140.234 60.2318 140.234 60.7422V61.0703C140.234 61.4714 140.289 61.849 140.398 62.2031C140.513 62.5521 140.677 62.8594 140.891 63.125C141.109 63.3906 141.372 63.599 141.68 63.75C141.992 63.901 142.346 63.9766 142.742 63.9766C143.253 63.9766 143.685 63.8724 144.039 63.6641C144.393 63.4557 144.703 63.1771 144.969 62.8281L145.844 63.5234C145.661 63.7995 145.43 64.0625 145.148 64.3125C144.867 64.5625 144.521 64.7656 144.109 64.9219C143.703 65.0781 143.221 65.1562 142.664 65.1562ZM149.086 57.875V65H147.641V56.5469H149.047L149.086 57.875ZM151.727 56.5L151.719 57.8438C151.599 57.8177 151.484 57.8021 151.375 57.7969C151.271 57.7865 151.151 57.7812 151.016 57.7812C150.682 57.7812 150.388 57.8333 150.133 57.9375C149.878 58.0417 149.661 58.1875 149.484 58.375C149.307 58.5625 149.167 58.7865 149.062 59.0469C148.964 59.3021 148.898 59.5833 148.867 59.8906L148.461 60.125C148.461 59.6146 148.51 59.1354 148.609 58.6875C148.714 58.2396 148.872 57.8438 149.086 57.5C149.299 57.151 149.57 56.8802 149.898 56.6875C150.232 56.4896 150.628 56.3906 151.086 56.3906C151.19 56.3906 151.31 56.4036 151.445 56.4297C151.581 56.4505 151.674 56.474 151.727 56.5ZM152.117 64.2344C152.117 63.9896 152.193 63.7839 152.344 63.6172C152.5 63.4453 152.724 63.3594 153.016 63.3594C153.307 63.3594 153.529 63.4453 153.68 63.6172C153.836 63.7839 153.914 63.9896 153.914 64.2344C153.914 64.474 153.836 64.6771 153.68 64.8438C153.529 65.0104 153.307 65.0938 153.016 65.0938C152.724 65.0938 152.5 65.0104 152.344 64.8438C152.193 64.6771 152.117 64.474 152.117 64.2344ZM156.336 64.2344C156.336 63.9896 156.411 63.7839 156.562 63.6172C156.719 63.4453 156.943 63.3594 157.234 63.3594C157.526 63.3594 157.747 63.4453 157.898 63.6172C158.055 63.7839 158.133 63.9896 158.133 64.2344C158.133 64.474 158.055 64.6771 157.898 64.8438C157.747 65.0104 157.526 65.0938 157.234 65.0938C156.943 65.0938 156.719 65.0104 156.562 64.8438C156.411 64.6771 156.336 64.474 156.336 64.2344ZM160.555 64.2344C160.555 63.9896 160.63 63.7839 160.781 63.6172C160.938 63.4453 161.161 63.3594 161.453 63.3594C161.745 63.3594 161.966 63.4453 162.117 63.6172C162.273 63.7839 162.352 63.9896 162.352 64.2344C162.352 64.474 162.273 64.6771 162.117 64.8438C161.966 65.0104 161.745 65.0938 161.453 65.0938C161.161 65.0938 160.938 65.0104 160.781 64.8438C160.63 64.6771 160.555 64.474 160.555 64.2344ZM168.711 53H170.164V63.3594L170.039 65H168.711V53ZM175.875 60.7031V60.8672C175.875 61.4818 175.802 62.0521 175.656 62.5781C175.51 63.099 175.297 63.5521 175.016 63.9375C174.734 64.3229 174.391 64.6224 173.984 64.8359C173.578 65.0495 173.112 65.1562 172.586 65.1562C172.049 65.1562 171.578 65.0651 171.172 64.8828C170.771 64.6953 170.432 64.4271 170.156 64.0781C169.88 63.7292 169.659 63.3073 169.492 62.8125C169.331 62.3177 169.219 61.7604 169.156 61.1406V60.4219C169.219 59.7969 169.331 59.237 169.492 58.7422C169.659 58.2474 169.88 57.8255 170.156 57.4766C170.432 57.1224 170.771 56.8542 171.172 56.6719C171.573 56.4844 172.039 56.3906 172.57 56.3906C173.102 56.3906 173.573 56.4948 173.984 56.7031C174.396 56.9062 174.74 57.1979 175.016 57.5781C175.297 57.9583 175.51 58.4141 175.656 58.9453C175.802 59.4714 175.875 60.0573 175.875 60.7031ZM174.422 60.8672V60.7031C174.422 60.2812 174.383 59.8854 174.305 59.5156C174.227 59.1406 174.102 58.8125 173.93 58.5312C173.758 58.2448 173.531 58.0208 173.25 57.8594C172.969 57.6927 172.622 57.6094 172.211 57.6094C171.846 57.6094 171.529 57.6719 171.258 57.7969C170.992 57.9219 170.766 58.0911 170.578 58.3047C170.391 58.513 170.237 58.7526 170.117 59.0234C170.003 59.2891 169.917 59.5651 169.859 59.8516V61.7344C169.943 62.099 170.078 62.4505 170.266 62.7891C170.458 63.1224 170.714 63.3958 171.031 63.6094C171.354 63.8229 171.753 63.9297 172.227 63.9297C172.617 63.9297 172.951 63.8516 173.227 63.6953C173.508 63.5339 173.734 63.3125 173.906 63.0312C174.083 62.75 174.214 62.4245 174.297 62.0547C174.38 61.6849 174.422 61.2891 174.422 60.8672ZM182.875 63.0469V56.5469H184.328V65H182.945L182.875 63.0469ZM183.148 61.2656L183.75 61.25C183.75 61.8125 183.69 62.3333 183.57 62.8125C183.456 63.2865 183.268 63.6979 183.008 64.0469C182.747 64.3958 182.406 64.6693 181.984 64.8672C181.562 65.0599 181.049 65.1562 180.445 65.1562C180.034 65.1562 179.656 65.0964 179.312 64.9766C178.974 64.8568 178.682 64.6719 178.438 64.4219C178.193 64.1719 178.003 63.8464 177.867 63.4453C177.737 63.0443 177.672 62.5625 177.672 62V56.5469H179.117V62.0156C179.117 62.3958 179.159 62.7109 179.242 62.9609C179.331 63.2057 179.448 63.401 179.594 63.5469C179.745 63.6875 179.911 63.7865 180.094 63.8438C180.281 63.901 180.474 63.9297 180.672 63.9297C181.286 63.9297 181.773 63.8125 182.133 63.5781C182.492 63.3385 182.75 63.0182 182.906 62.6172C183.068 62.2109 183.148 61.7604 183.148 61.2656ZM190.07 56.5469V57.6562H185.5V56.5469H190.07ZM187.047 54.4922H188.492V62.9062C188.492 63.1927 188.536 63.4089 188.625 63.5547C188.714 63.7005 188.828 63.7969 188.969 63.8438C189.109 63.8906 189.26 63.9141 189.422 63.9141C189.542 63.9141 189.667 63.9036 189.797 63.8828C189.932 63.8568 190.034 63.8359 190.102 63.8203L190.109 65C189.995 65.0365 189.844 65.0703 189.656 65.1016C189.474 65.138 189.253 65.1562 188.992 65.1562C188.638 65.1562 188.312 65.0859 188.016 64.9453C187.719 64.8047 187.482 64.5703 187.305 64.2422C187.133 63.9089 187.047 63.4609 187.047 62.8984V54.4922ZM200.719 63.5547V59.2031C200.719 58.8698 200.651 58.5807 200.516 58.3359C200.385 58.0859 200.188 57.8932 199.922 57.7578C199.656 57.6224 199.328 57.5547 198.938 57.5547C198.573 57.5547 198.253 57.6172 197.977 57.7422C197.706 57.8672 197.492 58.0312 197.336 58.2344C197.185 58.4375 197.109 58.6562 197.109 58.8906H195.664C195.664 58.5885 195.742 58.2891 195.898 57.9922C196.055 57.6953 196.279 57.4271 196.57 57.1875C196.867 56.9427 197.221 56.75 197.633 56.6094C198.049 56.4635 198.513 56.3906 199.023 56.3906C199.638 56.3906 200.18 56.4948 200.648 56.7031C201.122 56.9115 201.492 57.2266 201.758 57.6484C202.029 58.0651 202.164 58.5885 202.164 59.2188V63.1562C202.164 63.4375 202.188 63.737 202.234 64.0547C202.286 64.3724 202.362 64.6458 202.461 64.875V65H200.953C200.88 64.8333 200.823 64.612 200.781 64.3359C200.74 64.0547 200.719 63.7943 200.719 63.5547ZM200.969 59.875L200.984 60.8906H199.523C199.112 60.8906 198.745 60.9245 198.422 60.9922C198.099 61.0547 197.828 61.151 197.609 61.2812C197.391 61.4115 197.224 61.5755 197.109 61.7734C196.995 61.9661 196.938 62.1927 196.938 62.4531C196.938 62.7188 196.997 62.9609 197.117 63.1797C197.237 63.3984 197.417 63.5729 197.656 63.7031C197.901 63.8281 198.201 63.8906 198.555 63.8906C198.997 63.8906 199.388 63.7969 199.727 63.6094C200.065 63.4219 200.333 63.1927 200.531 62.9219C200.734 62.651 200.844 62.388 200.859 62.1328L201.477 62.8281C201.44 63.0469 201.341 63.2891 201.18 63.5547C201.018 63.8203 200.802 64.0755 200.531 64.3203C200.266 64.5599 199.948 64.7604 199.578 64.9219C199.214 65.0781 198.802 65.1562 198.344 65.1562C197.771 65.1562 197.268 65.0443 196.836 64.8203C196.409 64.5964 196.076 64.2969 195.836 63.9219C195.602 63.5417 195.484 63.1172 195.484 62.6484C195.484 62.1953 195.573 61.7969 195.75 61.4531C195.927 61.1042 196.182 60.8151 196.516 60.5859C196.849 60.3516 197.25 60.1745 197.719 60.0547C198.188 59.9349 198.711 59.875 199.289 59.875H200.969ZM204.43 53H205.883V63.3594L205.758 65H204.43V53ZM211.594 60.7031V60.8672C211.594 61.4818 211.521 62.0521 211.375 62.5781C211.229 63.099 211.016 63.5521 210.734 63.9375C210.453 64.3229 210.109 64.6224 209.703 64.8359C209.297 65.0495 208.831 65.1562 208.305 65.1562C207.768 65.1562 207.297 65.0651 206.891 64.8828C206.49 64.6953 206.151 64.4271 205.875 64.0781C205.599 63.7292 205.378 63.3073 205.211 62.8125C205.049 62.3177 204.938 61.7604 204.875 61.1406V60.4219C204.938 59.7969 205.049 59.237 205.211 58.7422C205.378 58.2474 205.599 57.8255 205.875 57.4766C206.151 57.1224 206.49 56.8542 206.891 56.6719C207.292 56.4844 207.758 56.3906 208.289 56.3906C208.82 56.3906 209.292 56.4948 209.703 56.7031C210.115 56.9062 210.458 57.1979 210.734 57.5781C211.016 57.9583 211.229 58.4141 211.375 58.9453C211.521 59.4714 211.594 60.0573 211.594 60.7031ZM210.141 60.8672V60.7031C210.141 60.2812 210.102 59.8854 210.023 59.5156C209.945 59.1406 209.82 58.8125 209.648 58.5312C209.477 58.2448 209.25 58.0208 208.969 57.8594C208.688 57.6927 208.341 57.6094 207.93 57.6094C207.565 57.6094 207.247 57.6719 206.977 57.7969C206.711 57.9219 206.484 58.0911 206.297 58.3047C206.109 58.513 205.956 58.7526 205.836 59.0234C205.721 59.2891 205.635 59.5651 205.578 59.8516V61.7344C205.661 62.099 205.797 62.4505 205.984 62.7891C206.177 63.1224 206.432 63.3958 206.75 63.6094C207.073 63.8229 207.471 63.9297 207.945 63.9297C208.336 63.9297 208.669 63.8516 208.945 63.6953C209.227 63.5339 209.453 63.3125 209.625 63.0312C209.802 62.75 209.932 62.4245 210.016 62.0547C210.099 61.6849 210.141 61.2891 210.141 60.8672ZM213.039 60.8672V60.6875C213.039 60.0781 213.128 59.513 213.305 58.9922C213.482 58.4661 213.737 58.0104 214.07 57.625C214.404 57.2344 214.807 56.9323 215.281 56.7188C215.755 56.5 216.286 56.3906 216.875 56.3906C217.469 56.3906 218.003 56.5 218.477 56.7188C218.956 56.9323 219.362 57.2344 219.695 57.625C220.034 58.0104 220.292 58.4661 220.469 58.9922C220.646 59.513 220.734 60.0781 220.734 60.6875V60.8672C220.734 61.4766 220.646 62.0417 220.469 62.5625C220.292 63.0833 220.034 63.5391 219.695 63.9297C219.362 64.3151 218.958 64.6172 218.484 64.8359C218.016 65.0495 217.484 65.1562 216.891 65.1562C216.297 65.1562 215.763 65.0495 215.289 64.8359C214.815 64.6172 214.409 64.3151 214.07 63.9297C213.737 63.5391 213.482 63.0833 213.305 62.5625C213.128 62.0417 213.039 61.4766 213.039 60.8672ZM214.484 60.6875V60.8672C214.484 61.2891 214.534 61.6875 214.633 62.0625C214.732 62.4323 214.88 62.7604 215.078 63.0469C215.281 63.3333 215.534 63.5599 215.836 63.7266C216.138 63.888 216.49 63.9688 216.891 63.9688C217.286 63.9688 217.633 63.888 217.93 63.7266C218.232 63.5599 218.482 63.3333 218.68 63.0469C218.878 62.7604 219.026 62.4323 219.125 62.0625C219.229 61.6875 219.281 61.2891 219.281 60.8672V60.6875C219.281 60.2708 219.229 59.8776 219.125 59.5078C219.026 59.1328 218.875 58.8021 218.672 58.5156C218.474 58.224 218.224 57.9948 217.922 57.8281C217.625 57.6615 217.276 57.5781 216.875 57.5781C216.479 57.5781 216.13 57.6615 215.828 57.8281C215.531 57.9948 215.281 58.224 215.078 58.5156C214.88 58.8021 214.732 59.1328 214.633 59.5078C214.534 59.8776 214.484 60.2708 214.484 60.6875ZM224.992 63.6953L227.305 56.5469H228.781L225.742 65H224.773L224.992 63.6953ZM223.062 56.5469L225.445 63.7344L225.609 65H224.641L221.578 56.5469H223.062ZM233.57 65.1562C232.982 65.1562 232.448 65.0573 231.969 64.8594C231.495 64.6562 231.086 64.3724 230.742 64.0078C230.404 63.6432 230.143 63.2109 229.961 62.7109C229.779 62.2109 229.688 61.6641 229.688 61.0703V60.7422C229.688 60.0547 229.789 59.4427 229.992 58.9062C230.195 58.3646 230.471 57.9062 230.82 57.5312C231.169 57.1562 231.565 56.8724 232.008 56.6797C232.451 56.487 232.909 56.3906 233.383 56.3906C233.987 56.3906 234.508 56.4948 234.945 56.7031C235.388 56.9115 235.75 57.2031 236.031 57.5781C236.312 57.9479 236.521 58.3854 236.656 58.8906C236.792 59.3906 236.859 59.9375 236.859 60.5312V61.1797H230.547V60H235.414V59.8906C235.393 59.5156 235.315 59.151 235.18 58.7969C235.049 58.4427 234.841 58.151 234.555 57.9219C234.268 57.6927 233.878 57.5781 233.383 57.5781C233.055 57.5781 232.753 57.6484 232.477 57.7891C232.201 57.9245 231.964 58.1276 231.766 58.3984C231.568 58.6693 231.414 59 231.305 59.3906C231.195 59.7812 231.141 60.2318 231.141 60.7422V61.0703C231.141 61.4714 231.195 61.849 231.305 62.2031C231.419 62.5521 231.583 62.8594 231.797 63.125C232.016 63.3906 232.279 63.599 232.586 63.75C232.898 63.901 233.253 63.9766 233.648 63.9766C234.159 63.9766 234.591 63.8724 234.945 63.6641C235.299 63.4557 235.609 63.1771 235.875 62.8281L236.75 63.5234C236.568 63.7995 236.336 64.0625 236.055 64.3125C235.773 64.5625 235.427 64.7656 235.016 64.9219C234.609 65.0781 234.128 65.1562 233.57 65.1562ZM247.5 63.5547V59.2031C247.5 58.8698 247.432 58.5807 247.297 58.3359C247.167 58.0859 246.969 57.8932 246.703 57.7578C246.438 57.6224 246.109 57.5547 245.719 57.5547C245.354 57.5547 245.034 57.6172 244.758 57.7422C244.487 57.8672 244.273 58.0312 244.117 58.2344C243.966 58.4375 243.891 58.6562 243.891 58.8906H242.445C242.445 58.5885 242.523 58.2891 242.68 57.9922C242.836 57.6953 243.06 57.4271 243.352 57.1875C243.648 56.9427 244.003 56.75 244.414 56.6094C244.831 56.4635 245.294 56.3906 245.805 56.3906C246.419 56.3906 246.961 56.4948 247.43 56.7031C247.904 56.9115 248.273 57.2266 248.539 57.6484C248.81 58.0651 248.945 58.5885 248.945 59.2188V63.1562C248.945 63.4375 248.969 63.737 249.016 64.0547C249.068 64.3724 249.143 64.6458 249.242 64.875V65H247.734C247.661 64.8333 247.604 64.612 247.562 64.3359C247.521 64.0547 247.5 63.7943 247.5 63.5547ZM247.75 59.875L247.766 60.8906H246.305C245.893 60.8906 245.526 60.9245 245.203 60.9922C244.88 61.0547 244.609 61.151 244.391 61.2812C244.172 61.4115 244.005 61.5755 243.891 61.7734C243.776 61.9661 243.719 62.1927 243.719 62.4531C243.719 62.7188 243.779 62.9609 243.898 63.1797C244.018 63.3984 244.198 63.5729 244.438 63.7031C244.682 63.8281 244.982 63.8906 245.336 63.8906C245.779 63.8906 246.169 63.7969 246.508 63.6094C246.846 63.4219 247.115 63.1927 247.312 62.9219C247.516 62.651 247.625 62.388 247.641 62.1328L248.258 62.8281C248.221 63.0469 248.122 63.2891 247.961 63.5547C247.799 63.8203 247.583 64.0755 247.312 64.3203C247.047 64.5599 246.729 64.7604 246.359 64.9219C245.995 65.0781 245.583 65.1562 245.125 65.1562C244.552 65.1562 244.049 65.0443 243.617 64.8203C243.19 64.5964 242.857 64.2969 242.617 63.9219C242.383 63.5417 242.266 63.1172 242.266 62.6484C242.266 62.1953 242.354 61.7969 242.531 61.4531C242.708 61.1042 242.964 60.8151 243.297 60.5859C243.63 60.3516 244.031 60.1745 244.5 60.0547C244.969 59.9349 245.492 59.875 246.07 59.875H247.75ZM252.789 53V65H251.336V53H252.789ZM256.68 53V65H255.227V53H256.68ZM96.2734 77.5469H97.5859V85.8203C97.5859 86.5651 97.4349 87.2005 97.1328 87.7266C96.8307 88.2526 96.4089 88.651 95.8672 88.9219C95.3307 89.1979 94.7109 89.3359 94.0078 89.3359C93.7161 89.3359 93.3724 89.2891 92.9766 89.1953C92.5859 89.1068 92.2005 88.9531 91.8203 88.7344C91.4453 88.5208 91.1302 88.2318 90.875 87.8672L91.6328 87.0078C91.987 87.4349 92.3568 87.7318 92.7422 87.8984C93.1328 88.0651 93.5182 88.1484 93.8984 88.1484C94.3568 88.1484 94.7526 88.0625 95.0859 87.8906C95.4193 87.7188 95.6771 87.4635 95.8594 87.125C96.0469 86.7917 96.1406 86.3802 96.1406 85.8906V79.4062L96.2734 77.5469ZM90.4531 81.8672V81.7031C90.4531 81.0573 90.5286 80.4714 90.6797 79.9453C90.8359 79.4141 91.0573 78.9583 91.3438 78.5781C91.6354 78.1979 91.987 77.9062 92.3984 77.7031C92.8099 77.4948 93.2734 77.3906 93.7891 77.3906C94.3203 77.3906 94.7839 77.4844 95.1797 77.6719C95.5807 77.8542 95.9193 78.1224 96.1953 78.4766C96.4766 78.8255 96.6979 79.2474 96.8594 79.7422C97.0208 80.237 97.1328 80.7969 97.1953 81.4219V82.1406C97.138 82.7604 97.026 83.3177 96.8594 83.8125C96.6979 84.3073 96.4766 84.7292 96.1953 85.0781C95.9193 85.4271 95.5807 85.6953 95.1797 85.8828C94.7786 86.0651 94.3099 86.1562 93.7734 86.1562C93.2682 86.1562 92.8099 86.0495 92.3984 85.8359C91.9922 85.6224 91.6432 85.3229 91.3516 84.9375C91.0599 84.5521 90.8359 84.099 90.6797 83.5781C90.5286 83.0521 90.4531 82.4818 90.4531 81.8672ZM91.8984 81.7031V81.8672C91.8984 82.2891 91.9401 82.6849 92.0234 83.0547C92.112 83.4245 92.2448 83.75 92.4219 84.0312C92.6042 84.3125 92.8359 84.5339 93.1172 84.6953C93.3984 84.8516 93.7344 84.9297 94.125 84.9297C94.6042 84.9297 95 84.8281 95.3125 84.625C95.625 84.4219 95.8724 84.1536 96.0547 83.8203C96.2422 83.487 96.388 83.125 96.4922 82.7344V80.8516C96.4349 80.5651 96.3464 80.2891 96.2266 80.0234C96.112 79.7526 95.9609 79.513 95.7734 79.3047C95.5911 79.0911 95.3646 78.9219 95.0938 78.7969C94.8229 78.6719 94.5052 78.6094 94.1406 78.6094C93.7448 78.6094 93.4036 78.6927 93.1172 78.8594C92.8359 79.0208 92.6042 79.2448 92.4219 79.5312C92.2448 79.8125 92.112 80.1406 92.0234 80.5156C91.9401 80.8854 91.8984 81.2812 91.8984 81.7031ZM101.227 78.875V86H99.7812V77.5469H101.188L101.227 78.875ZM103.867 77.5L103.859 78.8438C103.74 78.8177 103.625 78.8021 103.516 78.7969C103.411 78.7865 103.292 78.7812 103.156 78.7812C102.823 78.7812 102.529 78.8333 102.273 78.9375C102.018 79.0417 101.802 79.1875 101.625 79.375C101.448 79.5625 101.307 79.7865 101.203 80.0469C101.104 80.3021 101.039 80.5833 101.008 80.8906L100.602 81.125C100.602 80.6146 100.651 80.1354 100.75 79.6875C100.854 79.2396 101.013 78.8438 101.227 78.5C101.44 78.151 101.711 77.8802 102.039 77.6875C102.372 77.4896 102.768 77.3906 103.227 77.3906C103.331 77.3906 103.451 77.4036 103.586 77.4297C103.721 77.4505 103.815 77.474 103.867 77.5ZM108.555 86.1562C107.966 86.1562 107.432 86.0573 106.953 85.8594C106.479 85.6562 106.07 85.3724 105.727 85.0078C105.388 84.6432 105.128 84.2109 104.945 83.7109C104.763 83.2109 104.672 82.6641 104.672 82.0703V81.7422C104.672 81.0547 104.773 80.4427 104.977 79.9062C105.18 79.3646 105.456 78.9062 105.805 78.5312C106.154 78.1562 106.549 77.8724 106.992 77.6797C107.435 77.487 107.893 77.3906 108.367 77.3906C108.971 77.3906 109.492 77.4948 109.93 77.7031C110.372 77.9115 110.734 78.2031 111.016 78.5781C111.297 78.9479 111.505 79.3854 111.641 79.8906C111.776 80.3906 111.844 80.9375 111.844 81.5312V82.1797H105.531V81H110.398V80.8906C110.378 80.5156 110.299 80.151 110.164 79.7969C110.034 79.4427 109.826 79.151 109.539 78.9219C109.253 78.6927 108.862 78.5781 108.367 78.5781C108.039 78.5781 107.737 78.6484 107.461 78.7891C107.185 78.9245 106.948 79.1276 106.75 79.3984C106.552 79.6693 106.398 80 106.289 80.3906C106.18 80.7812 106.125 81.2318 106.125 81.7422V82.0703C106.125 82.4714 106.18 82.849 106.289 83.2031C106.404 83.5521 106.568 83.8594 106.781 84.125C107 84.3906 107.263 84.599 107.57 84.75C107.883 84.901 108.237 84.9766 108.633 84.9766C109.143 84.9766 109.576 84.8724 109.93 84.6641C110.284 84.4557 110.594 84.1771 110.859 83.8281L111.734 84.5234C111.552 84.7995 111.32 85.0625 111.039 85.3125C110.758 85.5625 110.411 85.7656 110 85.9219C109.594 86.0781 109.112 86.1562 108.555 86.1562ZM118.516 84.5547V80.2031C118.516 79.8698 118.448 79.5807 118.312 79.3359C118.182 79.0859 117.984 78.8932 117.719 78.7578C117.453 78.6224 117.125 78.5547 116.734 78.5547C116.37 78.5547 116.049 78.6172 115.773 78.7422C115.503 78.8672 115.289 79.0312 115.133 79.2344C114.982 79.4375 114.906 79.6562 114.906 79.8906H113.461C113.461 79.5885 113.539 79.2891 113.695 78.9922C113.852 78.6953 114.076 78.4271 114.367 78.1875C114.664 77.9427 115.018 77.75 115.43 77.6094C115.846 77.4635 116.31 77.3906 116.82 77.3906C117.435 77.3906 117.977 77.4948 118.445 77.7031C118.919 77.9115 119.289 78.2266 119.555 78.6484C119.826 79.0651 119.961 79.5885 119.961 80.2188V84.1562C119.961 84.4375 119.984 84.737 120.031 85.0547C120.083 85.3724 120.159 85.6458 120.258 85.875V86H118.75C118.677 85.8333 118.62 85.612 118.578 85.3359C118.536 85.0547 118.516 84.7943 118.516 84.5547ZM118.766 80.875L118.781 81.8906H117.32C116.909 81.8906 116.542 81.9245 116.219 81.9922C115.896 82.0547 115.625 82.151 115.406 82.2812C115.188 82.4115 115.021 82.5755 114.906 82.7734C114.792 82.9661 114.734 83.1927 114.734 83.4531C114.734 83.7188 114.794 83.9609 114.914 84.1797C115.034 84.3984 115.214 84.5729 115.453 84.7031C115.698 84.8281 115.997 84.8906 116.352 84.8906C116.794 84.8906 117.185 84.7969 117.523 84.6094C117.862 84.4219 118.13 84.1927 118.328 83.9219C118.531 83.651 118.641 83.388 118.656 83.1328L119.273 83.8281C119.237 84.0469 119.138 84.2891 118.977 84.5547C118.815 84.8203 118.599 85.0755 118.328 85.3203C118.062 85.5599 117.745 85.7604 117.375 85.9219C117.01 86.0781 116.599 86.1562 116.141 86.1562C115.568 86.1562 115.065 86.0443 114.633 85.8203C114.206 85.5964 113.872 85.2969 113.633 84.9219C113.398 84.5417 113.281 84.1172 113.281 83.6484C113.281 83.1953 113.37 82.7969 113.547 82.4531C113.724 82.1042 113.979 81.8151 114.312 81.5859C114.646 81.3516 115.047 81.1745 115.516 81.0547C115.984 80.9349 116.508 80.875 117.086 80.875H118.766ZM125.773 77.5469V78.6562H121.203V77.5469H125.773ZM122.75 75.4922H124.195V83.9062C124.195 84.1927 124.24 84.4089 124.328 84.5547C124.417 84.7005 124.531 84.7969 124.672 84.8438C124.812 84.8906 124.964 84.9141 125.125 84.9141C125.245 84.9141 125.37 84.9036 125.5 84.8828C125.635 84.8568 125.737 84.8359 125.805 84.8203L125.812 86C125.698 86.0365 125.547 86.0703 125.359 86.1016C125.177 86.138 124.956 86.1562 124.695 86.1562C124.341 86.1562 124.016 86.0859 123.719 85.9453C123.422 85.8047 123.185 85.5703 123.008 85.2422C122.836 84.9089 122.75 84.4609 122.75 83.8984V75.4922ZM132.883 79.1719V89.25H131.43V77.5469H132.758L132.883 79.1719ZM138.578 81.7031V81.8672C138.578 82.4818 138.505 83.0521 138.359 83.5781C138.214 84.099 138 84.5521 137.719 84.9375C137.443 85.3229 137.102 85.6224 136.695 85.8359C136.289 86.0495 135.823 86.1562 135.297 86.1562C134.76 86.1562 134.286 86.0677 133.875 85.8906C133.464 85.7135 133.115 85.4557 132.828 85.1172C132.542 84.7786 132.312 84.3724 132.141 83.8984C131.974 83.4245 131.859 82.8906 131.797 82.2969V81.4219C131.859 80.7969 131.977 80.237 132.148 79.7422C132.32 79.2474 132.547 78.8255 132.828 78.4766C133.115 78.1224 133.461 77.8542 133.867 77.6719C134.273 77.4844 134.742 77.3906 135.273 77.3906C135.805 77.3906 136.276 77.4948 136.688 77.7031C137.099 77.9062 137.445 78.1979 137.727 78.5781C138.008 78.9583 138.219 79.4141 138.359 79.9453C138.505 80.4714 138.578 81.0573 138.578 81.7031ZM137.125 81.8672V81.7031C137.125 81.2812 137.081 80.8854 136.992 80.5156C136.904 80.1406 136.766 79.8125 136.578 79.5312C136.396 79.2448 136.161 79.0208 135.875 78.8594C135.589 78.6927 135.247 78.6094 134.852 78.6094C134.487 78.6094 134.169 78.6719 133.898 78.7969C133.633 78.9219 133.406 79.0911 133.219 79.3047C133.031 79.513 132.878 79.7526 132.758 80.0234C132.643 80.2891 132.557 80.5651 132.5 80.8516V82.875C132.604 83.2396 132.75 83.5833 132.938 83.9062C133.125 84.224 133.375 84.4818 133.688 84.6797C134 84.8724 134.393 84.9688 134.867 84.9688C135.258 84.9688 135.594 84.888 135.875 84.7266C136.161 84.5599 136.396 84.3333 136.578 84.0469C136.766 83.7604 136.904 83.4323 136.992 83.0625C137.081 82.6875 137.125 82.2891 137.125 81.8672ZM143.93 86.1562C143.341 86.1562 142.807 86.0573 142.328 85.8594C141.854 85.6562 141.445 85.3724 141.102 85.0078C140.763 84.6432 140.503 84.2109 140.32 83.7109C140.138 83.2109 140.047 82.6641 140.047 82.0703V81.7422C140.047 81.0547 140.148 80.4427 140.352 79.9062C140.555 79.3646 140.831 78.9062 141.18 78.5312C141.529 78.1562 141.924 77.8724 142.367 77.6797C142.81 77.487 143.268 77.3906 143.742 77.3906C144.346 77.3906 144.867 77.4948 145.305 77.7031C145.747 77.9115 146.109 78.2031 146.391 78.5781C146.672 78.9479 146.88 79.3854 147.016 79.8906C147.151 80.3906 147.219 80.9375 147.219 81.5312V82.1797H140.906V81H145.773V80.8906C145.753 80.5156 145.674 80.151 145.539 79.7969C145.409 79.4427 145.201 79.151 144.914 78.9219C144.628 78.6927 144.237 78.5781 143.742 78.5781C143.414 78.5781 143.112 78.6484 142.836 78.7891C142.56 78.9245 142.323 79.1276 142.125 79.3984C141.927 79.6693 141.773 80 141.664 80.3906C141.555 80.7812 141.5 81.2318 141.5 81.7422V82.0703C141.5 82.4714 141.555 82.849 141.664 83.2031C141.779 83.5521 141.943 83.8594 142.156 84.125C142.375 84.3906 142.638 84.599 142.945 84.75C143.258 84.901 143.612 84.9766 144.008 84.9766C144.518 84.9766 144.951 84.8724 145.305 84.6641C145.659 84.4557 145.969 84.1771 146.234 83.8281L147.109 84.5234C146.927 84.7995 146.695 85.0625 146.414 85.3125C146.133 85.5625 145.786 85.7656 145.375 85.9219C144.969 86.0781 144.487 86.1562 143.93 86.1562ZM148.523 81.8672V81.6875C148.523 81.0781 148.612 80.513 148.789 79.9922C148.966 79.4661 149.221 79.0104 149.555 78.625C149.888 78.2344 150.292 77.9323 150.766 77.7188C151.24 77.5 151.771 77.3906 152.359 77.3906C152.953 77.3906 153.487 77.5 153.961 77.7188C154.44 77.9323 154.846 78.2344 155.18 78.625C155.518 79.0104 155.776 79.4661 155.953 79.9922C156.13 80.513 156.219 81.0781 156.219 81.6875V81.8672C156.219 82.4766 156.13 83.0417 155.953 83.5625C155.776 84.0833 155.518 84.5391 155.18 84.9297C154.846 85.3151 154.443 85.6172 153.969 85.8359C153.5 86.0495 152.969 86.1562 152.375 86.1562C151.781 86.1562 151.247 86.0495 150.773 85.8359C150.299 85.6172 149.893 85.3151 149.555 84.9297C149.221 84.5391 148.966 84.0833 148.789 83.5625C148.612 83.0417 148.523 82.4766 148.523 81.8672ZM149.969 81.6875V81.8672C149.969 82.2891 150.018 82.6875 150.117 83.0625C150.216 83.4323 150.365 83.7604 150.562 84.0469C150.766 84.3333 151.018 84.5599 151.32 84.7266C151.622 84.888 151.974 84.9688 152.375 84.9688C152.771 84.9688 153.117 84.888 153.414 84.7266C153.716 84.5599 153.966 84.3333 154.164 84.0469C154.362 83.7604 154.51 83.4323 154.609 83.0625C154.714 82.6875 154.766 82.2891 154.766 81.8672V81.6875C154.766 81.2708 154.714 80.8776 154.609 80.5078C154.51 80.1328 154.359 79.8021 154.156 79.5156C153.958 79.224 153.708 78.9948 153.406 78.8281C153.109 78.6615 152.76 78.5781 152.359 78.5781C151.964 78.5781 151.615 78.6615 151.312 78.8281C151.016 78.9948 150.766 79.224 150.562 79.5156C150.365 79.8021 150.216 80.1328 150.117 80.5078C150.018 80.8776 149.969 81.2708 149.969 81.6875ZM159.477 79.1719V89.25H158.023V77.5469H159.352L159.477 79.1719ZM165.172 81.7031V81.8672C165.172 82.4818 165.099 83.0521 164.953 83.5781C164.807 84.099 164.594 84.5521 164.312 84.9375C164.036 85.3229 163.695 85.6224 163.289 85.8359C162.883 86.0495 162.417 86.1562 161.891 86.1562C161.354 86.1562 160.88 86.0677 160.469 85.8906C160.057 85.7135 159.708 85.4557 159.422 85.1172C159.135 84.7786 158.906 84.3724 158.734 83.8984C158.568 83.4245 158.453 82.8906 158.391 82.2969V81.4219C158.453 80.7969 158.57 80.237 158.742 79.7422C158.914 79.2474 159.141 78.8255 159.422 78.4766C159.708 78.1224 160.055 77.8542 160.461 77.6719C160.867 77.4844 161.336 77.3906 161.867 77.3906C162.398 77.3906 162.87 77.4948 163.281 77.7031C163.693 77.9062 164.039 78.1979 164.32 78.5781C164.602 78.9583 164.812 79.4141 164.953 79.9453C165.099 80.4714 165.172 81.0573 165.172 81.7031ZM163.719 81.8672V81.7031C163.719 81.2812 163.674 80.8854 163.586 80.5156C163.497 80.1406 163.359 79.8125 163.172 79.5312C162.99 79.2448 162.755 79.0208 162.469 78.8594C162.182 78.6927 161.841 78.6094 161.445 78.6094C161.081 78.6094 160.763 78.6719 160.492 78.7969C160.227 78.9219 160 79.0911 159.812 79.3047C159.625 79.513 159.471 79.7526 159.352 80.0234C159.237 80.2891 159.151 80.5651 159.094 80.8516V82.875C159.198 83.2396 159.344 83.5833 159.531 83.9062C159.719 84.224 159.969 84.4818 160.281 84.6797C160.594 84.8724 160.987 84.9688 161.461 84.9688C161.852 84.9688 162.188 84.888 162.469 84.7266C162.755 84.5599 162.99 84.3333 163.172 84.0469C163.359 83.7604 163.497 83.4323 163.586 83.0625C163.674 82.6875 163.719 82.2891 163.719 81.8672ZM168.586 74V86H167.133V74H168.586ZM174.414 86.1562C173.826 86.1562 173.292 86.0573 172.812 85.8594C172.339 85.6562 171.93 85.3724 171.586 85.0078C171.247 84.6432 170.987 84.2109 170.805 83.7109C170.622 83.2109 170.531 82.6641 170.531 82.0703V81.7422C170.531 81.0547 170.633 80.4427 170.836 79.9062C171.039 79.3646 171.315 78.9062 171.664 78.5312C172.013 78.1562 172.409 77.8724 172.852 77.6797C173.294 77.487 173.753 77.3906 174.227 77.3906C174.831 77.3906 175.352 77.4948 175.789 77.7031C176.232 77.9115 176.594 78.2031 176.875 78.5781C177.156 78.9479 177.365 79.3854 177.5 79.8906C177.635 80.3906 177.703 80.9375 177.703 81.5312V82.1797H171.391V81H176.258V80.8906C176.237 80.5156 176.159 80.151 176.023 79.7969C175.893 79.4427 175.685 79.151 175.398 78.9219C175.112 78.6927 174.721 78.5781 174.227 78.5781C173.898 78.5781 173.596 78.6484 173.32 78.7891C173.044 78.9245 172.807 79.1276 172.609 79.3984C172.411 79.6693 172.258 80 172.148 80.3906C172.039 80.7812 171.984 81.2318 171.984 81.7422V82.0703C171.984 82.4714 172.039 82.849 172.148 83.2031C172.263 83.5521 172.427 83.8594 172.641 84.125C172.859 84.3906 173.122 84.599 173.43 84.75C173.742 84.901 174.096 84.9766 174.492 84.9766C175.003 84.9766 175.435 84.8724 175.789 84.6641C176.143 84.4557 176.453 84.1771 176.719 83.8281L177.594 84.5234C177.411 84.7995 177.18 85.0625 176.898 85.3125C176.617 85.5625 176.271 85.7656 175.859 85.9219C175.453 86.0781 174.971 86.1562 174.414 86.1562ZM180.352 74V75.0625L180.117 77.8516H179.25V75.1328V74H180.352ZM182.461 74V75.0625L182.227 77.8516H181.359V75.0781V74H182.461Z" fill="#1F1E1E"/>
<defs>
<clipPath id="clip0_4_1727">
<rect width="128" height="32" fill="white" transform="translate(72 1)"/>
</clipPath>
</defs>
</svg>
