<svg width="272" height="91" viewBox="0 0 272 91" fill="none" xmlns="http://www.w3.org/2000/svg">
<g clip-path="url(#clip0_4_1690)">
<path d="M94.3475 25.3556H83.6459C83.3311 25.3556 83.1213 25.2667 82.9115 25L75.1475 13.5333C75.0426 13.3556 75.0426 13.0889 75.1475 12.8222L82.9115 1.35556C83.1213 1 83.6459 0.911111 84.0656 1.08889C84.4852 1.26667 84.5902 1.71111 84.3803 2.06667L76.8262 13.1778L84.1705 23.9333H94.4525C94.8721 23.9333 95.2918 24.2889 95.2918 24.6444C95.2918 25 94.8721 25.3556 94.3475 25.3556Z" fill="#3F3B3D"/>
<path d="M86.2689 21.8C86.059 21.8 85.7443 21.7111 85.5344 21.4444L80.1836 13.5333C80.0787 13.3556 80.0787 13.0889 80.1836 12.8222L88.0525 1.35556C88.1574 1.17778 88.4721 1 88.7869 1H104.42C104.839 1 105.259 1.35556 105.259 1.71111C105.259 2.06667 104.839 2.42222 104.42 2.42222H89.2066L81.8623 13.1778L87.0033 20.7333C87.2131 21.0889 87.1082 21.4444 86.6885 21.7111C86.5836 21.8 86.4787 21.8 86.2689 21.8Z" fill="#3F3B3D"/>
<path d="M114.702 17.7112C114.492 17.7112 114.177 17.6223 113.967 17.3556L106.518 6.24449H91.8295L86.6885 13.8C86.4787 14.1556 85.9541 14.2445 85.5344 14.0667C85.1147 13.8889 85.0098 13.4445 85.2197 13.0889L90.5705 5.17782C90.6754 5.00004 90.9902 4.82227 91.3049 4.82227H106.938C107.252 4.82227 107.462 4.91115 107.672 5.17782L115.436 16.6445C115.646 17 115.541 17.3556 115.121 17.6223C115.016 17.6223 114.911 17.7112 114.702 17.7112Z" fill="#3F3B3D"/>
<path d="M104.42 33.0001C104.315 33.0001 104.21 32.9112 104 32.9112C103.58 32.7334 103.475 32.289 103.685 31.9334L111.239 20.8223L103.895 10.0668H93.718C93.2984 10.0668 92.8787 9.7112 92.8787 9.35564C92.8787 9.00009 93.2984 8.64453 93.718 8.64453H104.42C104.734 8.64453 104.944 8.73342 105.154 9.00009L112.918 20.4668C113.023 20.6445 113.023 20.9112 112.918 21.1779L105.154 32.6445C105.049 32.8223 104.734 33.0001 104.42 33.0001Z" fill="#3F3B3D"/>
<path d="M99.2787 32.9113H83.6459C83.2262 32.9113 82.8066 32.5558 82.8066 32.2002C82.8066 31.8447 83.2262 31.4891 83.6459 31.4891H98.859L106.203 20.7336L101.062 13.178C100.852 12.8224 100.957 12.4669 101.377 12.2002C101.797 12.0224 102.216 12.1113 102.531 12.4669L107.882 20.378C107.987 20.5558 107.987 20.8224 107.882 21.0891L100.013 32.5558C99.9082 32.8224 99.5935 32.9113 99.2787 32.9113Z" fill="#3F3B3D"/>
<path d="M96.8656 29.0891H81.1279C80.8131 29.0891 80.6033 29.0002 80.3934 28.7335L72.6295 17.3557C72.4197 17.0002 72.5246 16.5557 72.8393 16.378C73.259 16.2002 73.6787 16.2891 73.9934 16.6446L81.5475 27.7557H96.2361L101.377 20.2002C101.587 19.8446 102.111 19.7557 102.531 19.9335C102.951 20.1113 103.056 20.5557 102.846 20.9113L97.4951 28.7335C97.2852 29.0002 97.0754 29.0891 96.8656 29.0891Z" fill="#3F3B3D"/>
<path d="M143.029 14.6H141.036C140.511 13.2667 139.672 12.2 138.413 11.4C137.154 10.5111 135.685 10.0667 133.902 10.0667C131.593 10.0667 129.705 10.7778 128.236 12.1111C126.767 13.4445 126.033 15.2222 126.033 17.4445C126.033 19.6667 126.767 21.3556 128.236 22.7778C129.705 24.2 131.489 24.8222 133.902 24.8222C135.58 24.8222 137.154 24.3778 138.413 23.4889C139.567 22.6 140.511 21.5333 141.036 20.2889H142.715H145.338C144.708 22.4222 143.344 24.2 141.456 25.6222C139.567 27.0445 137.049 27.7556 134.007 27.7556C130.229 27.7556 127.292 26.7778 125.089 24.7333C122.78 22.7778 121.626 20.2889 121.626 17.3556C121.626 14.4222 122.78 12.0222 125.089 9.97779C127.292 8.02223 130.334 6.95557 134.007 6.95557C137.049 6.95557 139.567 7.66668 141.456 9.0889C143.449 10.5111 144.708 12.2889 145.338 14.4222H143.029V14.6Z" fill="#3F3B3D"/>
<path d="M152.892 5.17773V7.57773V10.7777V11.9333V14.7777V17.8V23.2222V27.4888H148.695V23.2222V17.6222V14.6V11.6666V7.22218V5.17773H152.892Z" fill="#3F3B3D"/>
<path d="M159.397 13.1778C161.18 11.5778 163.593 10.7778 166.531 10.7778C169.469 10.7778 171.777 11.5778 173.666 13.1778C175.554 14.7778 176.393 16.8223 176.393 19.2223V19.6667C176.393 19.8445 176.289 20.0223 176.289 20.1112H174.61H173.875H171.987H161.075C161.285 21.3556 161.81 22.3334 162.649 23.1334C163.698 24.1112 165.167 24.6445 166.951 24.6445C168 24.6445 168.944 24.4667 169.574 24.0223C170.308 23.6667 170.938 23.1334 171.357 22.5112H171.882H172.092H173.666H176.079C175.344 24.0223 174.19 25.2667 172.616 26.1556C171.043 27.0445 169.049 27.4889 166.846 27.4889C163.698 27.4889 161.285 26.6889 159.502 25.0889C157.613 23.4889 156.774 21.4445 156.774 19.0445C156.774 16.7334 157.718 14.7778 159.397 13.1778ZM172.092 17.8889C171.882 16.8223 171.462 15.9334 170.728 15.2223C169.784 14.2445 168.42 13.7112 166.636 13.7112C164.852 13.7112 163.489 14.1556 162.544 15.2223C161.81 15.9334 161.39 16.8223 161.18 17.8889H172.092Z" fill="#3F3B3D"/>
<path d="M181.744 13.1778C183.633 11.5778 186.046 10.7778 189.193 10.7778C192.341 10.7778 194.859 11.5778 196.643 13.1778C198.531 14.7778 199.37 16.8223 199.37 19.2223C199.37 21.6223 198.531 23.7556 196.643 25.2667C194.859 26.8667 192.341 27.6667 189.193 27.6667H189.089C185.941 27.6667 183.423 26.8667 181.639 25.2667C179.751 23.6667 178.911 21.6223 178.911 19.2223C179.016 16.7334 179.961 14.7778 181.744 13.1778ZM193.495 15.2223C192.446 14.2445 190.977 13.6223 189.193 13.6223C187.41 13.6223 186.046 14.1556 184.892 15.2223C183.843 16.2001 183.213 17.6223 183.213 19.2223C183.213 20.8223 183.738 22.1556 184.892 23.2223C185.941 24.2001 187.41 24.7334 189.193 24.7334C190.977 24.7334 192.446 24.2889 193.495 23.2223C194.544 22.2445 195.174 20.8223 195.174 19.2223C195.174 17.6223 194.544 16.2889 193.495 15.2223Z" fill="#3F3B3D"/>
</g>
<path d="M5.74219 56.6172V55.6719C5.74219 55.3542 5.79427 55.0234 5.89844 54.6797C6.00781 54.3307 6.16406 53.9974 6.36719 53.6797C6.57031 53.3568 6.8151 53.0781 7.10156 52.8438L7.92188 53.4141C7.68229 53.7578 7.4974 54.112 7.36719 54.4766C7.23698 54.8359 7.17188 55.2266 7.17188 55.6484V56.6172H5.74219ZM8.20312 56.6172V55.6719C8.20312 55.3542 8.25521 55.0234 8.35938 54.6797C8.46875 54.3307 8.625 53.9974 8.82812 53.6797C9.03125 53.3568 9.27604 53.0781 9.5625 52.8438L10.3828 53.4141C10.1432 53.7578 9.95833 54.112 9.82812 54.4766C9.69792 54.8359 9.63281 55.2266 9.63281 55.6484V56.6172H8.20312ZM20.3047 59.3359V63.5C20.1641 63.7083 19.9401 63.9427 19.6328 64.2031C19.3255 64.4583 18.901 64.6823 18.3594 64.875C17.8229 65.0625 17.1302 65.1562 16.2812 65.1562C15.5885 65.1562 14.9505 65.0365 14.3672 64.7969C13.7891 64.5521 13.2865 64.1979 12.8594 63.7344C12.4375 63.2656 12.1094 62.6979 11.875 62.0312C11.6458 61.3594 11.5312 60.599 11.5312 59.75V58.8672C11.5312 58.0182 11.6302 57.2604 11.8281 56.5938C12.0312 55.9271 12.3281 55.362 12.7188 54.8984C13.1094 54.4297 13.5885 54.0755 14.1562 53.8359C14.724 53.5911 15.375 53.4688 16.1094 53.4688C16.9792 53.4688 17.7057 53.6198 18.2891 53.9219C18.8776 54.2188 19.3359 54.6302 19.6641 55.1562C19.9974 55.6823 20.2109 56.2812 20.3047 56.9531H18.7969C18.7292 56.5417 18.5938 56.1667 18.3906 55.8281C18.1927 55.4896 17.9089 55.2188 17.5391 55.0156C17.1693 54.8073 16.6927 54.7031 16.1094 54.7031C15.5833 54.7031 15.1276 54.7995 14.7422 54.9922C14.3568 55.1849 14.0391 55.4609 13.7891 55.8203C13.5391 56.1797 13.3516 56.6146 13.2266 57.125C13.1068 57.6354 13.0469 58.2109 13.0469 58.8516V59.75C13.0469 60.4062 13.1224 60.9922 13.2734 61.5078C13.4297 62.0234 13.651 62.4635 13.9375 62.8281C14.224 63.1875 14.5651 63.4609 14.9609 63.6484C15.362 63.8359 15.8047 63.9297 16.2891 63.9297C16.8255 63.9297 17.2604 63.8854 17.5938 63.7969C17.9271 63.7031 18.1875 63.5938 18.375 63.4688C18.5625 63.3385 18.7057 63.2161 18.8047 63.1016V60.5547H16.1719V59.3359H20.3047ZM24.0312 57.875V65H22.5859V56.5469H23.9922L24.0312 57.875ZM26.6719 56.5L26.6641 57.8438C26.5443 57.8177 26.4297 57.8021 26.3203 57.7969C26.2161 57.7865 26.0964 57.7812 25.9609 57.7812C25.6276 57.7812 25.3333 57.8333 25.0781 57.9375C24.8229 58.0417 24.6068 58.1875 24.4297 58.375C24.2526 58.5625 24.112 58.7865 24.0078 59.0469C23.9089 59.3021 23.8438 59.5833 23.8125 59.8906L23.4062 60.125C23.4062 59.6146 23.4557 59.1354 23.5547 58.6875C23.6589 58.2396 23.8177 57.8438 24.0312 57.5C24.2448 57.151 24.5156 56.8802 24.8438 56.6875C25.1771 56.4896 25.5729 56.3906 26.0312 56.3906C26.1354 56.3906 26.2552 56.4036 26.3906 56.4297C26.526 56.4505 26.6198 56.474 26.6719 56.5ZM31.3594 65.1562C30.7708 65.1562 30.237 65.0573 29.7578 64.8594C29.2839 64.6562 28.875 64.3724 28.5312 64.0078C28.1927 63.6432 27.9323 63.2109 27.75 62.7109C27.5677 62.2109 27.4766 61.6641 27.4766 61.0703V60.7422C27.4766 60.0547 27.5781 59.4427 27.7812 58.9062C27.9844 58.3646 28.2604 57.9062 28.6094 57.5312C28.9583 57.1562 29.3542 56.8724 29.7969 56.6797C30.2396 56.487 30.6979 56.3906 31.1719 56.3906C31.776 56.3906 32.2969 56.4948 32.7344 56.7031C33.1771 56.9115 33.5391 57.2031 33.8203 57.5781C34.1016 57.9479 34.3099 58.3854 34.4453 58.8906C34.5807 59.3906 34.6484 59.9375 34.6484 60.5312V61.1797H28.3359V60H33.2031V59.8906C33.1823 59.5156 33.1042 59.151 32.9688 58.7969C32.8385 58.4427 32.6302 58.151 32.3438 57.9219C32.0573 57.6927 31.6667 57.5781 31.1719 57.5781C30.8438 57.5781 30.5417 57.6484 30.2656 57.7891C29.9896 57.9245 29.7526 58.1276 29.5547 58.3984C29.3568 58.6693 29.2031 59 29.0938 59.3906C28.9844 59.7812 28.9297 60.2318 28.9297 60.7422V61.0703C28.9297 61.4714 28.9844 61.849 29.0938 62.2031C29.2083 62.5521 29.3724 62.8594 29.5859 63.125C29.8047 63.3906 30.0677 63.599 30.375 63.75C30.6875 63.901 31.0417 63.9766 31.4375 63.9766C31.9479 63.9766 32.3802 63.8724 32.7344 63.6641C33.0885 63.4557 33.3984 63.1771 33.6641 62.8281L34.5391 63.5234C34.3568 63.7995 34.125 64.0625 33.8438 64.3125C33.5625 64.5625 33.2161 64.7656 32.8047 64.9219C32.3984 65.0781 31.9167 65.1562 31.3594 65.1562ZM41.3203 63.5547V59.2031C41.3203 58.8698 41.2526 58.5807 41.1172 58.3359C40.987 58.0859 40.7891 57.8932 40.5234 57.7578C40.2578 57.6224 39.9297 57.5547 39.5391 57.5547C39.1745 57.5547 38.8542 57.6172 38.5781 57.7422C38.3073 57.8672 38.0938 58.0312 37.9375 58.2344C37.7865 58.4375 37.7109 58.6562 37.7109 58.8906H36.2656C36.2656 58.5885 36.3438 58.2891 36.5 57.9922C36.6562 57.6953 36.8802 57.4271 37.1719 57.1875C37.4688 56.9427 37.8229 56.75 38.2344 56.6094C38.651 56.4635 39.1146 56.3906 39.625 56.3906C40.2396 56.3906 40.7812 56.4948 41.25 56.7031C41.724 56.9115 42.0938 57.2266 42.3594 57.6484C42.6302 58.0651 42.7656 58.5885 42.7656 59.2188V63.1562C42.7656 63.4375 42.7891 63.737 42.8359 64.0547C42.888 64.3724 42.9635 64.6458 43.0625 64.875V65H41.5547C41.4818 64.8333 41.4245 64.612 41.3828 64.3359C41.3411 64.0547 41.3203 63.7943 41.3203 63.5547ZM41.5703 59.875L41.5859 60.8906H40.125C39.7135 60.8906 39.3464 60.9245 39.0234 60.9922C38.7005 61.0547 38.4297 61.151 38.2109 61.2812C37.9922 61.4115 37.8255 61.5755 37.7109 61.7734C37.5964 61.9661 37.5391 62.1927 37.5391 62.4531C37.5391 62.7188 37.599 62.9609 37.7188 63.1797C37.8385 63.3984 38.0182 63.5729 38.2578 63.7031C38.5026 63.8281 38.8021 63.8906 39.1562 63.8906C39.599 63.8906 39.9896 63.7969 40.3281 63.6094C40.6667 63.4219 40.9349 63.1927 41.1328 62.9219C41.3359 62.651 41.4453 62.388 41.4609 62.1328L42.0781 62.8281C42.0417 63.0469 41.9427 63.2891 41.7812 63.5547C41.6198 63.8203 41.4036 64.0755 41.1328 64.3203C40.8672 64.5599 40.5495 64.7604 40.1797 64.9219C39.8151 65.0781 39.4036 65.1562 38.9453 65.1562C38.3724 65.1562 37.8698 65.0443 37.4375 64.8203C37.0104 64.5964 36.6771 64.2969 36.4375 63.9219C36.2031 63.5417 36.0859 63.1172 36.0859 62.6484C36.0859 62.1953 36.1745 61.7969 36.3516 61.4531C36.5286 61.1042 36.7839 60.8151 37.1172 60.5859C37.4505 60.3516 37.8516 60.1745 38.3203 60.0547C38.7891 59.9349 39.3125 59.875 39.8906 59.875H41.5703ZM48.5781 56.5469V57.6562H44.0078V56.5469H48.5781ZM45.5547 54.4922H47V62.9062C47 63.1927 47.0443 63.4089 47.1328 63.5547C47.2214 63.7005 47.3359 63.7969 47.4766 63.8438C47.6172 63.8906 47.7682 63.9141 47.9297 63.9141C48.0495 63.9141 48.1745 63.9036 48.3047 63.8828C48.4401 63.8568 48.5417 63.8359 48.6094 63.8203L48.6172 65C48.5026 65.0365 48.3516 65.0703 48.1641 65.1016C47.9818 65.138 47.7604 65.1562 47.5 65.1562C47.1458 65.1562 46.8203 65.0859 46.5234 64.9453C46.2266 64.8047 45.9896 64.5703 45.8125 64.2422C45.6406 63.9089 45.5547 63.4609 45.5547 62.8984V54.4922ZM57.625 63.9688C57.9688 63.9688 58.2865 63.8984 58.5781 63.7578C58.8698 63.6172 59.1094 63.4245 59.2969 63.1797C59.4844 62.9297 59.5911 62.6458 59.6172 62.3281H60.9922C60.9661 62.8281 60.7969 63.2943 60.4844 63.7266C60.1771 64.1536 59.7734 64.5 59.2734 64.7656C58.7734 65.026 58.224 65.1562 57.625 65.1562C56.9896 65.1562 56.4349 65.0443 55.9609 64.8203C55.4922 64.5964 55.1016 64.2891 54.7891 63.8984C54.4818 63.5078 54.25 63.0599 54.0938 62.5547C53.9427 62.0443 53.8672 61.5052 53.8672 60.9375V60.6094C53.8672 60.0417 53.9427 59.5052 54.0938 59C54.25 58.4896 54.4818 58.0391 54.7891 57.6484C55.1016 57.2578 55.4922 56.9505 55.9609 56.7266C56.4349 56.5026 56.9896 56.3906 57.625 56.3906C58.2865 56.3906 58.8646 56.526 59.3594 56.7969C59.8542 57.0625 60.2422 57.4271 60.5234 57.8906C60.8099 58.349 60.9661 58.8698 60.9922 59.4531H59.6172C59.5911 59.1042 59.4922 58.7891 59.3203 58.5078C59.1536 58.2266 58.9245 58.0026 58.6328 57.8359C58.3464 57.6641 58.0104 57.5781 57.625 57.5781C57.1823 57.5781 56.8099 57.6667 56.5078 57.8438C56.2109 58.0156 55.974 58.25 55.7969 58.5469C55.625 58.8385 55.5 59.1641 55.4219 59.5234C55.349 59.8776 55.3125 60.2396 55.3125 60.6094V60.9375C55.3125 61.3073 55.349 61.6719 55.4219 62.0312C55.4948 62.3906 55.6172 62.7161 55.7891 63.0078C55.9661 63.2995 56.2031 63.5339 56.5 63.7109C56.8021 63.8828 57.1771 63.9688 57.625 63.9688ZM62.2344 60.8672V60.6875C62.2344 60.0781 62.3229 59.513 62.5 58.9922C62.6771 58.4661 62.9323 58.0104 63.2656 57.625C63.599 57.2344 64.0026 56.9323 64.4766 56.7188C64.9505 56.5 65.4818 56.3906 66.0703 56.3906C66.6641 56.3906 67.1979 56.5 67.6719 56.7188C68.151 56.9323 68.5573 57.2344 68.8906 57.625C69.2292 58.0104 69.487 58.4661 69.6641 58.9922C69.8411 59.513 69.9297 60.0781 69.9297 60.6875V60.8672C69.9297 61.4766 69.8411 62.0417 69.6641 62.5625C69.487 63.0833 69.2292 63.5391 68.8906 63.9297C68.5573 64.3151 68.1536 64.6172 67.6797 64.8359C67.2109 65.0495 66.6797 65.1562 66.0859 65.1562C65.4922 65.1562 64.9583 65.0495 64.4844 64.8359C64.0104 64.6172 63.6042 64.3151 63.2656 63.9297C62.9323 63.5391 62.6771 63.0833 62.5 62.5625C62.3229 62.0417 62.2344 61.4766 62.2344 60.8672ZM63.6797 60.6875V60.8672C63.6797 61.2891 63.7292 61.6875 63.8281 62.0625C63.9271 62.4323 64.0755 62.7604 64.2734 63.0469C64.4766 63.3333 64.7292 63.5599 65.0312 63.7266C65.3333 63.888 65.6849 63.9688 66.0859 63.9688C66.4818 63.9688 66.8281 63.888 67.125 63.7266C67.4271 63.5599 67.6771 63.3333 67.875 63.0469C68.0729 62.7604 68.2214 62.4323 68.3203 62.0625C68.4245 61.6875 68.4766 61.2891 68.4766 60.8672V60.6875C68.4766 60.2708 68.4245 59.8776 68.3203 59.5078C68.2214 59.1328 68.0703 58.8021 67.8672 58.5156C67.6693 58.224 67.4193 57.9948 67.1172 57.8281C66.8203 57.6615 66.4714 57.5781 66.0703 57.5781C65.6745 57.5781 65.3255 57.6615 65.0234 57.8281C64.7266 57.9948 64.4766 58.224 64.2734 58.5156C64.0755 58.8021 63.9271 59.1328 63.8281 59.5078C63.7292 59.8776 63.6797 60.2708 63.6797 60.6875ZM73.1797 58.2266V65H71.7266V56.5469H73.1016L73.1797 58.2266ZM72.8828 60.4531L72.2109 60.4297C72.2161 59.8516 72.2917 59.3177 72.4375 58.8281C72.5833 58.3333 72.7995 57.9036 73.0859 57.5391C73.3724 57.1745 73.7292 56.8932 74.1562 56.6953C74.5833 56.4922 75.0781 56.3906 75.6406 56.3906C76.0365 56.3906 76.401 56.4479 76.7344 56.5625C77.0677 56.6719 77.3568 56.8464 77.6016 57.0859C77.8464 57.3255 78.0365 57.6328 78.1719 58.0078C78.3073 58.3828 78.375 58.8359 78.375 59.3672V65H76.9297V59.4375C76.9297 58.9948 76.8542 58.6406 76.7031 58.375C76.5573 58.1094 76.349 57.9167 76.0781 57.7969C75.8073 57.6719 75.4896 57.6094 75.125 57.6094C74.6979 57.6094 74.3411 57.6849 74.0547 57.8359C73.7682 57.987 73.5391 58.1953 73.3672 58.4609C73.1953 58.7266 73.0703 59.0312 72.9922 59.375C72.9193 59.7135 72.8828 60.0729 72.8828 60.4531ZM78.3594 59.6562L77.3906 59.9531C77.3958 59.4896 77.4714 59.0443 77.6172 58.6172C77.7682 58.1901 77.9844 57.8099 78.2656 57.4766C78.5521 57.1432 78.9036 56.8802 79.3203 56.6875C79.737 56.4896 80.2135 56.3906 80.75 56.3906C81.2031 56.3906 81.6042 56.4505 81.9531 56.5703C82.3073 56.6901 82.6042 56.875 82.8438 57.125C83.0885 57.3698 83.2734 57.6849 83.3984 58.0703C83.5234 58.4557 83.5859 58.9141 83.5859 59.4453V65H82.1328V59.4297C82.1328 58.9557 82.0573 58.5885 81.9062 58.3281C81.7604 58.0625 81.5521 57.8776 81.2812 57.7734C81.0156 57.6641 80.6979 57.6094 80.3281 57.6094C80.0104 57.6094 79.7292 57.6641 79.4844 57.7734C79.2396 57.8828 79.0339 58.0339 78.8672 58.2266C78.7005 58.4141 78.5729 58.6302 78.4844 58.875C78.401 59.1198 78.3594 59.3802 78.3594 59.6562ZM87.2109 58.2266V65H85.7578V56.5469H87.1328L87.2109 58.2266ZM86.9141 60.4531L86.2422 60.4297C86.2474 59.8516 86.3229 59.3177 86.4688 58.8281C86.6146 58.3333 86.8307 57.9036 87.1172 57.5391C87.4036 57.1745 87.7604 56.8932 88.1875 56.6953C88.6146 56.4922 89.1094 56.3906 89.6719 56.3906C90.0677 56.3906 90.4323 56.4479 90.7656 56.5625C91.099 56.6719 91.388 56.8464 91.6328 57.0859C91.8776 57.3255 92.0677 57.6328 92.2031 58.0078C92.3385 58.3828 92.4062 58.8359 92.4062 59.3672V65H90.9609V59.4375C90.9609 58.9948 90.8854 58.6406 90.7344 58.375C90.5885 58.1094 90.3802 57.9167 90.1094 57.7969C89.8385 57.6719 89.5208 57.6094 89.1562 57.6094C88.7292 57.6094 88.3724 57.6849 88.0859 57.8359C87.7995 57.987 87.5703 58.1953 87.3984 58.4609C87.2266 58.7266 87.1016 59.0312 87.0234 59.375C86.9505 59.7135 86.9141 60.0729 86.9141 60.4531ZM92.3906 59.6562L91.4219 59.9531C91.4271 59.4896 91.5026 59.0443 91.6484 58.6172C91.7995 58.1901 92.0156 57.8099 92.2969 57.4766C92.5833 57.1432 92.9349 56.8802 93.3516 56.6875C93.7682 56.4896 94.2448 56.3906 94.7812 56.3906C95.2344 56.3906 95.6354 56.4505 95.9844 56.5703C96.3385 56.6901 96.6354 56.875 96.875 57.125C97.1198 57.3698 97.3047 57.6849 97.4297 58.0703C97.5547 58.4557 97.6172 58.9141 97.6172 59.4453V65H96.1641V59.4297C96.1641 58.9557 96.0885 58.5885 95.9375 58.3281C95.7917 58.0625 95.5833 57.8776 95.3125 57.7734C95.0469 57.6641 94.7292 57.6094 94.3594 57.6094C94.0417 57.6094 93.7604 57.6641 93.5156 57.7734C93.2708 57.8828 93.0651 58.0339 92.8984 58.2266C92.7318 58.4141 92.6042 58.6302 92.5156 58.875C92.4323 59.1198 92.3906 59.3802 92.3906 59.6562ZM104.977 63.0469V56.5469H106.43V65H105.047L104.977 63.0469ZM105.25 61.2656L105.852 61.25C105.852 61.8125 105.792 62.3333 105.672 62.8125C105.557 63.2865 105.37 63.6979 105.109 64.0469C104.849 64.3958 104.508 64.6693 104.086 64.8672C103.664 65.0599 103.151 65.1562 102.547 65.1562C102.135 65.1562 101.758 65.0964 101.414 64.9766C101.076 64.8568 100.784 64.6719 100.539 64.4219C100.294 64.1719 100.104 63.8464 99.9688 63.4453C99.8385 63.0443 99.7734 62.5625 99.7734 62V56.5469H101.219V62.0156C101.219 62.3958 101.26 62.7109 101.344 62.9609C101.432 63.2057 101.549 63.401 101.695 63.5469C101.846 63.6875 102.013 63.7865 102.195 63.8438C102.383 63.901 102.576 63.9297 102.773 63.9297C103.388 63.9297 103.875 63.8125 104.234 63.5781C104.594 63.3385 104.852 63.0182 105.008 62.6172C105.169 62.2109 105.25 61.7604 105.25 61.2656ZM110.078 58.3516V65H108.633V56.5469H110L110.078 58.3516ZM109.734 60.4531L109.133 60.4297C109.138 59.8516 109.224 59.3177 109.391 58.8281C109.557 58.3333 109.792 57.9036 110.094 57.5391C110.396 57.1745 110.755 56.8932 111.172 56.6953C111.594 56.4922 112.06 56.3906 112.57 56.3906C112.987 56.3906 113.362 56.4479 113.695 56.5625C114.029 56.6719 114.312 56.849 114.547 57.0938C114.786 57.3385 114.969 57.6562 115.094 58.0469C115.219 58.4323 115.281 58.9036 115.281 59.4609V65H113.828V59.4453C113.828 59.0026 113.763 58.6484 113.633 58.3828C113.503 58.112 113.312 57.9167 113.062 57.7969C112.812 57.6719 112.505 57.6094 112.141 57.6094C111.781 57.6094 111.453 57.6849 111.156 57.8359C110.865 57.987 110.612 58.1953 110.398 58.4609C110.19 58.7266 110.026 59.0312 109.906 59.375C109.792 59.7135 109.734 60.0729 109.734 60.4531ZM119.047 56.5469V65H117.594V56.5469H119.047ZM117.484 54.3047C117.484 54.0703 117.555 53.8724 117.695 53.7109C117.841 53.5495 118.055 53.4688 118.336 53.4688C118.612 53.4688 118.823 53.5495 118.969 53.7109C119.12 53.8724 119.195 54.0703 119.195 54.3047C119.195 54.5286 119.12 54.7214 118.969 54.8828C118.823 55.0391 118.612 55.1172 118.336 55.1172C118.055 55.1172 117.841 55.0391 117.695 54.8828C117.555 54.7214 117.484 54.5286 117.484 54.3047ZM124.75 63.9688C125.094 63.9688 125.411 63.8984 125.703 63.7578C125.995 63.6172 126.234 63.4245 126.422 63.1797C126.609 62.9297 126.716 62.6458 126.742 62.3281H128.117C128.091 62.8281 127.922 63.2943 127.609 63.7266C127.302 64.1536 126.898 64.5 126.398 64.7656C125.898 65.026 125.349 65.1562 124.75 65.1562C124.115 65.1562 123.56 65.0443 123.086 64.8203C122.617 64.5964 122.227 64.2891 121.914 63.8984C121.607 63.5078 121.375 63.0599 121.219 62.5547C121.068 62.0443 120.992 61.5052 120.992 60.9375V60.6094C120.992 60.0417 121.068 59.5052 121.219 59C121.375 58.4896 121.607 58.0391 121.914 57.6484C122.227 57.2578 122.617 56.9505 123.086 56.7266C123.56 56.5026 124.115 56.3906 124.75 56.3906C125.411 56.3906 125.99 56.526 126.484 56.7969C126.979 57.0625 127.367 57.4271 127.648 57.8906C127.935 58.349 128.091 58.8698 128.117 59.4531H126.742C126.716 59.1042 126.617 58.7891 126.445 58.5078C126.279 58.2266 126.049 58.0026 125.758 57.8359C125.471 57.6641 125.135 57.5781 124.75 57.5781C124.307 57.5781 123.935 57.6667 123.633 57.8438C123.336 58.0156 123.099 58.25 122.922 58.5469C122.75 58.8385 122.625 59.1641 122.547 59.5234C122.474 59.8776 122.438 60.2396 122.438 60.6094V60.9375C122.438 61.3073 122.474 61.6719 122.547 62.0312C122.62 62.3906 122.742 62.7161 122.914 63.0078C123.091 63.2995 123.328 63.5339 123.625 63.7109C123.927 63.8828 124.302 63.9688 124.75 63.9688ZM134.727 63.5547V59.2031C134.727 58.8698 134.659 58.5807 134.523 58.3359C134.393 58.0859 134.195 57.8932 133.93 57.7578C133.664 57.6224 133.336 57.5547 132.945 57.5547C132.581 57.5547 132.26 57.6172 131.984 57.7422C131.714 57.8672 131.5 58.0312 131.344 58.2344C131.193 58.4375 131.117 58.6562 131.117 58.8906H129.672C129.672 58.5885 129.75 58.2891 129.906 57.9922C130.062 57.6953 130.286 57.4271 130.578 57.1875C130.875 56.9427 131.229 56.75 131.641 56.6094C132.057 56.4635 132.521 56.3906 133.031 56.3906C133.646 56.3906 134.188 56.4948 134.656 56.7031C135.13 56.9115 135.5 57.2266 135.766 57.6484C136.036 58.0651 136.172 58.5885 136.172 59.2188V63.1562C136.172 63.4375 136.195 63.737 136.242 64.0547C136.294 64.3724 136.37 64.6458 136.469 64.875V65H134.961C134.888 64.8333 134.831 64.612 134.789 64.3359C134.747 64.0547 134.727 63.7943 134.727 63.5547ZM134.977 59.875L134.992 60.8906H133.531C133.12 60.8906 132.753 60.9245 132.43 60.9922C132.107 61.0547 131.836 61.151 131.617 61.2812C131.398 61.4115 131.232 61.5755 131.117 61.7734C131.003 61.9661 130.945 62.1927 130.945 62.4531C130.945 62.7188 131.005 62.9609 131.125 63.1797C131.245 63.3984 131.424 63.5729 131.664 63.7031C131.909 63.8281 132.208 63.8906 132.562 63.8906C133.005 63.8906 133.396 63.7969 133.734 63.6094C134.073 63.4219 134.341 63.1927 134.539 62.9219C134.742 62.651 134.852 62.388 134.867 62.1328L135.484 62.8281C135.448 63.0469 135.349 63.2891 135.188 63.5547C135.026 63.8203 134.81 64.0755 134.539 64.3203C134.273 64.5599 133.956 64.7604 133.586 64.9219C133.221 65.0781 132.81 65.1562 132.352 65.1562C131.779 65.1562 131.276 65.0443 130.844 64.8203C130.417 64.5964 130.083 64.2969 129.844 63.9219C129.609 63.5417 129.492 63.1172 129.492 62.6484C129.492 62.1953 129.581 61.7969 129.758 61.4531C129.935 61.1042 130.19 60.8151 130.523 60.5859C130.857 60.3516 131.258 60.1745 131.727 60.0547C132.195 59.9349 132.719 59.875 133.297 59.875H134.977ZM141.984 56.5469V57.6562H137.414V56.5469H141.984ZM138.961 54.4922H140.406V62.9062C140.406 63.1927 140.451 63.4089 140.539 63.5547C140.628 63.7005 140.742 63.7969 140.883 63.8438C141.023 63.8906 141.174 63.9141 141.336 63.9141C141.456 63.9141 141.581 63.9036 141.711 63.8828C141.846 63.8568 141.948 63.8359 142.016 63.8203L142.023 65C141.909 65.0365 141.758 65.0703 141.57 65.1016C141.388 65.138 141.167 65.1562 140.906 65.1562C140.552 65.1562 140.227 65.0859 139.93 64.9453C139.633 64.8047 139.396 64.5703 139.219 64.2422C139.047 63.9089 138.961 63.4609 138.961 62.8984V54.4922ZM145.25 56.5469V65H143.797V56.5469H145.25ZM143.688 54.3047C143.688 54.0703 143.758 53.8724 143.898 53.7109C144.044 53.5495 144.258 53.4688 144.539 53.4688C144.815 53.4688 145.026 53.5495 145.172 53.7109C145.323 53.8724 145.398 54.0703 145.398 54.3047C145.398 54.5286 145.323 54.7214 145.172 54.8828C145.026 55.0391 144.815 55.1172 144.539 55.1172C144.258 55.1172 144.044 55.0391 143.898 54.8828C143.758 54.7214 143.688 54.5286 143.688 54.3047ZM147.188 60.8672V60.6875C147.188 60.0781 147.276 59.513 147.453 58.9922C147.63 58.4661 147.885 58.0104 148.219 57.625C148.552 57.2344 148.956 56.9323 149.43 56.7188C149.904 56.5 150.435 56.3906 151.023 56.3906C151.617 56.3906 152.151 56.5 152.625 56.7188C153.104 56.9323 153.51 57.2344 153.844 57.625C154.182 58.0104 154.44 58.4661 154.617 58.9922C154.794 59.513 154.883 60.0781 154.883 60.6875V60.8672C154.883 61.4766 154.794 62.0417 154.617 62.5625C154.44 63.0833 154.182 63.5391 153.844 63.9297C153.51 64.3151 153.107 64.6172 152.633 64.8359C152.164 65.0495 151.633 65.1562 151.039 65.1562C150.445 65.1562 149.911 65.0495 149.438 64.8359C148.964 64.6172 148.557 64.3151 148.219 63.9297C147.885 63.5391 147.63 63.0833 147.453 62.5625C147.276 62.0417 147.188 61.4766 147.188 60.8672ZM148.633 60.6875V60.8672C148.633 61.2891 148.682 61.6875 148.781 62.0625C148.88 62.4323 149.029 62.7604 149.227 63.0469C149.43 63.3333 149.682 63.5599 149.984 63.7266C150.286 63.888 150.638 63.9688 151.039 63.9688C151.435 63.9688 151.781 63.888 152.078 63.7266C152.38 63.5599 152.63 63.3333 152.828 63.0469C153.026 62.7604 153.174 62.4323 153.273 62.0625C153.378 61.6875 153.43 61.2891 153.43 60.8672V60.6875C153.43 60.2708 153.378 59.8776 153.273 59.5078C153.174 59.1328 153.023 58.8021 152.82 58.5156C152.622 58.224 152.372 57.9948 152.07 57.8281C151.773 57.6615 151.424 57.5781 151.023 57.5781C150.628 57.5781 150.279 57.6615 149.977 57.8281C149.68 57.9948 149.43 58.224 149.227 58.5156C149.029 58.8021 148.88 59.1328 148.781 59.5078C148.682 59.8776 148.633 60.2708 148.633 60.6875ZM158.141 58.3516V65H156.695V56.5469H158.062L158.141 58.3516ZM157.797 60.4531L157.195 60.4297C157.201 59.8516 157.286 59.3177 157.453 58.8281C157.62 58.3333 157.854 57.9036 158.156 57.5391C158.458 57.1745 158.818 56.8932 159.234 56.6953C159.656 56.4922 160.122 56.3906 160.633 56.3906C161.049 56.3906 161.424 56.4479 161.758 56.5625C162.091 56.6719 162.375 56.849 162.609 57.0938C162.849 57.3385 163.031 57.6562 163.156 58.0469C163.281 58.4323 163.344 58.9036 163.344 59.4609V65H161.891V59.4453C161.891 59.0026 161.826 58.6484 161.695 58.3828C161.565 58.112 161.375 57.9167 161.125 57.7969C160.875 57.6719 160.568 57.6094 160.203 57.6094C159.844 57.6094 159.516 57.6849 159.219 57.8359C158.927 57.987 158.674 58.1953 158.461 58.4609C158.253 58.7266 158.089 59.0312 157.969 59.375C157.854 59.7135 157.797 60.0729 157.797 60.4531ZM174.492 63.5547V59.2031C174.492 58.8698 174.424 58.5807 174.289 58.3359C174.159 58.0859 173.961 57.8932 173.695 57.7578C173.43 57.6224 173.102 57.5547 172.711 57.5547C172.346 57.5547 172.026 57.6172 171.75 57.7422C171.479 57.8672 171.266 58.0312 171.109 58.2344C170.958 58.4375 170.883 58.6562 170.883 58.8906H169.438C169.438 58.5885 169.516 58.2891 169.672 57.9922C169.828 57.6953 170.052 57.4271 170.344 57.1875C170.641 56.9427 170.995 56.75 171.406 56.6094C171.823 56.4635 172.286 56.3906 172.797 56.3906C173.411 56.3906 173.953 56.4948 174.422 56.7031C174.896 56.9115 175.266 57.2266 175.531 57.6484C175.802 58.0651 175.938 58.5885 175.938 59.2188V63.1562C175.938 63.4375 175.961 63.737 176.008 64.0547C176.06 64.3724 176.135 64.6458 176.234 64.875V65H174.727C174.654 64.8333 174.596 64.612 174.555 64.3359C174.513 64.0547 174.492 63.7943 174.492 63.5547ZM174.742 59.875L174.758 60.8906H173.297C172.885 60.8906 172.518 60.9245 172.195 60.9922C171.872 61.0547 171.602 61.151 171.383 61.2812C171.164 61.4115 170.997 61.5755 170.883 61.7734C170.768 61.9661 170.711 62.1927 170.711 62.4531C170.711 62.7188 170.771 62.9609 170.891 63.1797C171.01 63.3984 171.19 63.5729 171.43 63.7031C171.674 63.8281 171.974 63.8906 172.328 63.8906C172.771 63.8906 173.161 63.7969 173.5 63.6094C173.839 63.4219 174.107 63.1927 174.305 62.9219C174.508 62.651 174.617 62.388 174.633 62.1328L175.25 62.8281C175.214 63.0469 175.115 63.2891 174.953 63.5547C174.792 63.8203 174.576 64.0755 174.305 64.3203C174.039 64.5599 173.721 64.7604 173.352 64.9219C172.987 65.0781 172.576 65.1562 172.117 65.1562C171.544 65.1562 171.042 65.0443 170.609 64.8203C170.182 64.5964 169.849 64.2969 169.609 63.9219C169.375 63.5417 169.258 63.1172 169.258 62.6484C169.258 62.1953 169.346 61.7969 169.523 61.4531C169.701 61.1042 169.956 60.8151 170.289 60.5859C170.622 60.3516 171.023 60.1745 171.492 60.0547C171.961 59.9349 172.484 59.875 173.062 59.875H174.742ZM179.656 58.3516V65H178.211V56.5469H179.578L179.656 58.3516ZM179.312 60.4531L178.711 60.4297C178.716 59.8516 178.802 59.3177 178.969 58.8281C179.135 58.3333 179.37 57.9036 179.672 57.5391C179.974 57.1745 180.333 56.8932 180.75 56.6953C181.172 56.4922 181.638 56.3906 182.148 56.3906C182.565 56.3906 182.94 56.4479 183.273 56.5625C183.607 56.6719 183.891 56.849 184.125 57.0938C184.365 57.3385 184.547 57.6562 184.672 58.0469C184.797 58.4323 184.859 58.9036 184.859 59.4609V65H183.406V59.4453C183.406 59.0026 183.341 58.6484 183.211 58.3828C183.081 58.112 182.891 57.9167 182.641 57.7969C182.391 57.6719 182.083 57.6094 181.719 57.6094C181.359 57.6094 181.031 57.6849 180.734 57.8359C180.443 57.987 180.19 58.1953 179.977 58.4609C179.768 58.7266 179.604 59.0312 179.484 59.375C179.37 59.7135 179.312 60.0729 179.312 60.4531ZM192.383 63.3594V53H193.836V65H192.508L192.383 63.3594ZM186.695 60.8672V60.7031C186.695 60.0573 186.773 59.4714 186.93 58.9453C187.091 58.4141 187.318 57.9583 187.609 57.5781C187.906 57.1979 188.258 56.9062 188.664 56.7031C189.076 56.4948 189.534 56.3906 190.039 56.3906C190.57 56.3906 191.034 56.4844 191.43 56.6719C191.831 56.8542 192.169 57.1224 192.445 57.4766C192.727 57.8255 192.948 58.2474 193.109 58.7422C193.271 59.237 193.383 59.7969 193.445 60.4219V61.1406C193.388 61.7604 193.276 62.3177 193.109 62.8125C192.948 63.3073 192.727 63.7292 192.445 64.0781C192.169 64.4271 191.831 64.6953 191.43 64.8828C191.029 65.0651 190.56 65.1562 190.023 65.1562C189.529 65.1562 189.076 65.0495 188.664 64.8359C188.258 64.6224 187.906 64.3229 187.609 63.9375C187.318 63.5521 187.091 63.099 186.93 62.5781C186.773 62.0521 186.695 61.4818 186.695 60.8672ZM188.148 60.7031V60.8672C188.148 61.2891 188.19 61.6849 188.273 62.0547C188.362 62.4245 188.497 62.75 188.68 63.0312C188.862 63.3125 189.094 63.5339 189.375 63.6953C189.656 63.8516 189.992 63.9297 190.383 63.9297C190.862 63.9297 191.255 63.8281 191.562 63.625C191.875 63.4219 192.125 63.1536 192.312 62.8203C192.5 62.487 192.646 62.125 192.75 61.7344V59.8516C192.688 59.5651 192.596 59.2891 192.477 59.0234C192.362 58.7526 192.211 58.513 192.023 58.3047C191.841 58.0911 191.615 57.9219 191.344 57.7969C191.078 57.6719 190.763 57.6094 190.398 57.6094C190.003 57.6094 189.661 57.6927 189.375 57.8594C189.094 58.0208 188.862 58.2448 188.68 58.5312C188.497 58.8125 188.362 59.1406 188.273 59.5156C188.19 59.8854 188.148 60.2812 188.148 60.7031ZM201.5 53V65H200.055V53H201.5ZM201.156 60.4531L200.555 60.4297C200.56 59.8516 200.646 59.3177 200.812 58.8281C200.979 58.3333 201.214 57.9036 201.516 57.5391C201.818 57.1745 202.177 56.8932 202.594 56.6953C203.016 56.4922 203.482 56.3906 203.992 56.3906C204.409 56.3906 204.784 56.4479 205.117 56.5625C205.451 56.6719 205.734 56.849 205.969 57.0938C206.208 57.3385 206.391 57.6562 206.516 58.0469C206.641 58.4323 206.703 58.9036 206.703 59.4609V65H205.25V59.4453C205.25 59.0026 205.185 58.6484 205.055 58.3828C204.924 58.112 204.734 57.9167 204.484 57.7969C204.234 57.6719 203.927 57.6094 203.562 57.6094C203.203 57.6094 202.875 57.6849 202.578 57.8359C202.286 57.987 202.034 58.1953 201.82 58.4609C201.612 58.7266 201.448 59.0312 201.328 59.375C201.214 59.7135 201.156 60.0729 201.156 60.4531ZM212.375 65.1562C211.786 65.1562 211.253 65.0573 210.773 64.8594C210.299 64.6562 209.891 64.3724 209.547 64.0078C209.208 63.6432 208.948 63.2109 208.766 62.7109C208.583 62.2109 208.492 61.6641 208.492 61.0703V60.7422C208.492 60.0547 208.594 59.4427 208.797 58.9062C209 58.3646 209.276 57.9062 209.625 57.5312C209.974 57.1562 210.37 56.8724 210.812 56.6797C211.255 56.487 211.714 56.3906 212.188 56.3906C212.792 56.3906 213.312 56.4948 213.75 56.7031C214.193 56.9115 214.555 57.2031 214.836 57.5781C215.117 57.9479 215.326 58.3854 215.461 58.8906C215.596 59.3906 215.664 59.9375 215.664 60.5312V61.1797H209.352V60H214.219V59.8906C214.198 59.5156 214.12 59.151 213.984 58.7969C213.854 58.4427 213.646 58.151 213.359 57.9219C213.073 57.6927 212.682 57.5781 212.188 57.5781C211.859 57.5781 211.557 57.6484 211.281 57.7891C211.005 57.9245 210.768 58.1276 210.57 58.3984C210.372 58.6693 210.219 59 210.109 59.3906C210 59.7812 209.945 60.2318 209.945 60.7422V61.0703C209.945 61.4714 210 61.849 210.109 62.2031C210.224 62.5521 210.388 62.8594 210.602 63.125C210.82 63.3906 211.083 63.599 211.391 63.75C211.703 63.901 212.057 63.9766 212.453 63.9766C212.964 63.9766 213.396 63.8724 213.75 63.6641C214.104 63.4557 214.414 63.1771 214.68 62.8281L215.555 63.5234C215.372 63.7995 215.141 64.0625 214.859 64.3125C214.578 64.5625 214.232 64.7656 213.82 64.9219C213.414 65.0781 212.932 65.1562 212.375 65.1562ZM218.922 53V65H217.469V53H218.922ZM222.688 58.1719V68.25H221.234V56.5469H222.562L222.688 58.1719ZM228.383 60.7031V60.8672C228.383 61.4818 228.31 62.0521 228.164 62.5781C228.018 63.099 227.805 63.5521 227.523 63.9375C227.247 64.3229 226.906 64.6224 226.5 64.8359C226.094 65.0495 225.628 65.1562 225.102 65.1562C224.565 65.1562 224.091 65.0677 223.68 64.8906C223.268 64.7135 222.919 64.4557 222.633 64.1172C222.346 63.7786 222.117 63.3724 221.945 62.8984C221.779 62.4245 221.664 61.8906 221.602 61.2969V60.4219C221.664 59.7969 221.781 59.237 221.953 58.7422C222.125 58.2474 222.352 57.8255 222.633 57.4766C222.919 57.1224 223.266 56.8542 223.672 56.6719C224.078 56.4844 224.547 56.3906 225.078 56.3906C225.609 56.3906 226.081 56.4948 226.492 56.7031C226.904 56.9062 227.25 57.1979 227.531 57.5781C227.812 57.9583 228.023 58.4141 228.164 58.9453C228.31 59.4714 228.383 60.0573 228.383 60.7031ZM226.93 60.8672V60.7031C226.93 60.2812 226.885 59.8854 226.797 59.5156C226.708 59.1406 226.57 58.8125 226.383 58.5312C226.201 58.2448 225.966 58.0208 225.68 57.8594C225.393 57.6927 225.052 57.6094 224.656 57.6094C224.292 57.6094 223.974 57.6719 223.703 57.7969C223.438 57.9219 223.211 58.0911 223.023 58.3047C222.836 58.513 222.682 58.7526 222.562 59.0234C222.448 59.2891 222.362 59.5651 222.305 59.8516V61.875C222.409 62.2396 222.555 62.5833 222.742 62.9062C222.93 63.224 223.18 63.4818 223.492 63.6797C223.805 63.8724 224.198 63.9688 224.672 63.9688C225.062 63.9688 225.398 63.888 225.68 63.7266C225.966 63.5599 226.201 63.3333 226.383 63.0469C226.57 62.7604 226.708 62.4323 226.797 62.0625C226.885 61.6875 226.93 61.2891 226.93 60.8672ZM236.352 65H234.906V55.6562C234.906 55.0469 235.016 54.5339 235.234 54.1172C235.458 53.6953 235.779 53.3776 236.195 53.1641C236.612 52.9453 237.107 52.8359 237.68 52.8359C237.846 52.8359 238.013 52.8464 238.18 52.8672C238.352 52.888 238.518 52.9193 238.68 52.9609L238.602 54.1406C238.492 54.1146 238.367 54.0964 238.227 54.0859C238.091 54.0755 237.956 54.0703 237.82 54.0703C237.513 54.0703 237.247 54.1328 237.023 54.2578C236.805 54.3776 236.638 54.5547 236.523 54.7891C236.409 55.0234 236.352 55.3125 236.352 55.6562V65ZM238.148 56.5469V57.6562H233.57V56.5469H238.148ZM241.203 57.875V65H239.758V56.5469H241.164L241.203 57.875ZM243.844 56.5L243.836 57.8438C243.716 57.8177 243.602 57.8021 243.492 57.7969C243.388 57.7865 243.268 57.7812 243.133 57.7812C242.799 57.7812 242.505 57.8333 242.25 57.9375C241.995 58.0417 241.779 58.1875 241.602 58.375C241.424 58.5625 241.284 58.7865 241.18 59.0469C241.081 59.3021 241.016 59.5833 240.984 59.8906L240.578 60.125C240.578 59.6146 240.628 59.1354 240.727 58.6875C240.831 58.2396 240.99 57.8438 241.203 57.5C241.417 57.151 241.688 56.8802 242.016 56.6875C242.349 56.4896 242.745 56.3906 243.203 56.3906C243.307 56.3906 243.427 56.4036 243.562 56.4297C243.698 56.4505 243.792 56.474 243.844 56.5ZM244.641 60.8672V60.6875C244.641 60.0781 244.729 59.513 244.906 58.9922C245.083 58.4661 245.339 58.0104 245.672 57.625C246.005 57.2344 246.409 56.9323 246.883 56.7188C247.357 56.5 247.888 56.3906 248.477 56.3906C249.07 56.3906 249.604 56.5 250.078 56.7188C250.557 56.9323 250.964 57.2344 251.297 57.625C251.635 58.0104 251.893 58.4661 252.07 58.9922C252.247 59.513 252.336 60.0781 252.336 60.6875V60.8672C252.336 61.4766 252.247 62.0417 252.07 62.5625C251.893 63.0833 251.635 63.5391 251.297 63.9297C250.964 64.3151 250.56 64.6172 250.086 64.8359C249.617 65.0495 249.086 65.1562 248.492 65.1562C247.898 65.1562 247.365 65.0495 246.891 64.8359C246.417 64.6172 246.01 64.3151 245.672 63.9297C245.339 63.5391 245.083 63.0833 244.906 62.5625C244.729 62.0417 244.641 61.4766 244.641 60.8672ZM246.086 60.6875V60.8672C246.086 61.2891 246.135 61.6875 246.234 62.0625C246.333 62.4323 246.482 62.7604 246.68 63.0469C246.883 63.3333 247.135 63.5599 247.438 63.7266C247.74 63.888 248.091 63.9688 248.492 63.9688C248.888 63.9688 249.234 63.888 249.531 63.7266C249.833 63.5599 250.083 63.3333 250.281 63.0469C250.479 62.7604 250.628 62.4323 250.727 62.0625C250.831 61.6875 250.883 61.2891 250.883 60.8672V60.6875C250.883 60.2708 250.831 59.8776 250.727 59.5078C250.628 59.1328 250.477 58.8021 250.273 58.5156C250.076 58.224 249.826 57.9948 249.523 57.8281C249.227 57.6615 248.878 57.5781 248.477 57.5781C248.081 57.5781 247.732 57.6615 247.43 57.8281C247.133 57.9948 246.883 58.224 246.68 58.5156C246.482 58.8021 246.333 59.1328 246.234 59.5078C246.135 59.8776 246.086 60.2708 246.086 60.6875ZM255.586 58.2266V65H254.133V56.5469H255.508L255.586 58.2266ZM255.289 60.4531L254.617 60.4297C254.622 59.8516 254.698 59.3177 254.844 58.8281C254.99 58.3333 255.206 57.9036 255.492 57.5391C255.779 57.1745 256.135 56.8932 256.562 56.6953C256.99 56.4922 257.484 56.3906 258.047 56.3906C258.443 56.3906 258.807 56.4479 259.141 56.5625C259.474 56.6719 259.763 56.8464 260.008 57.0859C260.253 57.3255 260.443 57.6328 260.578 58.0078C260.714 58.3828 260.781 58.8359 260.781 59.3672V65H259.336V59.4375C259.336 58.9948 259.26 58.6406 259.109 58.375C258.964 58.1094 258.755 57.9167 258.484 57.7969C258.214 57.6719 257.896 57.6094 257.531 57.6094C257.104 57.6094 256.747 57.6849 256.461 57.8359C256.174 57.987 255.945 58.1953 255.773 58.4609C255.602 58.7266 255.477 59.0312 255.398 59.375C255.326 59.7135 255.289 60.0729 255.289 60.4531ZM260.766 59.6562L259.797 59.9531C259.802 59.4896 259.878 59.0443 260.023 58.6172C260.174 58.1901 260.391 57.8099 260.672 57.4766C260.958 57.1432 261.31 56.8802 261.727 56.6875C262.143 56.4896 262.62 56.3906 263.156 56.3906C263.609 56.3906 264.01 56.4505 264.359 56.5703C264.714 56.6901 265.01 56.875 265.25 57.125C265.495 57.3698 265.68 57.6849 265.805 58.0703C265.93 58.4557 265.992 58.9141 265.992 59.4453V65H264.539V59.4297C264.539 58.9557 264.464 58.5885 264.312 58.3281C264.167 58.0625 263.958 57.8776 263.688 57.7734C263.422 57.6641 263.104 57.6094 262.734 57.6094C262.417 57.6094 262.135 57.6641 261.891 57.7734C261.646 57.8828 261.44 58.0339 261.273 58.2266C261.107 58.4141 260.979 58.6302 260.891 58.875C260.807 59.1198 260.766 59.3802 260.766 59.6562ZM80.2422 74V86H78.7969V74H80.2422ZM79.8984 81.4531L79.2969 81.4297C79.3021 80.8516 79.388 80.3177 79.5547 79.8281C79.7214 79.3333 79.9557 78.9036 80.2578 78.5391C80.5599 78.1745 80.9193 77.8932 81.3359 77.6953C81.7578 77.4922 82.224 77.3906 82.7344 77.3906C83.151 77.3906 83.526 77.4479 83.8594 77.5625C84.1927 77.6719 84.4766 77.849 84.7109 78.0938C84.9505 78.3385 85.1328 78.6562 85.2578 79.0469C85.3828 79.4323 85.4453 79.9036 85.4453 80.4609V86H83.9922V80.4453C83.9922 80.0026 83.9271 79.6484 83.7969 79.3828C83.6667 79.112 83.4766 78.9167 83.2266 78.7969C82.9766 78.6719 82.6693 78.6094 82.3047 78.6094C81.9453 78.6094 81.6172 78.6849 81.3203 78.8359C81.0286 78.987 80.776 79.1953 80.5625 79.4609C80.3542 79.7266 80.1901 80.0312 80.0703 80.375C79.9557 80.7135 79.8984 81.0729 79.8984 81.4531ZM89.1797 77.5469V86H87.7266V77.5469H89.1797ZM87.6172 75.3047C87.6172 75.0703 87.6875 74.8724 87.8281 74.7109C87.974 74.5495 88.1875 74.4688 88.4688 74.4688C88.7448 74.4688 88.9557 74.5495 89.1016 74.7109C89.2526 74.8724 89.3281 75.0703 89.3281 75.3047C89.3281 75.5286 89.2526 75.7214 89.1016 75.8828C88.9557 76.0391 88.7448 76.1172 88.4688 76.1172C88.1875 76.1172 87.974 76.0391 87.8281 75.8828C87.6875 75.7214 87.6172 75.5286 87.6172 75.3047ZM92.9375 79.2266V86H91.4844V77.5469H92.8594L92.9375 79.2266ZM92.6406 81.4531L91.9688 81.4297C91.974 80.8516 92.0495 80.3177 92.1953 79.8281C92.3411 79.3333 92.5573 78.9036 92.8438 78.5391C93.1302 78.1745 93.487 77.8932 93.9141 77.6953C94.3411 77.4922 94.8359 77.3906 95.3984 77.3906C95.7943 77.3906 96.1589 77.4479 96.4922 77.5625C96.8255 77.6719 97.1146 77.8464 97.3594 78.0859C97.6042 78.3255 97.7943 78.6328 97.9297 79.0078C98.0651 79.3828 98.1328 79.8359 98.1328 80.3672V86H96.6875V80.4375C96.6875 79.9948 96.612 79.6406 96.4609 79.375C96.3151 79.1094 96.1068 78.9167 95.8359 78.7969C95.5651 78.6719 95.2474 78.6094 94.8828 78.6094C94.4557 78.6094 94.099 78.6849 93.8125 78.8359C93.526 78.987 93.2969 79.1953 93.125 79.4609C92.9531 79.7266 92.8281 80.0312 92.75 80.375C92.6771 80.7135 92.6406 81.0729 92.6406 81.4531ZM98.1172 80.6562L97.1484 80.9531C97.1536 80.4896 97.2292 80.0443 97.375 79.6172C97.526 79.1901 97.7422 78.8099 98.0234 78.4766C98.3099 78.1432 98.6615 77.8802 99.0781 77.6875C99.4948 77.4896 99.9714 77.3906 100.508 77.3906C100.961 77.3906 101.362 77.4505 101.711 77.5703C102.065 77.6901 102.362 77.875 102.602 78.125C102.846 78.3698 103.031 78.6849 103.156 79.0703C103.281 79.4557 103.344 79.9141 103.344 80.4453V86H101.891V80.4297C101.891 79.9557 101.815 79.5885 101.664 79.3281C101.518 79.0625 101.31 78.8776 101.039 78.7734C100.773 78.6641 100.456 78.6094 100.086 78.6094C99.7682 78.6094 99.487 78.6641 99.2422 78.7734C98.9974 78.8828 98.7917 79.0339 98.625 79.2266C98.4583 79.4141 98.3307 79.6302 98.2422 79.875C98.1589 80.1198 98.1172 80.3802 98.1172 80.6562ZM105.555 85.2344C105.555 84.9896 105.63 84.7839 105.781 84.6172C105.938 84.4453 106.161 84.3594 106.453 84.3594C106.745 84.3594 106.966 84.4453 107.117 84.6172C107.273 84.7839 107.352 84.9896 107.352 85.2344C107.352 85.474 107.273 85.6771 107.117 85.8438C106.966 86.0104 106.745 86.0938 106.453 86.0938C106.161 86.0938 105.938 86.0104 105.781 85.8438C105.63 85.6771 105.555 85.474 105.555 85.2344ZM117.828 74.625V86H116.344V74.625H117.828ZM121.484 74.625V75.8594H112.695V74.625H121.484ZM124.398 74V86H122.953V74H124.398ZM124.055 81.4531L123.453 81.4297C123.458 80.8516 123.544 80.3177 123.711 79.8281C123.878 79.3333 124.112 78.9036 124.414 78.5391C124.716 78.1745 125.076 77.8932 125.492 77.6953C125.914 77.4922 126.38 77.3906 126.891 77.3906C127.307 77.3906 127.682 77.4479 128.016 77.5625C128.349 77.6719 128.633 77.849 128.867 78.0938C129.107 78.3385 129.289 78.6562 129.414 79.0469C129.539 79.4323 129.602 79.9036 129.602 80.4609V86H128.148V80.4453C128.148 80.0026 128.083 79.6484 127.953 79.3828C127.823 79.112 127.633 78.9167 127.383 78.7969C127.133 78.6719 126.826 78.6094 126.461 78.6094C126.102 78.6094 125.773 78.6849 125.477 78.8359C125.185 78.987 124.932 79.1953 124.719 79.4609C124.51 79.7266 124.346 80.0312 124.227 80.375C124.112 80.7135 124.055 81.0729 124.055 81.4531ZM136.75 84.5547V80.2031C136.75 79.8698 136.682 79.5807 136.547 79.3359C136.417 79.0859 136.219 78.8932 135.953 78.7578C135.688 78.6224 135.359 78.5547 134.969 78.5547C134.604 78.5547 134.284 78.6172 134.008 78.7422C133.737 78.8672 133.523 79.0312 133.367 79.2344C133.216 79.4375 133.141 79.6562 133.141 79.8906H131.695C131.695 79.5885 131.773 79.2891 131.93 78.9922C132.086 78.6953 132.31 78.4271 132.602 78.1875C132.898 77.9427 133.253 77.75 133.664 77.6094C134.081 77.4635 134.544 77.3906 135.055 77.3906C135.669 77.3906 136.211 77.4948 136.68 77.7031C137.154 77.9115 137.523 78.2266 137.789 78.6484C138.06 79.0651 138.195 79.5885 138.195 80.2188V84.1562C138.195 84.4375 138.219 84.737 138.266 85.0547C138.318 85.3724 138.393 85.6458 138.492 85.875V86H136.984C136.911 85.8333 136.854 85.612 136.812 85.3359C136.771 85.0547 136.75 84.7943 136.75 84.5547ZM137 80.875L137.016 81.8906H135.555C135.143 81.8906 134.776 81.9245 134.453 81.9922C134.13 82.0547 133.859 82.151 133.641 82.2812C133.422 82.4115 133.255 82.5755 133.141 82.7734C133.026 82.9661 132.969 83.1927 132.969 83.4531C132.969 83.7188 133.029 83.9609 133.148 84.1797C133.268 84.3984 133.448 84.5729 133.688 84.7031C133.932 84.8281 134.232 84.8906 134.586 84.8906C135.029 84.8906 135.419 84.7969 135.758 84.6094C136.096 84.4219 136.365 84.1927 136.562 83.9219C136.766 83.651 136.875 83.388 136.891 83.1328L137.508 83.8281C137.471 84.0469 137.372 84.2891 137.211 84.5547C137.049 84.8203 136.833 85.0755 136.562 85.3203C136.297 85.5599 135.979 85.7604 135.609 85.9219C135.245 86.0781 134.833 86.1562 134.375 86.1562C133.802 86.1562 133.299 86.0443 132.867 85.8203C132.44 85.5964 132.107 85.2969 131.867 84.9219C131.633 84.5417 131.516 84.1172 131.516 83.6484C131.516 83.1953 131.604 82.7969 131.781 82.4531C131.958 82.1042 132.214 81.8151 132.547 81.5859C132.88 81.3516 133.281 81.1745 133.75 81.0547C134.219 80.9349 134.742 80.875 135.32 80.875H137ZM141.914 79.3516V86H140.469V77.5469H141.836L141.914 79.3516ZM141.57 81.4531L140.969 81.4297C140.974 80.8516 141.06 80.3177 141.227 79.8281C141.393 79.3333 141.628 78.9036 141.93 78.5391C142.232 78.1745 142.591 77.8932 143.008 77.6953C143.43 77.4922 143.896 77.3906 144.406 77.3906C144.823 77.3906 145.198 77.4479 145.531 77.5625C145.865 77.6719 146.148 77.849 146.383 78.0938C146.622 78.3385 146.805 78.6562 146.93 79.0469C147.055 79.4323 147.117 79.9036 147.117 80.4609V86H145.664V80.4453C145.664 80.0026 145.599 79.6484 145.469 79.3828C145.339 79.112 145.148 78.9167 144.898 78.7969C144.648 78.6719 144.341 78.6094 143.977 78.6094C143.617 78.6094 143.289 78.6849 142.992 78.8359C142.701 78.987 142.448 79.1953 142.234 79.4609C142.026 79.7266 141.862 80.0312 141.742 80.375C141.628 80.7135 141.57 81.0729 141.57 81.4531ZM150.766 74V86H149.312V74H150.766ZM155.93 77.5469L152.242 81.4922L150.18 83.6328L150.062 82.0938L151.539 80.3281L154.164 77.5469H155.93ZM154.609 86L151.594 81.9688L152.344 80.6797L156.312 86H154.609ZM163.766 85.125L166.117 77.5469H167.664L164.273 87.3047C164.195 87.513 164.091 87.737 163.961 87.9766C163.836 88.2214 163.674 88.4531 163.477 88.6719C163.279 88.8906 163.039 89.0677 162.758 89.2031C162.482 89.3438 162.151 89.4141 161.766 89.4141C161.651 89.4141 161.505 89.3984 161.328 89.3672C161.151 89.3359 161.026 89.3099 160.953 89.2891L160.945 88.1172C160.987 88.1224 161.052 88.1276 161.141 88.1328C161.234 88.1432 161.299 88.1484 161.336 88.1484C161.664 88.1484 161.943 88.1042 162.172 88.0156C162.401 87.9323 162.594 87.7891 162.75 87.5859C162.911 87.388 163.049 87.1146 163.164 86.7656L163.766 85.125ZM162.039 77.5469L164.234 84.1094L164.609 85.6328L163.57 86.1641L160.461 77.5469H162.039ZM168.461 81.8672V81.6875C168.461 81.0781 168.549 80.513 168.727 79.9922C168.904 79.4661 169.159 79.0104 169.492 78.625C169.826 78.2344 170.229 77.9323 170.703 77.7188C171.177 77.5 171.708 77.3906 172.297 77.3906C172.891 77.3906 173.424 77.5 173.898 77.7188C174.378 77.9323 174.784 78.2344 175.117 78.625C175.456 79.0104 175.714 79.4661 175.891 79.9922C176.068 80.513 176.156 81.0781 176.156 81.6875V81.8672C176.156 82.4766 176.068 83.0417 175.891 83.5625C175.714 84.0833 175.456 84.5391 175.117 84.9297C174.784 85.3151 174.38 85.6172 173.906 85.8359C173.438 86.0495 172.906 86.1562 172.312 86.1562C171.719 86.1562 171.185 86.0495 170.711 85.8359C170.237 85.6172 169.831 85.3151 169.492 84.9297C169.159 84.5391 168.904 84.0833 168.727 83.5625C168.549 83.0417 168.461 82.4766 168.461 81.8672ZM169.906 81.6875V81.8672C169.906 82.2891 169.956 82.6875 170.055 83.0625C170.154 83.4323 170.302 83.7604 170.5 84.0469C170.703 84.3333 170.956 84.5599 171.258 84.7266C171.56 84.888 171.911 84.9688 172.312 84.9688C172.708 84.9688 173.055 84.888 173.352 84.7266C173.654 84.5599 173.904 84.3333 174.102 84.0469C174.299 83.7604 174.448 83.4323 174.547 83.0625C174.651 82.6875 174.703 82.2891 174.703 81.8672V81.6875C174.703 81.2708 174.651 80.8776 174.547 80.5078C174.448 80.1328 174.297 79.8021 174.094 79.5156C173.896 79.224 173.646 78.9948 173.344 78.8281C173.047 78.6615 172.698 78.5781 172.297 78.5781C171.901 78.5781 171.552 78.6615 171.25 78.8281C170.953 78.9948 170.703 79.224 170.5 79.5156C170.302 79.8021 170.154 80.1328 170.055 80.5078C169.956 80.8776 169.906 81.2708 169.906 81.6875ZM183.141 84.0469V77.5469H184.594V86H183.211L183.141 84.0469ZM183.414 82.2656L184.016 82.25C184.016 82.8125 183.956 83.3333 183.836 83.8125C183.721 84.2865 183.534 84.6979 183.273 85.0469C183.013 85.3958 182.672 85.6693 182.25 85.8672C181.828 86.0599 181.315 86.1562 180.711 86.1562C180.299 86.1562 179.922 86.0964 179.578 85.9766C179.24 85.8568 178.948 85.6719 178.703 85.4219C178.458 85.1719 178.268 84.8464 178.133 84.4453C178.003 84.0443 177.938 83.5625 177.938 83V77.5469H179.383V83.0156C179.383 83.3958 179.424 83.7109 179.508 83.9609C179.596 84.2057 179.714 84.401 179.859 84.5469C180.01 84.6875 180.177 84.7865 180.359 84.8438C180.547 84.901 180.74 84.9297 180.938 84.9297C181.552 84.9297 182.039 84.8125 182.398 84.5781C182.758 84.3385 183.016 84.0182 183.172 83.6172C183.333 83.2109 183.414 82.7604 183.414 82.2656ZM186.82 85.2344C186.82 84.9896 186.896 84.7839 187.047 84.6172C187.203 84.4453 187.427 84.3594 187.719 84.3594C188.01 84.3594 188.232 84.4453 188.383 84.6172C188.539 84.7839 188.617 84.9896 188.617 85.2344C188.617 85.474 188.539 85.6771 188.383 85.8438C188.232 86.0104 188.01 86.0938 187.719 86.0938C187.427 86.0938 187.203 86.0104 187.047 85.8438C186.896 85.6771 186.82 85.474 186.82 85.2344ZM191.242 74V75C191.242 75.3125 191.188 75.6432 191.078 75.9922C190.974 76.3359 190.82 76.6693 190.617 76.9922C190.414 77.3099 190.169 77.5885 189.883 77.8281L189.055 77.2578C189.299 76.9141 189.484 76.5625 189.609 76.2031C189.74 75.8385 189.805 75.4453 189.805 75.0234V74H191.242ZM193.641 74V75C193.641 75.3125 193.586 75.6432 193.477 75.9922C193.372 76.3359 193.219 76.6693 193.016 76.9922C192.812 77.3099 192.568 77.5885 192.281 77.8281L191.453 77.2578C191.698 76.9141 191.883 76.5625 192.008 76.2031C192.138 75.8385 192.203 75.4453 192.203 75.0234V74H193.641Z" fill="#1F1E1E"/>
<defs>
<clipPath id="clip0_4_1690">
<rect width="128" height="32" fill="white" transform="translate(72 1)"/>
</clipPath>
</defs>
</svg>
