<svg width="272" height="91" viewBox="0 0 272 91" fill="none" xmlns="http://www.w3.org/2000/svg">
<g clip-path="url(#clip0_4_1720)">
<path d="M96.1951 20.111C95.2585 20.4665 94.7903 21.0887 94.7903 21.7999C94.7903 22.4221 95.2585 22.9554 96.039 23.311C96.9756 23.6665 98.0683 23.9332 99.6293 23.9332C101.971 23.9332 103.688 23.5776 104.937 22.8665C106.185 22.1554 106.81 21.2665 106.966 20.111V19.5776H100.098C98.3805 19.5776 97.1317 19.7554 96.1951 20.111Z" fill="#3F3B3D"/>
<path d="M149.737 20.111C148.8 20.4665 148.332 21.0887 148.332 21.7999C148.332 22.4221 148.8 22.9554 149.581 23.311C150.517 23.6665 151.61 23.9332 153.171 23.9332C155.512 23.9332 157.229 23.5776 158.478 22.8665C159.727 22.1554 160.351 21.2665 160.507 20.111V19.5776H153.639C151.922 19.5776 150.673 19.7554 149.737 20.111Z" fill="#3F3B3D"/>
<path d="M199.376 15.7556C199.376 11.8444 193.912 8.82222 187.2 8.82222C186.576 8.82222 185.795 8.82222 185.171 8.91111C185.327 8.64444 185.327 8.28889 185.327 8.02222C185.327 4.82222 180.644 2.24444 175.18 2.24444C170.498 2.24444 166.439 4.02222 165.346 6.51111C163.629 6.24444 161.912 6.15556 160.195 6.15556C158.478 6.15556 156.761 6.33333 155.044 6.51111C154.107 5.35556 151.922 4.55556 149.58 4.55556C148.176 4.55556 146.927 4.82222 145.834 5.26667C145.054 2.77778 141.307 1 136.937 1C132.41 1 128.663 2.86667 128.039 5.35556C125.385 4.11111 121.795 3.4 118.205 3.4C113.678 3.4 109.62 4.46667 106.81 6.24444C104.78 5.97778 102.751 5.71111 100.566 5.71111C96.5073 5.71111 92.761 6.24444 89.4829 7.31111C87.922 6.86667 86.2049 6.6 84.3317 6.6C77.9317 6.6 72.7805 9.62222 72.7805 13.1778C72.7805 15.2222 74.3415 17 76.839 18.1556C76.839 18.5111 76.6829 18.9556 76.6829 19.4C76.5268 26.9556 87.2976 33 100.566 33C104.624 33 108.371 32.4667 111.493 31.4889C113.522 32.1111 116.02 32.4667 118.517 32.4667C123.824 32.4667 128.195 30.8667 130.849 28.4667C133.034 29.8 136 30.6 139.278 30.6C141.463 30.6 143.649 30.2444 145.366 29.6222C149.112 31.4889 154.107 32.6444 159.259 32.6444C164.254 32.6444 168.78 31.6667 172.371 29.9778C174.556 31.2222 177.522 31.9333 180.956 31.9333C187.824 31.9333 193.132 28.8222 193.132 25C193.132 23.9333 192.663 22.9556 192.039 22.0667C196.41 21.0889 199.376 18.6 199.376 15.7556ZM115.239 26.2444H112.273C110.556 26.2444 109.307 26.0667 108.527 25.6222C107.746 25.1778 107.434 24.6444 107.434 23.8444C105.405 25.5333 102.595 26.4222 98.8488 26.4222C95.8829 26.4222 93.5415 26.0667 91.8244 25.2667C90.1073 24.4667 89.1707 23.4 89.1707 22.0667C89.1707 20.5556 90.1073 19.4 91.9805 18.5111C93.8537 17.7111 96.6634 17.2667 100.254 17.2667H106.81V16.3778C106.81 15.5778 106.341 14.8667 105.249 14.4222C104.156 13.9778 102.751 13.7111 101.034 13.7111C99.4732 13.7111 98.0683 13.8889 97.1317 14.3333C96.039 14.6889 95.4146 15.2222 95.2585 15.9333H89.7951C90.1073 14.4222 91.2 13.2667 93.2293 12.4667C95.2585 11.6667 97.9122 11.2222 101.19 11.2222C104.624 11.2222 107.434 11.6667 109.307 12.6444C111.18 13.5333 112.117 14.9556 112.117 16.6444V22.4222C112.117 23.1333 112.741 23.4889 113.834 23.4889L115.239 23.4C115.239 23.4889 115.239 26.2444 115.239 26.2444ZM131.473 14.3333H128.976C126.634 14.3333 125.073 14.7778 123.98 15.5778C122.888 16.3778 122.42 17.5333 122.42 18.7778V26.1556H116.956V11.4H121.951L122.576 13.6222C123.356 12.9111 124.293 12.3778 125.541 12.0222C126.79 11.6667 128.351 11.4 130.38 11.4H131.629C131.473 11.4 131.473 14.3333 131.473 14.3333ZM139.434 26.2444H133.971V11.4H139.434V26.2444ZM139.122 8.64444C138.498 9 137.717 9.17778 136.78 9.17778C135.844 9.17778 135.063 9 134.439 8.64444C133.815 8.28889 133.502 7.84444 133.502 7.31111C133.502 6.77778 133.815 6.33333 134.439 6.06667C135.063 5.71111 135.844 5.53333 136.78 5.53333C137.717 5.44444 138.498 5.62222 139.122 6.06667C139.746 6.42222 140.059 6.86667 140.059 7.4C140.059 7.93333 139.746 8.28889 139.122 8.64444ZM168.624 26.2444H165.659C163.941 26.2444 162.693 26.0667 161.912 25.6222C161.132 25.1778 160.82 24.6444 160.82 23.8444C158.79 25.5333 155.98 26.4222 152.234 26.4222C149.268 26.4222 146.927 26.0667 145.21 25.2667C143.493 24.4667 142.556 23.4 142.556 22.0667C142.556 20.5556 143.493 19.4 145.366 18.5111C147.239 17.7111 150.049 17.2667 153.639 17.2667H160.195V16.3778C160.195 15.5778 159.727 14.8667 158.634 14.4222C157.541 13.9778 156.137 13.7111 154.42 13.7111C152.859 13.7111 151.454 13.8889 150.517 14.3333C149.424 14.6889 148.8 15.2222 148.644 15.9333H143.18C143.493 14.4222 144.585 13.2667 146.615 12.4667C148.644 11.6667 151.298 11.2222 154.576 11.2222C158.01 11.2222 160.82 11.6667 162.693 12.6444C164.566 13.5333 165.502 14.9556 165.502 16.6444V22.4222C165.502 23.1333 166.127 23.4889 167.22 23.4889L168.624 23.4C168.624 23.4889 168.624 26.2444 168.624 26.2444ZM177.054 26.2444H171.59V5.97778H177.054V26.2444Z" fill="#3F3B3D"/>
</g>
<path d="M32.3516 53V54.0625L32.1172 56.8516H31.25V54.1328V53H32.3516ZM34.4609 53V54.0625L34.2266 56.8516H33.3594V54.0781V53H34.4609ZM40.6797 59.6797H37.7969L37.7812 58.4688H40.3984C40.8307 58.4688 41.2083 58.3958 41.5312 58.25C41.8542 58.1042 42.1042 57.8958 42.2812 57.625C42.4635 57.349 42.5547 57.0208 42.5547 56.6406C42.5547 56.224 42.474 55.8854 42.3125 55.625C42.1562 55.3594 41.9141 55.1667 41.5859 55.0469C41.263 54.9219 40.8516 54.8594 40.3516 54.8594H38.1328V65H36.625V53.625H40.3516C40.9349 53.625 41.4557 53.6849 41.9141 53.8047C42.3724 53.9193 42.7604 54.1016 43.0781 54.3516C43.401 54.5964 43.6458 54.9089 43.8125 55.2891C43.9792 55.6693 44.0625 56.125 44.0625 56.6562C44.0625 57.125 43.9427 57.5495 43.7031 57.9297C43.4635 58.3047 43.1302 58.612 42.7031 58.8516C42.2812 59.0911 41.7865 59.2448 41.2188 59.3125L40.6797 59.6797ZM40.6094 65H37.2031L38.0547 63.7734H40.6094C41.0885 63.7734 41.4948 63.6901 41.8281 63.5234C42.1667 63.3568 42.4245 63.1224 42.6016 62.8203C42.7786 62.513 42.8672 62.151 42.8672 61.7344C42.8672 61.3125 42.7917 60.9479 42.6406 60.6406C42.4896 60.3333 42.2526 60.0964 41.9297 59.9297C41.6068 59.763 41.1901 59.6797 40.6797 59.6797H38.5312L38.5469 58.4688H41.4844L41.8047 58.9062C42.3516 58.9531 42.8151 59.1094 43.1953 59.375C43.5755 59.6354 43.8646 59.9688 44.0625 60.375C44.2656 60.7812 44.3672 61.2292 44.3672 61.7188C44.3672 62.4271 44.2109 63.026 43.8984 63.5156C43.5911 64 43.1562 64.3698 42.5938 64.625C42.0312 64.875 41.3698 65 40.6094 65ZM49.8828 65.1562C49.2943 65.1562 48.7604 65.0573 48.2812 64.8594C47.8073 64.6562 47.3984 64.3724 47.0547 64.0078C46.7161 63.6432 46.4557 63.2109 46.2734 62.7109C46.0911 62.2109 46 61.6641 46 61.0703V60.7422C46 60.0547 46.1016 59.4427 46.3047 58.9062C46.5078 58.3646 46.7839 57.9062 47.1328 57.5312C47.4818 57.1562 47.8776 56.8724 48.3203 56.6797C48.763 56.487 49.2214 56.3906 49.6953 56.3906C50.2995 56.3906 50.8203 56.4948 51.2578 56.7031C51.7005 56.9115 52.0625 57.2031 52.3438 57.5781C52.625 57.9479 52.8333 58.3854 52.9688 58.8906C53.1042 59.3906 53.1719 59.9375 53.1719 60.5312V61.1797H46.8594V60H51.7266V59.8906C51.7057 59.5156 51.6276 59.151 51.4922 58.7969C51.362 58.4427 51.1536 58.151 50.8672 57.9219C50.5807 57.6927 50.1901 57.5781 49.6953 57.5781C49.3672 57.5781 49.0651 57.6484 48.7891 57.7891C48.513 57.9245 48.276 58.1276 48.0781 58.3984C47.8802 58.6693 47.7266 59 47.6172 59.3906C47.5078 59.7812 47.4531 60.2318 47.4531 60.7422V61.0703C47.4531 61.4714 47.5078 61.849 47.6172 62.2031C47.7318 62.5521 47.8958 62.8594 48.1094 63.125C48.3281 63.3906 48.5911 63.599 48.8984 63.75C49.2109 63.901 49.5651 63.9766 49.9609 63.9766C50.4714 63.9766 50.9036 63.8724 51.2578 63.6641C51.612 63.4557 51.9219 63.1771 52.1875 62.8281L53.0625 63.5234C52.8802 63.7995 52.6484 64.0625 52.3672 64.3125C52.0859 64.5625 51.7396 64.7656 51.3281 64.9219C50.9219 65.0781 50.4401 65.1562 49.8828 65.1562ZM59.7812 62.7578C59.7812 62.5495 59.7344 62.3568 59.6406 62.1797C59.5521 61.9974 59.3672 61.8333 59.0859 61.6875C58.8099 61.5365 58.3932 61.4062 57.8359 61.2969C57.3672 61.1979 56.9427 61.0807 56.5625 60.9453C56.1875 60.8099 55.8672 60.6458 55.6016 60.4531C55.3411 60.2604 55.1406 60.0339 55 59.7734C54.8594 59.513 54.7891 59.2083 54.7891 58.8594C54.7891 58.526 54.862 58.2109 55.0078 57.9141C55.1589 57.6172 55.3698 57.3542 55.6406 57.125C55.9167 56.8958 56.2474 56.7161 56.6328 56.5859C57.0182 56.4557 57.4479 56.3906 57.9219 56.3906C58.599 56.3906 59.1771 56.5104 59.6562 56.75C60.1354 56.9896 60.5026 57.3099 60.7578 57.7109C61.013 58.1068 61.1406 58.5469 61.1406 59.0312H59.6953C59.6953 58.7969 59.625 58.5703 59.4844 58.3516C59.349 58.1276 59.1484 57.9427 58.8828 57.7969C58.6224 57.651 58.3021 57.5781 57.9219 57.5781C57.5208 57.5781 57.1953 57.6406 56.9453 57.7656C56.7005 57.8854 56.5208 58.0391 56.4062 58.2266C56.2969 58.4141 56.2422 58.612 56.2422 58.8203C56.2422 58.9766 56.2682 59.1172 56.3203 59.2422C56.3776 59.362 56.4766 59.474 56.6172 59.5781C56.7578 59.6771 56.9557 59.7708 57.2109 59.8594C57.4661 59.9479 57.7917 60.0365 58.1875 60.125C58.8802 60.2812 59.4505 60.4688 59.8984 60.6875C60.3464 60.9062 60.6797 61.1745 60.8984 61.4922C61.1172 61.8099 61.2266 62.1953 61.2266 62.6484C61.2266 63.0182 61.1484 63.3568 60.9922 63.6641C60.8411 63.9714 60.6198 64.237 60.3281 64.4609C60.0417 64.6797 59.6979 64.8516 59.2969 64.9766C58.901 65.0964 58.4557 65.1562 57.9609 65.1562C57.2161 65.1562 56.5859 65.0234 56.0703 64.7578C55.5547 64.4922 55.1641 64.1484 54.8984 63.7266C54.6328 63.3047 54.5 62.8594 54.5 62.3906H55.9531C55.974 62.7865 56.0885 63.1016 56.2969 63.3359C56.5052 63.5651 56.7604 63.7292 57.0625 63.8281C57.3646 63.9219 57.6641 63.9688 57.9609 63.9688C58.3568 63.9688 58.6875 63.9167 58.9531 63.8125C59.224 63.7083 59.4297 63.5651 59.5703 63.3828C59.7109 63.2005 59.7812 62.9922 59.7812 62.7578ZM66.6641 56.5469V57.6562H62.0938V56.5469H66.6641ZM63.6406 54.4922H65.0859V62.9062C65.0859 63.1927 65.1302 63.4089 65.2188 63.5547C65.3073 63.7005 65.4219 63.7969 65.5625 63.8438C65.7031 63.8906 65.8542 63.9141 66.0156 63.9141C66.1354 63.9141 66.2604 63.9036 66.3906 63.8828C66.526 63.8568 66.6276 63.8359 66.6953 63.8203L66.7031 65C66.5885 65.0365 66.4375 65.0703 66.25 65.1016C66.0677 65.138 65.8464 65.1562 65.5859 65.1562C65.2318 65.1562 64.9062 65.0859 64.6094 64.9453C64.3125 64.8047 64.0755 64.5703 63.8984 64.2422C63.7266 63.9089 63.6406 63.4609 63.6406 62.8984V54.4922ZM75.8672 56.5469V57.6562H71.2969V56.5469H75.8672ZM72.8438 54.4922H74.2891V62.9062C74.2891 63.1927 74.3333 63.4089 74.4219 63.5547C74.5104 63.7005 74.625 63.7969 74.7656 63.8438C74.9062 63.8906 75.0573 63.9141 75.2188 63.9141C75.3385 63.9141 75.4635 63.9036 75.5938 63.8828C75.7292 63.8568 75.8307 63.8359 75.8984 63.8203L75.9062 65C75.7917 65.0365 75.6406 65.0703 75.4531 65.1016C75.2708 65.138 75.0495 65.1562 74.7891 65.1562C74.4349 65.1562 74.1094 65.0859 73.8125 64.9453C73.5156 64.8047 73.2786 64.5703 73.1016 64.2422C72.9297 63.9089 72.8438 63.4609 72.8438 62.8984V54.4922ZM81.0703 65.1562C80.4818 65.1562 79.9479 65.0573 79.4688 64.8594C78.9948 64.6562 78.5859 64.3724 78.2422 64.0078C77.9036 63.6432 77.6432 63.2109 77.4609 62.7109C77.2786 62.2109 77.1875 61.6641 77.1875 61.0703V60.7422C77.1875 60.0547 77.2891 59.4427 77.4922 58.9062C77.6953 58.3646 77.9714 57.9062 78.3203 57.5312C78.6693 57.1562 79.0651 56.8724 79.5078 56.6797C79.9505 56.487 80.4089 56.3906 80.8828 56.3906C81.487 56.3906 82.0078 56.4948 82.4453 56.7031C82.888 56.9115 83.25 57.2031 83.5312 57.5781C83.8125 57.9479 84.0208 58.3854 84.1562 58.8906C84.2917 59.3906 84.3594 59.9375 84.3594 60.5312V61.1797H78.0469V60H82.9141V59.8906C82.8932 59.5156 82.8151 59.151 82.6797 58.7969C82.5495 58.4427 82.3411 58.151 82.0547 57.9219C81.7682 57.6927 81.3776 57.5781 80.8828 57.5781C80.5547 57.5781 80.2526 57.6484 79.9766 57.7891C79.7005 57.9245 79.4635 58.1276 79.2656 58.3984C79.0677 58.6693 78.9141 59 78.8047 59.3906C78.6953 59.7812 78.6406 60.2318 78.6406 60.7422V61.0703C78.6406 61.4714 78.6953 61.849 78.8047 62.2031C78.9193 62.5521 79.0833 62.8594 79.2969 63.125C79.5156 63.3906 79.7786 63.599 80.0859 63.75C80.3984 63.901 80.7526 63.9766 81.1484 63.9766C81.6589 63.9766 82.0911 63.8724 82.4453 63.6641C82.7995 63.4557 83.1094 63.1771 83.375 62.8281L84.25 63.5234C84.0677 63.7995 83.8359 64.0625 83.5547 64.3125C83.2734 64.5625 82.9271 64.7656 82.5156 64.9219C82.1094 65.0781 81.6276 65.1562 81.0703 65.1562ZM87.4844 58.2266V65H86.0312V56.5469H87.4062L87.4844 58.2266ZM87.1875 60.4531L86.5156 60.4297C86.5208 59.8516 86.5964 59.3177 86.7422 58.8281C86.888 58.3333 87.1042 57.9036 87.3906 57.5391C87.6771 57.1745 88.0339 56.8932 88.4609 56.6953C88.888 56.4922 89.3828 56.3906 89.9453 56.3906C90.3411 56.3906 90.7057 56.4479 91.0391 56.5625C91.3724 56.6719 91.6615 56.8464 91.9062 57.0859C92.151 57.3255 92.3411 57.6328 92.4766 58.0078C92.612 58.3828 92.6797 58.8359 92.6797 59.3672V65H91.2344V59.4375C91.2344 58.9948 91.1589 58.6406 91.0078 58.375C90.862 58.1094 90.6536 57.9167 90.3828 57.7969C90.112 57.6719 89.7943 57.6094 89.4297 57.6094C89.0026 57.6094 88.6458 57.6849 88.3594 57.8359C88.0729 57.987 87.8438 58.1953 87.6719 58.4609C87.5 58.7266 87.375 59.0312 87.2969 59.375C87.224 59.7135 87.1875 60.0729 87.1875 60.4531ZM92.6641 59.6562L91.6953 59.9531C91.7005 59.4896 91.776 59.0443 91.9219 58.6172C92.0729 58.1901 92.2891 57.8099 92.5703 57.4766C92.8568 57.1432 93.2083 56.8802 93.625 56.6875C94.0417 56.4896 94.5182 56.3906 95.0547 56.3906C95.5078 56.3906 95.9089 56.4505 96.2578 56.5703C96.612 56.6901 96.9089 56.875 97.1484 57.125C97.3932 57.3698 97.5781 57.6849 97.7031 58.0703C97.8281 58.4557 97.8906 58.9141 97.8906 59.4453V65H96.4375V59.4297C96.4375 58.9557 96.362 58.5885 96.2109 58.3281C96.0651 58.0625 95.8568 57.8776 95.5859 57.7734C95.3203 57.6641 95.0026 57.6094 94.6328 57.6094C94.3151 57.6094 94.0339 57.6641 93.7891 57.7734C93.5443 57.8828 93.3385 58.0339 93.1719 58.2266C93.0052 58.4141 92.8776 58.6302 92.7891 58.875C92.7057 59.1198 92.6641 59.3802 92.6641 59.6562ZM101.523 58.1719V68.25H100.07V56.5469H101.398L101.523 58.1719ZM107.219 60.7031V60.8672C107.219 61.4818 107.146 62.0521 107 62.5781C106.854 63.099 106.641 63.5521 106.359 63.9375C106.083 64.3229 105.742 64.6224 105.336 64.8359C104.93 65.0495 104.464 65.1562 103.938 65.1562C103.401 65.1562 102.927 65.0677 102.516 64.8906C102.104 64.7135 101.755 64.4557 101.469 64.1172C101.182 63.7786 100.953 63.3724 100.781 62.8984C100.615 62.4245 100.5 61.8906 100.438 61.2969V60.4219C100.5 59.7969 100.617 59.237 100.789 58.7422C100.961 58.2474 101.188 57.8255 101.469 57.4766C101.755 57.1224 102.102 56.8542 102.508 56.6719C102.914 56.4844 103.383 56.3906 103.914 56.3906C104.445 56.3906 104.917 56.4948 105.328 56.7031C105.74 56.9062 106.086 57.1979 106.367 57.5781C106.648 57.9583 106.859 58.4141 107 58.9453C107.146 59.4714 107.219 60.0573 107.219 60.7031ZM105.766 60.8672V60.7031C105.766 60.2812 105.721 59.8854 105.633 59.5156C105.544 59.1406 105.406 58.8125 105.219 58.5312C105.036 58.2448 104.802 58.0208 104.516 57.8594C104.229 57.6927 103.888 57.6094 103.492 57.6094C103.128 57.6094 102.81 57.6719 102.539 57.7969C102.273 57.9219 102.047 58.0911 101.859 58.3047C101.672 58.513 101.518 58.7526 101.398 59.0234C101.284 59.2891 101.198 59.5651 101.141 59.8516V61.875C101.245 62.2396 101.391 62.5833 101.578 62.9062C101.766 63.224 102.016 63.4818 102.328 63.6797C102.641 63.8724 103.034 63.9688 103.508 63.9688C103.898 63.9688 104.234 63.888 104.516 63.7266C104.802 63.5599 105.036 63.3333 105.219 63.0469C105.406 62.7604 105.544 62.4323 105.633 62.0625C105.721 61.6875 105.766 61.2891 105.766 60.8672ZM110.633 53V65H109.18V53H110.633ZM117.938 63.5547V59.2031C117.938 58.8698 117.87 58.5807 117.734 58.3359C117.604 58.0859 117.406 57.8932 117.141 57.7578C116.875 57.6224 116.547 57.5547 116.156 57.5547C115.792 57.5547 115.471 57.6172 115.195 57.7422C114.924 57.8672 114.711 58.0312 114.555 58.2344C114.404 58.4375 114.328 58.6562 114.328 58.8906H112.883C112.883 58.5885 112.961 58.2891 113.117 57.9922C113.273 57.6953 113.497 57.4271 113.789 57.1875C114.086 56.9427 114.44 56.75 114.852 56.6094C115.268 56.4635 115.732 56.3906 116.242 56.3906C116.857 56.3906 117.398 56.4948 117.867 56.7031C118.341 56.9115 118.711 57.2266 118.977 57.6484C119.247 58.0651 119.383 58.5885 119.383 59.2188V63.1562C119.383 63.4375 119.406 63.737 119.453 64.0547C119.505 64.3724 119.581 64.6458 119.68 64.875V65H118.172C118.099 64.8333 118.042 64.612 118 64.3359C117.958 64.0547 117.938 63.7943 117.938 63.5547ZM118.188 59.875L118.203 60.8906H116.742C116.331 60.8906 115.964 60.9245 115.641 60.9922C115.318 61.0547 115.047 61.151 114.828 61.2812C114.609 61.4115 114.443 61.5755 114.328 61.7734C114.214 61.9661 114.156 62.1927 114.156 62.4531C114.156 62.7188 114.216 62.9609 114.336 63.1797C114.456 63.3984 114.635 63.5729 114.875 63.7031C115.12 63.8281 115.419 63.8906 115.773 63.8906C116.216 63.8906 116.607 63.7969 116.945 63.6094C117.284 63.4219 117.552 63.1927 117.75 62.9219C117.953 62.651 118.062 62.388 118.078 62.1328L118.695 62.8281C118.659 63.0469 118.56 63.2891 118.398 63.5547C118.237 63.8203 118.021 64.0755 117.75 64.3203C117.484 64.5599 117.167 64.7604 116.797 64.9219C116.432 65.0781 116.021 65.1562 115.562 65.1562C114.99 65.1562 114.487 65.0443 114.055 64.8203C113.628 64.5964 113.294 64.2969 113.055 63.9219C112.82 63.5417 112.703 63.1172 112.703 62.6484C112.703 62.1953 112.792 61.7969 112.969 61.4531C113.146 61.1042 113.401 60.8151 113.734 60.5859C114.068 60.3516 114.469 60.1745 114.938 60.0547C115.406 59.9349 115.93 59.875 116.508 59.875H118.188ZM125.195 56.5469V57.6562H120.625V56.5469H125.195ZM122.172 54.4922H123.617V62.9062C123.617 63.1927 123.661 63.4089 123.75 63.5547C123.839 63.7005 123.953 63.7969 124.094 63.8438C124.234 63.8906 124.385 63.9141 124.547 63.9141C124.667 63.9141 124.792 63.9036 124.922 63.8828C125.057 63.8568 125.159 63.8359 125.227 63.8203L125.234 65C125.12 65.0365 124.969 65.0703 124.781 65.1016C124.599 65.138 124.378 65.1562 124.117 65.1562C123.763 65.1562 123.438 65.0859 123.141 64.9453C122.844 64.8047 122.607 64.5703 122.43 64.2422C122.258 63.9089 122.172 63.4609 122.172 62.8984V54.4922ZM130.398 65.1562C129.81 65.1562 129.276 65.0573 128.797 64.8594C128.323 64.6562 127.914 64.3724 127.57 64.0078C127.232 63.6432 126.971 63.2109 126.789 62.7109C126.607 62.2109 126.516 61.6641 126.516 61.0703V60.7422C126.516 60.0547 126.617 59.4427 126.82 58.9062C127.023 58.3646 127.299 57.9062 127.648 57.5312C127.997 57.1562 128.393 56.8724 128.836 56.6797C129.279 56.487 129.737 56.3906 130.211 56.3906C130.815 56.3906 131.336 56.4948 131.773 56.7031C132.216 56.9115 132.578 57.2031 132.859 57.5781C133.141 57.9479 133.349 58.3854 133.484 58.8906C133.62 59.3906 133.688 59.9375 133.688 60.5312V61.1797H127.375V60H132.242V59.8906C132.221 59.5156 132.143 59.151 132.008 58.7969C131.878 58.4427 131.669 58.151 131.383 57.9219C131.096 57.6927 130.706 57.5781 130.211 57.5781C129.883 57.5781 129.581 57.6484 129.305 57.7891C129.029 57.9245 128.792 58.1276 128.594 58.3984C128.396 58.6693 128.242 59 128.133 59.3906C128.023 59.7812 127.969 60.2318 127.969 60.7422V61.0703C127.969 61.4714 128.023 61.849 128.133 62.2031C128.247 62.5521 128.411 62.8594 128.625 63.125C128.844 63.3906 129.107 63.599 129.414 63.75C129.727 63.901 130.081 63.9766 130.477 63.9766C130.987 63.9766 131.419 63.8724 131.773 63.6641C132.128 63.4557 132.438 63.1771 132.703 62.8281L133.578 63.5234C133.396 63.7995 133.164 64.0625 132.883 64.3125C132.602 64.5625 132.255 64.7656 131.844 64.9219C131.438 65.0781 130.956 65.1562 130.398 65.1562ZM140.297 62.7578C140.297 62.5495 140.25 62.3568 140.156 62.1797C140.068 61.9974 139.883 61.8333 139.602 61.6875C139.326 61.5365 138.909 61.4062 138.352 61.2969C137.883 61.1979 137.458 61.0807 137.078 60.9453C136.703 60.8099 136.383 60.6458 136.117 60.4531C135.857 60.2604 135.656 60.0339 135.516 59.7734C135.375 59.513 135.305 59.2083 135.305 58.8594C135.305 58.526 135.378 58.2109 135.523 57.9141C135.674 57.6172 135.885 57.3542 136.156 57.125C136.432 56.8958 136.763 56.7161 137.148 56.5859C137.534 56.4557 137.964 56.3906 138.438 56.3906C139.115 56.3906 139.693 56.5104 140.172 56.75C140.651 56.9896 141.018 57.3099 141.273 57.7109C141.529 58.1068 141.656 58.5469 141.656 59.0312H140.211C140.211 58.7969 140.141 58.5703 140 58.3516C139.865 58.1276 139.664 57.9427 139.398 57.7969C139.138 57.651 138.818 57.5781 138.438 57.5781C138.036 57.5781 137.711 57.6406 137.461 57.7656C137.216 57.8854 137.036 58.0391 136.922 58.2266C136.812 58.4141 136.758 58.612 136.758 58.8203C136.758 58.9766 136.784 59.1172 136.836 59.2422C136.893 59.362 136.992 59.474 137.133 59.5781C137.273 59.6771 137.471 59.7708 137.727 59.8594C137.982 59.9479 138.307 60.0365 138.703 60.125C139.396 60.2812 139.966 60.4688 140.414 60.6875C140.862 60.9062 141.195 61.1745 141.414 61.4922C141.633 61.8099 141.742 62.1953 141.742 62.6484C141.742 63.0182 141.664 63.3568 141.508 63.6641C141.357 63.9714 141.135 64.237 140.844 64.4609C140.557 64.6797 140.214 64.8516 139.812 64.9766C139.417 65.0964 138.971 65.1562 138.477 65.1562C137.732 65.1562 137.102 65.0234 136.586 64.7578C136.07 64.4922 135.68 64.1484 135.414 63.7266C135.148 63.3047 135.016 62.8594 135.016 62.3906H136.469C136.49 62.7865 136.604 63.1016 136.812 63.3359C137.021 63.5651 137.276 63.7292 137.578 63.8281C137.88 63.9219 138.18 63.9688 138.477 63.9688C138.872 63.9688 139.203 63.9167 139.469 63.8125C139.74 63.7083 139.945 63.5651 140.086 63.3828C140.227 63.2005 140.297 62.9922 140.297 62.7578ZM149.711 58.6875L151.414 57.4766C151.742 57.2526 151.995 57.0286 152.172 56.8047C152.354 56.5755 152.445 56.263 152.445 55.8672C152.445 55.5599 152.326 55.2812 152.086 55.0312C151.846 54.776 151.508 54.6484 151.07 54.6484C150.768 54.6484 150.513 54.7188 150.305 54.8594C150.096 55 149.94 55.1875 149.836 55.4219C149.732 55.651 149.68 55.9036 149.68 56.1797C149.68 56.4141 149.737 56.6562 149.852 56.9062C149.966 57.1562 150.125 57.4167 150.328 57.6875C150.531 57.9583 150.763 58.2448 151.023 58.5469L156.406 65H154.672L150.258 59.7188C149.867 59.2604 149.518 58.8411 149.211 58.4609C148.904 58.0755 148.661 57.7031 148.484 57.3438C148.312 56.9844 148.227 56.612 148.227 56.2266C148.227 55.6328 148.344 55.1328 148.578 54.7266C148.818 54.3151 149.151 54.0026 149.578 53.7891C150.005 53.5755 150.505 53.4688 151.078 53.4688C151.635 53.4688 152.115 53.5807 152.516 53.8047C152.922 54.0234 153.234 54.3151 153.453 54.6797C153.672 55.0391 153.781 55.4349 153.781 55.8672C153.781 56.2318 153.716 56.5599 153.586 56.8516C153.456 57.138 153.273 57.401 153.039 57.6406C152.81 57.8802 152.542 58.1146 152.234 58.3438L149.977 60.0234C149.602 60.2995 149.328 60.5625 149.156 60.8125C148.984 61.0625 148.872 61.2839 148.82 61.4766C148.773 61.6693 148.75 61.8229 148.75 61.9375C148.75 62.3073 148.831 62.6458 148.992 62.9531C149.154 63.2604 149.398 63.5078 149.727 63.6953C150.06 63.8776 150.477 63.9688 150.977 63.9688C151.414 63.9688 151.839 63.8698 152.25 63.6719C152.667 63.4688 153.039 63.1823 153.367 62.8125C153.695 62.4375 153.956 61.9922 154.148 61.4766C154.346 60.9557 154.445 60.3802 154.445 59.75H155.742C155.742 60.2656 155.693 60.7526 155.594 61.2109C155.495 61.6693 155.341 62.0964 155.133 62.4922C154.93 62.8828 154.669 63.2396 154.352 63.5625C154.305 63.6094 154.268 63.6641 154.242 63.7266C154.216 63.7891 154.18 63.8438 154.133 63.8906C153.742 64.3125 153.26 64.6302 152.688 64.8438C152.12 65.0521 151.549 65.1562 150.977 65.1562C150.221 65.1562 149.568 65.0182 149.016 64.7422C148.469 64.4661 148.047 64.0859 147.75 63.6016C147.453 63.1172 147.305 62.5625 147.305 61.9375C147.305 61.4583 147.406 61.0365 147.609 60.6719C147.818 60.3073 148.102 59.9661 148.461 59.6484C148.826 59.3307 149.242 59.0104 149.711 58.6875ZM166.453 62.7578C166.453 62.5495 166.406 62.3568 166.312 62.1797C166.224 61.9974 166.039 61.8333 165.758 61.6875C165.482 61.5365 165.065 61.4062 164.508 61.2969C164.039 61.1979 163.615 61.0807 163.234 60.9453C162.859 60.8099 162.539 60.6458 162.273 60.4531C162.013 60.2604 161.812 60.0339 161.672 59.7734C161.531 59.513 161.461 59.2083 161.461 58.8594C161.461 58.526 161.534 58.2109 161.68 57.9141C161.831 57.6172 162.042 57.3542 162.312 57.125C162.589 56.8958 162.919 56.7161 163.305 56.5859C163.69 56.4557 164.12 56.3906 164.594 56.3906C165.271 56.3906 165.849 56.5104 166.328 56.75C166.807 56.9896 167.174 57.3099 167.43 57.7109C167.685 58.1068 167.812 58.5469 167.812 59.0312H166.367C166.367 58.7969 166.297 58.5703 166.156 58.3516C166.021 58.1276 165.82 57.9427 165.555 57.7969C165.294 57.651 164.974 57.5781 164.594 57.5781C164.193 57.5781 163.867 57.6406 163.617 57.7656C163.372 57.8854 163.193 58.0391 163.078 58.2266C162.969 58.4141 162.914 58.612 162.914 58.8203C162.914 58.9766 162.94 59.1172 162.992 59.2422C163.049 59.362 163.148 59.474 163.289 59.5781C163.43 59.6771 163.628 59.7708 163.883 59.8594C164.138 59.9479 164.464 60.0365 164.859 60.125C165.552 60.2812 166.122 60.4688 166.57 60.6875C167.018 60.9062 167.352 61.1745 167.57 61.4922C167.789 61.8099 167.898 62.1953 167.898 62.6484C167.898 63.0182 167.82 63.3568 167.664 63.6641C167.513 63.9714 167.292 64.237 167 64.4609C166.714 64.6797 166.37 64.8516 165.969 64.9766C165.573 65.0964 165.128 65.1562 164.633 65.1562C163.888 65.1562 163.258 65.0234 162.742 64.7578C162.227 64.4922 161.836 64.1484 161.57 63.7266C161.305 63.3047 161.172 62.8594 161.172 62.3906H162.625C162.646 62.7865 162.76 63.1016 162.969 63.3359C163.177 63.5651 163.432 63.7292 163.734 63.8281C164.036 63.9219 164.336 63.9688 164.633 63.9688C165.029 63.9688 165.359 63.9167 165.625 63.8125C165.896 63.7083 166.102 63.5651 166.242 63.3828C166.383 63.2005 166.453 62.9922 166.453 62.7578ZM174.969 63.0469V56.5469H176.422V65H175.039L174.969 63.0469ZM175.242 61.2656L175.844 61.25C175.844 61.8125 175.784 62.3333 175.664 62.8125C175.549 63.2865 175.362 63.6979 175.102 64.0469C174.841 64.3958 174.5 64.6693 174.078 64.8672C173.656 65.0599 173.143 65.1562 172.539 65.1562C172.128 65.1562 171.75 65.0964 171.406 64.9766C171.068 64.8568 170.776 64.6719 170.531 64.4219C170.286 64.1719 170.096 63.8464 169.961 63.4453C169.831 63.0443 169.766 62.5625 169.766 62V56.5469H171.211V62.0156C171.211 62.3958 171.253 62.7109 171.336 62.9609C171.424 63.2057 171.542 63.401 171.688 63.5469C171.839 63.6875 172.005 63.7865 172.188 63.8438C172.375 63.901 172.568 63.9297 172.766 63.9297C173.38 63.9297 173.867 63.8125 174.227 63.5781C174.586 63.3385 174.844 63.0182 175 62.6172C175.161 62.2109 175.242 61.7604 175.242 61.2656ZM180.07 58.1719V68.25H178.617V56.5469H179.945L180.07 58.1719ZM185.766 60.7031V60.8672C185.766 61.4818 185.693 62.0521 185.547 62.5781C185.401 63.099 185.188 63.5521 184.906 63.9375C184.63 64.3229 184.289 64.6224 183.883 64.8359C183.477 65.0495 183.01 65.1562 182.484 65.1562C181.948 65.1562 181.474 65.0677 181.062 64.8906C180.651 64.7135 180.302 64.4557 180.016 64.1172C179.729 63.7786 179.5 63.3724 179.328 62.8984C179.161 62.4245 179.047 61.8906 178.984 61.2969V60.4219C179.047 59.7969 179.164 59.237 179.336 58.7422C179.508 58.2474 179.734 57.8255 180.016 57.4766C180.302 57.1224 180.648 56.8542 181.055 56.6719C181.461 56.4844 181.93 56.3906 182.461 56.3906C182.992 56.3906 183.464 56.4948 183.875 56.7031C184.286 56.9062 184.633 57.1979 184.914 57.5781C185.195 57.9583 185.406 58.4141 185.547 58.9453C185.693 59.4714 185.766 60.0573 185.766 60.7031ZM184.312 60.8672V60.7031C184.312 60.2812 184.268 59.8854 184.18 59.5156C184.091 59.1406 183.953 58.8125 183.766 58.5312C183.583 58.2448 183.349 58.0208 183.062 57.8594C182.776 57.6927 182.435 57.6094 182.039 57.6094C181.674 57.6094 181.357 57.6719 181.086 57.7969C180.82 57.9219 180.594 58.0911 180.406 58.3047C180.219 58.513 180.065 58.7526 179.945 59.0234C179.831 59.2891 179.745 59.5651 179.688 59.8516V61.875C179.792 62.2396 179.938 62.5833 180.125 62.9062C180.312 63.224 180.562 63.4818 180.875 63.6797C181.188 63.8724 181.581 63.9688 182.055 63.9688C182.445 63.9688 182.781 63.888 183.062 63.7266C183.349 63.5599 183.583 63.3333 183.766 63.0469C183.953 62.7604 184.091 62.4323 184.18 62.0625C184.268 61.6875 184.312 61.2891 184.312 60.8672ZM189.055 58.1719V68.25H187.602V56.5469H188.93L189.055 58.1719ZM194.75 60.7031V60.8672C194.75 61.4818 194.677 62.0521 194.531 62.5781C194.385 63.099 194.172 63.5521 193.891 63.9375C193.615 64.3229 193.273 64.6224 192.867 64.8359C192.461 65.0495 191.995 65.1562 191.469 65.1562C190.932 65.1562 190.458 65.0677 190.047 64.8906C189.635 64.7135 189.286 64.4557 189 64.1172C188.714 63.7786 188.484 63.3724 188.312 62.8984C188.146 62.4245 188.031 61.8906 187.969 61.2969V60.4219C188.031 59.7969 188.148 59.237 188.32 58.7422C188.492 58.2474 188.719 57.8255 189 57.4766C189.286 57.1224 189.633 56.8542 190.039 56.6719C190.445 56.4844 190.914 56.3906 191.445 56.3906C191.977 56.3906 192.448 56.4948 192.859 56.7031C193.271 56.9062 193.617 57.1979 193.898 57.5781C194.18 57.9583 194.391 58.4141 194.531 58.9453C194.677 59.4714 194.75 60.0573 194.75 60.7031ZM193.297 60.8672V60.7031C193.297 60.2812 193.253 59.8854 193.164 59.5156C193.076 59.1406 192.938 58.8125 192.75 58.5312C192.568 58.2448 192.333 58.0208 192.047 57.8594C191.76 57.6927 191.419 57.6094 191.023 57.6094C190.659 57.6094 190.341 57.6719 190.07 57.7969C189.805 57.9219 189.578 58.0911 189.391 58.3047C189.203 58.513 189.049 58.7526 188.93 59.0234C188.815 59.2891 188.729 59.5651 188.672 59.8516V61.875C188.776 62.2396 188.922 62.5833 189.109 62.9062C189.297 63.224 189.547 63.4818 189.859 63.6797C190.172 63.8724 190.565 63.9688 191.039 63.9688C191.43 63.9688 191.766 63.888 192.047 63.7266C192.333 63.5599 192.568 63.3333 192.75 63.0469C192.938 62.7604 193.076 62.4323 193.164 62.0625C193.253 61.6875 193.297 61.2891 193.297 60.8672ZM196.211 60.8672V60.6875C196.211 60.0781 196.299 59.513 196.477 58.9922C196.654 58.4661 196.909 58.0104 197.242 57.625C197.576 57.2344 197.979 56.9323 198.453 56.7188C198.927 56.5 199.458 56.3906 200.047 56.3906C200.641 56.3906 201.174 56.5 201.648 56.7188C202.128 56.9323 202.534 57.2344 202.867 57.625C203.206 58.0104 203.464 58.4661 203.641 58.9922C203.818 59.513 203.906 60.0781 203.906 60.6875V60.8672C203.906 61.4766 203.818 62.0417 203.641 62.5625C203.464 63.0833 203.206 63.5391 202.867 63.9297C202.534 64.3151 202.13 64.6172 201.656 64.8359C201.188 65.0495 200.656 65.1562 200.062 65.1562C199.469 65.1562 198.935 65.0495 198.461 64.8359C197.987 64.6172 197.581 64.3151 197.242 63.9297C196.909 63.5391 196.654 63.0833 196.477 62.5625C196.299 62.0417 196.211 61.4766 196.211 60.8672ZM197.656 60.6875V60.8672C197.656 61.2891 197.706 61.6875 197.805 62.0625C197.904 62.4323 198.052 62.7604 198.25 63.0469C198.453 63.3333 198.706 63.5599 199.008 63.7266C199.31 63.888 199.661 63.9688 200.062 63.9688C200.458 63.9688 200.805 63.888 201.102 63.7266C201.404 63.5599 201.654 63.3333 201.852 63.0469C202.049 62.7604 202.198 62.4323 202.297 62.0625C202.401 61.6875 202.453 61.2891 202.453 60.8672V60.6875C202.453 60.2708 202.401 59.8776 202.297 59.5078C202.198 59.1328 202.047 58.8021 201.844 58.5156C201.646 58.224 201.396 57.9948 201.094 57.8281C200.797 57.6615 200.448 57.5781 200.047 57.5781C199.651 57.5781 199.302 57.6615 199 57.8281C198.703 57.9948 198.453 58.224 198.25 58.5156C198.052 58.8021 197.904 59.1328 197.805 59.5078C197.706 59.8776 197.656 60.2708 197.656 60.6875ZM207.164 57.875V65H205.719V56.5469H207.125L207.164 57.875ZM209.805 56.5L209.797 57.8438C209.677 57.8177 209.562 57.8021 209.453 57.7969C209.349 57.7865 209.229 57.7812 209.094 57.7812C208.76 57.7812 208.466 57.8333 208.211 57.9375C207.956 58.0417 207.74 58.1875 207.562 58.375C207.385 58.5625 207.245 58.7865 207.141 59.0469C207.042 59.3021 206.977 59.5833 206.945 59.8906L206.539 60.125C206.539 59.6146 206.589 59.1354 206.688 58.6875C206.792 58.2396 206.951 57.8438 207.164 57.5C207.378 57.151 207.648 56.8802 207.977 56.6875C208.31 56.4896 208.706 56.3906 209.164 56.3906C209.268 56.3906 209.388 56.4036 209.523 56.4297C209.659 56.4505 209.753 56.474 209.805 56.5ZM215.07 56.5469V57.6562H210.5V56.5469H215.07ZM212.047 54.4922H213.492V62.9062C213.492 63.1927 213.536 63.4089 213.625 63.5547C213.714 63.7005 213.828 63.7969 213.969 63.8438C214.109 63.8906 214.26 63.9141 214.422 63.9141C214.542 63.9141 214.667 63.9036 214.797 63.8828C214.932 63.8568 215.034 63.8359 215.102 63.8203L215.109 65C214.995 65.0365 214.844 65.0703 214.656 65.1016C214.474 65.138 214.253 65.1562 213.992 65.1562C213.638 65.1562 213.312 65.0859 213.016 64.9453C212.719 64.8047 212.482 64.5703 212.305 64.2422C212.133 63.9089 212.047 63.4609 212.047 62.8984V54.4922ZM220.352 60.8672V60.6875C220.352 60.0781 220.44 59.513 220.617 58.9922C220.794 58.4661 221.049 58.0104 221.383 57.625C221.716 57.2344 222.12 56.9323 222.594 56.7188C223.068 56.5 223.599 56.3906 224.188 56.3906C224.781 56.3906 225.315 56.5 225.789 56.7188C226.268 56.9323 226.674 57.2344 227.008 57.625C227.346 58.0104 227.604 58.4661 227.781 58.9922C227.958 59.513 228.047 60.0781 228.047 60.6875V60.8672C228.047 61.4766 227.958 62.0417 227.781 62.5625C227.604 63.0833 227.346 63.5391 227.008 63.9297C226.674 64.3151 226.271 64.6172 225.797 64.8359C225.328 65.0495 224.797 65.1562 224.203 65.1562C223.609 65.1562 223.076 65.0495 222.602 64.8359C222.128 64.6172 221.721 64.3151 221.383 63.9297C221.049 63.5391 220.794 63.0833 220.617 62.5625C220.44 62.0417 220.352 61.4766 220.352 60.8672ZM221.797 60.6875V60.8672C221.797 61.2891 221.846 61.6875 221.945 62.0625C222.044 62.4323 222.193 62.7604 222.391 63.0469C222.594 63.3333 222.846 63.5599 223.148 63.7266C223.451 63.888 223.802 63.9688 224.203 63.9688C224.599 63.9688 224.945 63.888 225.242 63.7266C225.544 63.5599 225.794 63.3333 225.992 63.0469C226.19 62.7604 226.339 62.4323 226.438 62.0625C226.542 61.6875 226.594 61.2891 226.594 60.8672V60.6875C226.594 60.2708 226.542 59.8776 226.438 59.5078C226.339 59.1328 226.188 58.8021 225.984 58.5156C225.786 58.224 225.536 57.9948 225.234 57.8281C224.938 57.6615 224.589 57.5781 224.188 57.5781C223.792 57.5781 223.443 57.6615 223.141 57.8281C222.844 57.9948 222.594 58.224 222.391 58.5156C222.193 58.8021 222.044 59.1328 221.945 59.5078C221.846 59.8776 221.797 60.2708 221.797 60.6875ZM235.031 63.0469V56.5469H236.484V65H235.102L235.031 63.0469ZM235.305 61.2656L235.906 61.25C235.906 61.8125 235.846 62.3333 235.727 62.8125C235.612 63.2865 235.424 63.6979 235.164 64.0469C234.904 64.3958 234.562 64.6693 234.141 64.8672C233.719 65.0599 233.206 65.1562 232.602 65.1562C232.19 65.1562 231.812 65.0964 231.469 64.9766C231.13 64.8568 230.839 64.6719 230.594 64.4219C230.349 64.1719 230.159 63.8464 230.023 63.4453C229.893 63.0443 229.828 62.5625 229.828 62V56.5469H231.273V62.0156C231.273 62.3958 231.315 62.7109 231.398 62.9609C231.487 63.2057 231.604 63.401 231.75 63.5469C231.901 63.6875 232.068 63.7865 232.25 63.8438C232.438 63.901 232.63 63.9297 232.828 63.9297C233.443 63.9297 233.93 63.8125 234.289 63.5781C234.648 63.3385 234.906 63.0182 235.062 62.6172C235.224 62.2109 235.305 61.7604 235.305 61.2656ZM242.227 56.5469V57.6562H237.656V56.5469H242.227ZM239.203 54.4922H240.648V62.9062C240.648 63.1927 240.693 63.4089 240.781 63.5547C240.87 63.7005 240.984 63.7969 241.125 63.8438C241.266 63.8906 241.417 63.9141 241.578 63.9141C241.698 63.9141 241.823 63.9036 241.953 63.8828C242.089 63.8568 242.19 63.8359 242.258 63.8203L242.266 65C242.151 65.0365 242 65.0703 241.812 65.1016C241.63 65.138 241.409 65.1562 241.148 65.1562C240.794 65.1562 240.469 65.0859 240.172 64.9453C239.875 64.8047 239.638 64.5703 239.461 64.2422C239.289 63.9089 239.203 63.4609 239.203 62.8984V54.4922ZM118.375 77.5469V78.6562H113.805V77.5469H118.375ZM115.352 75.4922H116.797V83.9062C116.797 84.1927 116.841 84.4089 116.93 84.5547C117.018 84.7005 117.133 84.7969 117.273 84.8438C117.414 84.8906 117.565 84.9141 117.727 84.9141C117.846 84.9141 117.971 84.9036 118.102 84.8828C118.237 84.8568 118.339 84.8359 118.406 84.8203L118.414 86C118.299 86.0365 118.148 86.0703 117.961 86.1016C117.779 86.138 117.557 86.1562 117.297 86.1562C116.943 86.1562 116.617 86.0859 116.32 85.9453C116.023 85.8047 115.786 85.5703 115.609 85.2422C115.438 84.9089 115.352 84.4609 115.352 83.8984V75.4922ZM121.516 74V86H120.07V74H121.516ZM121.172 81.4531L120.57 81.4297C120.576 80.8516 120.661 80.3177 120.828 79.8281C120.995 79.3333 121.229 78.9036 121.531 78.5391C121.833 78.1745 122.193 77.8932 122.609 77.6953C123.031 77.4922 123.497 77.3906 124.008 77.3906C124.424 77.3906 124.799 77.4479 125.133 77.5625C125.466 77.6719 125.75 77.849 125.984 78.0938C126.224 78.3385 126.406 78.6562 126.531 79.0469C126.656 79.4323 126.719 79.9036 126.719 80.4609V86H125.266V80.4453C125.266 80.0026 125.201 79.6484 125.07 79.3828C124.94 79.112 124.75 78.9167 124.5 78.7969C124.25 78.6719 123.943 78.6094 123.578 78.6094C123.219 78.6094 122.891 78.6849 122.594 78.8359C122.302 78.987 122.049 79.1953 121.836 79.4609C121.628 79.7266 121.464 80.0312 121.344 80.375C121.229 80.7135 121.172 81.0729 121.172 81.4531ZM132.391 86.1562C131.802 86.1562 131.268 86.0573 130.789 85.8594C130.315 85.6562 129.906 85.3724 129.562 85.0078C129.224 84.6432 128.964 84.2109 128.781 83.7109C128.599 83.2109 128.508 82.6641 128.508 82.0703V81.7422C128.508 81.0547 128.609 80.4427 128.812 79.9062C129.016 79.3646 129.292 78.9062 129.641 78.5312C129.99 78.1562 130.385 77.8724 130.828 77.6797C131.271 77.487 131.729 77.3906 132.203 77.3906C132.807 77.3906 133.328 77.4948 133.766 77.7031C134.208 77.9115 134.57 78.2031 134.852 78.5781C135.133 78.9479 135.341 79.3854 135.477 79.8906C135.612 80.3906 135.68 80.9375 135.68 81.5312V82.1797H129.367V81H134.234V80.8906C134.214 80.5156 134.135 80.151 134 79.7969C133.87 79.4427 133.661 79.151 133.375 78.9219C133.089 78.6927 132.698 78.5781 132.203 78.5781C131.875 78.5781 131.573 78.6484 131.297 78.7891C131.021 78.9245 130.784 79.1276 130.586 79.3984C130.388 79.6693 130.234 80 130.125 80.3906C130.016 80.7812 129.961 81.2318 129.961 81.7422V82.0703C129.961 82.4714 130.016 82.849 130.125 83.2031C130.24 83.5521 130.404 83.8594 130.617 84.125C130.836 84.3906 131.099 84.599 131.406 84.75C131.719 84.901 132.073 84.9766 132.469 84.9766C132.979 84.9766 133.411 84.8724 133.766 84.6641C134.12 84.4557 134.43 84.1771 134.695 83.8281L135.57 84.5234C135.388 84.7995 135.156 85.0625 134.875 85.3125C134.594 85.5625 134.247 85.7656 133.836 85.9219C133.43 86.0781 132.948 86.1562 132.391 86.1562ZM138.812 78.875V86H137.367V77.5469H138.773L138.812 78.875ZM141.453 77.5L141.445 78.8438C141.326 78.8177 141.211 78.8021 141.102 78.7969C140.997 78.7865 140.878 78.7812 140.742 78.7812C140.409 78.7812 140.115 78.8333 139.859 78.9375C139.604 79.0417 139.388 79.1875 139.211 79.375C139.034 79.5625 138.893 79.7865 138.789 80.0469C138.69 80.3021 138.625 80.5833 138.594 80.8906L138.188 81.125C138.188 80.6146 138.237 80.1354 138.336 79.6875C138.44 79.2396 138.599 78.8438 138.812 78.5C139.026 78.151 139.297 77.8802 139.625 77.6875C139.958 77.4896 140.354 77.3906 140.812 77.3906C140.917 77.3906 141.036 77.4036 141.172 77.4297C141.307 77.4505 141.401 77.474 141.453 77.5ZM146.141 86.1562C145.552 86.1562 145.018 86.0573 144.539 85.8594C144.065 85.6562 143.656 85.3724 143.312 85.0078C142.974 84.6432 142.714 84.2109 142.531 83.7109C142.349 83.2109 142.258 82.6641 142.258 82.0703V81.7422C142.258 81.0547 142.359 80.4427 142.562 79.9062C142.766 79.3646 143.042 78.9062 143.391 78.5312C143.74 78.1562 144.135 77.8724 144.578 77.6797C145.021 77.487 145.479 77.3906 145.953 77.3906C146.557 77.3906 147.078 77.4948 147.516 77.7031C147.958 77.9115 148.32 78.2031 148.602 78.5781C148.883 78.9479 149.091 79.3854 149.227 79.8906C149.362 80.3906 149.43 80.9375 149.43 81.5312V82.1797H143.117V81H147.984V80.8906C147.964 80.5156 147.885 80.151 147.75 79.7969C147.62 79.4427 147.411 79.151 147.125 78.9219C146.839 78.6927 146.448 78.5781 145.953 78.5781C145.625 78.5781 145.323 78.6484 145.047 78.7891C144.771 78.9245 144.534 79.1276 144.336 79.3984C144.138 79.6693 143.984 80 143.875 80.3906C143.766 80.7812 143.711 81.2318 143.711 81.7422V82.0703C143.711 82.4714 143.766 82.849 143.875 83.2031C143.99 83.5521 144.154 83.8594 144.367 84.125C144.586 84.3906 144.849 84.599 145.156 84.75C145.469 84.901 145.823 84.9766 146.219 84.9766C146.729 84.9766 147.161 84.8724 147.516 84.6641C147.87 84.4557 148.18 84.1771 148.445 83.8281L149.32 84.5234C149.138 84.7995 148.906 85.0625 148.625 85.3125C148.344 85.5625 147.997 85.7656 147.586 85.9219C147.18 86.0781 146.698 86.1562 146.141 86.1562ZM152.836 74.625L152.734 82.7891H151.43L151.32 74.625H152.836ZM151.273 85.2734C151.273 85.0391 151.344 84.8411 151.484 84.6797C151.63 84.5182 151.844 84.4375 152.125 84.4375C152.401 84.4375 152.612 84.5182 152.758 84.6797C152.909 84.8411 152.984 85.0391 152.984 85.2734C152.984 85.4974 152.909 85.6901 152.758 85.8516C152.612 86.013 152.401 86.0938 152.125 86.0938C151.844 86.0938 151.63 86.013 151.484 85.8516C151.344 85.6901 151.273 85.4974 151.273 85.2734ZM156.312 74V75.0625L156.078 77.8516H155.211V75.1328V74H156.312ZM158.422 74V75.0625L158.188 77.8516H157.32V75.0781V74H158.422Z" fill="#1F1E1E"/>
<defs>
<clipPath id="clip0_4_1720">
<rect width="128" height="32" fill="white" transform="translate(72 1)"/>
</clipPath>
</defs>
</svg>
